{"glyphs":{"0":{"ha":877,"x_min":90,"x_max":787,"o":"m 427 -20 q 251 24 327 -20 q 132 158 175 67 q 90 388 90 250 q 179 711 90 600 q 452 822 269 822 q 622 780 547 822 q 742 649 698 737 q 787 431 787 562 q 698 92 787 203 q 427 -20 610 -20 m 325 184 q 354 119 334 149 q 400 71 374 89 q 455 53 427 53 q 498 57 481 53 q 524 73 514 62 q 565 182 549 100 q 581 353 581 264 q 541 651 581 554 q 491 722 523 694 q 416 750 458 750 q 353 730 370 750 q 314 627 330 705 q 297 459 297 549 q 325 184 297 271 z "},"1":{"ha":640,"x_min":74,"x_max":554,"o":"m 74 669 l 86 733 l 433 817 l 433 96 l 554 66 l 539 0 l 83 0 l 94 54 l 241 95 l 241 669 l 74 669 z "},"2":{"ha":821,"x_min":79,"x_max":738,"o":"m 112 581 l 112 758 q 217 796 160 781 q 322 816 274 810 q 398 822 371 822 q 557 796 489 822 q 664 722 626 770 q 701 609 701 674 q 643 440 701 526 q 505 278 585 353 q 300 101 425 203 l 259 68 l 583 100 l 661 222 l 738 211 l 689 0 l 102 0 l 79 62 q 237 231 125 115 q 313 311 254 250 q 401 408 371 372 q 467 505 438 450 q 496 609 496 560 q 484 672 496 647 q 429 721 469 703 q 336 739 389 739 q 257 732 293 739 l 189 566 l 112 581 z "},"3":{"ha":762,"x_min":85,"x_max":682,"o":"m 430 453 q 545 429 492 452 q 632 360 599 406 q 665 250 665 314 q 500 17 665 80 q 115 -50 336 -46 l 104 5 q 281 55 208 29 q 410 130 355 81 q 465 251 465 178 q 395 366 465 332 q 227 401 326 401 l 242 461 l 516 725 q 205 702 386 708 l 163 589 l 85 602 l 93 812 l 212 805 l 658 809 l 682 740 l 430 453 z "},"4":{"ha":837,"x_min":31,"x_max":772,"o":"m 749 170 l 646 170 l 646 -27 l 458 -65 l 458 170 l 66 170 l 31 231 l 357 822 l 551 772 l 239 269 l 458 280 l 458 438 l 646 481 l 646 290 l 772 297 l 749 170 z "},"5":{"ha":720,"x_min":70,"x_max":631,"o":"m 70 5 q 236 55 165 28 q 359 131 307 82 q 412 250 412 179 q 353 378 412 338 q 201 417 295 417 q 97 414 158 417 l 132 805 l 631 805 l 573 686 l 286 711 l 277 478 q 361 481 326 481 q 496 455 439 481 q 583 380 553 429 q 613 262 613 331 q 82 -51 613 -43 l 70 5 z "},"6":{"ha":804,"x_min":66,"x_max":722,"o":"m 302 141 q 358 80 324 104 q 433 56 392 56 q 476 62 460 56 q 503 81 492 67 q 531 224 531 112 q 491 364 531 311 q 354 429 452 417 l 365 470 q 417 487 387 481 q 471 494 447 494 q 602 466 545 494 q 691 388 659 439 q 722 267 722 336 q 679 111 722 176 q 561 13 635 46 q 399 -20 487 -20 q 217 21 292 -20 q 104 140 142 63 q 66 322 66 217 q 127 556 66 448 q 298 741 189 665 q 545 852 408 818 l 608 820 q 353 603 443 720 q 262 340 262 487 q 272 225 262 273 q 302 141 281 177 z "},"7":{"ha":804,"x_min":85,"x_max":745,"o":"m 562 705 l 214 690 l 167 561 l 85 573 l 94 814 l 219 805 l 716 806 l 745 726 l 342 -45 l 152 0 l 562 705 z "},"8":{"ha":790,"x_min":91,"x_max":699,"o":"m 91 189 q 133 313 91 262 q 248 406 174 363 q 147 491 182 444 q 112 612 112 538 q 148 722 112 674 q 250 796 184 770 q 397 822 315 822 q 538 801 475 822 q 639 735 602 779 q 676 626 676 692 q 641 510 676 558 q 545 421 606 463 q 659 328 618 380 q 699 196 699 276 q 618 34 699 87 q 401 -20 538 -20 q 248 1 317 -20 q 134 68 178 22 q 91 189 91 115 m 469 462 q 494 524 484 490 q 504 593 504 558 q 484 672 504 635 q 430 731 463 709 q 361 753 397 753 q 308 737 326 753 q 283 661 283 716 q 316 566 283 608 q 382 513 334 544 q 469 462 429 482 m 275 227 q 296 139 275 178 q 352 78 317 100 q 428 56 387 56 q 468 59 452 56 q 494 72 484 62 q 514 103 509 83 q 518 151 518 122 q 485 252 518 211 q 409 314 464 278 q 316 367 353 350 q 275 227 275 298 z "},"9":{"ha":808,"x_min":76,"x_max":727,"o":"m 126 5 q 364 132 276 58 q 488 294 452 206 q 524 489 524 382 q 507 610 524 547 q 455 711 490 673 q 361 750 419 750 q 299 730 319 750 q 269 606 269 703 q 276 518 269 554 q 303 456 283 482 q 348 422 319 435 q 422 405 376 410 l 433 358 q 323 347 393 347 q 216 362 264 347 q 137 408 168 378 q 92 478 108 437 q 76 573 76 520 q 112 708 76 652 q 216 793 148 764 q 382 822 285 822 q 572 780 494 822 q 688 663 649 739 q 727 484 727 587 q 695 278 727 369 q 585 113 663 187 q 138 -50 413 -50 l 126 5 z "},"\r":{"ha":260,"x_min":0,"x_max":0,"o":""}," ":{"ha":394,"x_min":0,"x_max":0,"o":""},"A":{"ha":971,"x_min":-26,"x_max":995,"o":"m 995 66 l 977 0 l 547 0 l 558 57 l 666 101 l 606 282 q 273 273 446 273 l 214 102 l 340 55 l 329 0 l -26 0 l -14 64 l 94 106 l 397 939 l 555 962 l 888 101 l 995 66 m 571 385 l 437 783 q 311 385 431 740 l 571 385 z "},"Á":{"ha":971,"x_min":-26,"x_max":995,"o":"m 995 66 l 977 0 l 547 0 l 558 57 l 666 101 l 606 282 q 273 273 446 273 l 214 102 l 340 55 l 329 0 l -26 0 l -14 64 l 94 106 l 397 939 l 555 962 l 888 101 l 995 66 m 571 385 l 437 783 q 311 385 431 740 l 571 385 m 340 1083 l 577 1221 l 665 1221 l 688 1109 l 356 1010 l 340 1083 z "},"Ă":{"ha":971,"x_min":-26,"x_max":995,"o":"m 995 66 l 977 0 l 547 0 l 558 57 l 666 101 l 606 282 q 273 273 446 273 l 214 102 l 340 55 l 329 0 l -26 0 l -14 64 l 94 106 l 397 939 l 555 962 l 888 101 l 995 66 m 571 385 l 437 783 q 311 385 431 740 l 571 385 m 475 1002 q 368 1024 415 1002 q 294 1083 320 1046 q 268 1166 268 1121 q 284 1216 268 1208 l 368 1216 q 475 1103 388 1103 q 542 1130 515 1103 q 578 1216 568 1158 l 663 1216 q 673 1199 669 1211 q 677 1170 677 1187 q 651 1085 677 1123 q 579 1024 625 1046 q 475 1002 533 1002 z "},"Â":{"ha":971,"x_min":-26,"x_max":995,"o":"m 995 66 l 977 0 l 547 0 l 558 57 l 666 101 l 606 282 q 273 273 446 273 l 214 102 l 340 55 l 329 0 l -26 0 l -14 64 l 94 106 l 397 939 l 555 962 l 888 101 l 995 66 m 571 385 l 437 783 q 311 385 431 740 l 571 385 m 243 1058 l 433 1219 l 513 1219 l 703 1058 l 645 1008 l 473 1093 l 300 1008 l 243 1058 z "},"Ä":{"ha":971,"x_min":-26,"x_max":995,"o":"m 995 66 l 977 0 l 547 0 l 558 57 l 666 101 l 606 282 q 273 273 446 273 l 214 102 l 340 55 l 329 0 l -26 0 l -14 64 l 94 106 l 397 939 l 555 962 l 888 101 l 995 66 m 571 385 l 437 783 q 311 385 431 740 l 571 385 m 535 1096 q 548 1137 533 1109 q 583 1187 562 1165 q 618 1209 604 1209 q 657 1195 631 1209 q 703 1162 682 1181 q 727 1131 724 1143 q 714 1089 729 1117 q 680 1039 700 1061 q 645 1017 659 1017 q 605 1031 631 1017 q 559 1064 580 1045 q 535 1096 538 1083 m 218 1096 q 231 1137 216 1109 q 266 1187 245 1164 q 300 1209 287 1209 q 339 1195 314 1209 q 386 1162 365 1181 q 410 1131 408 1143 q 397 1089 412 1117 q 362 1039 382 1061 q 327 1017 341 1017 q 288 1031 313 1017 q 241 1064 262 1045 q 218 1096 220 1083 z "},"À":{"ha":971,"x_min":-26,"x_max":995,"o":"m 995 66 l 977 0 l 547 0 l 558 57 l 666 101 l 606 282 q 273 273 446 273 l 214 102 l 340 55 l 329 0 l -26 0 l -14 64 l 94 106 l 397 939 l 555 962 l 888 101 l 995 66 m 571 385 l 437 783 q 311 385 431 740 l 571 385 m 298 1110 l 321 1221 l 409 1221 l 645 1084 l 630 1009 l 298 1110 z "},"Ā":{"ha":971,"x_min":-26,"x_max":995,"o":"m 995 66 l 977 0 l 547 0 l 558 57 l 666 101 l 606 282 q 273 273 446 273 l 214 102 l 340 55 l 329 0 l -26 0 l -14 64 l 94 106 l 397 939 l 555 962 l 888 101 l 995 66 m 571 385 l 437 783 q 311 385 431 740 l 571 385 m 283 1153 l 684 1153 l 664 1048 q 467 1042 586 1044 q 260 1040 348 1040 l 283 1153 z "},"Ą":{"ha":971,"x_min":-27,"x_max":992,"o":"m 711 -32 q 647 -94 675 -58 q 620 -156 620 -130 q 632 -202 620 -180 q 665 -234 645 -224 q 692 -241 679 -241 q 746 -232 715 -241 q 805 -210 778 -224 l 825 -239 q 631 -334 734 -334 q 552 -318 589 -334 q 492 -270 515 -302 q 469 -190 469 -237 q 484 -126 469 -154 q 522 -78 500 -98 q 583 -29 545 -58 q 642 18 624 1 q 671 77 671 44 q 665 106 671 90 l 605 283 q 348 274 500 274 l 275 275 l 251 205 q 214 102 219 115 l 340 56 l 328 0 l -27 0 l -13 64 l 95 106 l 397 939 l 555 962 l 888 101 l 992 66 l 973 0 l 810 0 q 757 -7 781 0 q 711 -32 733 -15 m 571 385 l 437 783 q 313 385 387 604 l 571 385 z "},"Å":{"ha":971,"x_min":-26,"x_max":995,"o":"m 995 66 l 977 0 l 547 0 l 558 57 l 666 101 l 606 282 q 273 273 446 273 l 214 102 l 340 55 l 329 0 l -26 0 l -14 64 l 94 106 l 391 921 q 351 963 366 937 q 336 1021 336 989 q 354 1091 336 1060 q 402 1139 371 1122 q 476 1157 434 1157 q 540 1141 510 1157 q 589 1098 570 1126 q 608 1034 608 1069 q 597 978 608 1003 q 566 934 586 952 l 888 101 l 995 66 m 467 1082 q 435 1067 447 1082 q 422 1033 422 1053 q 436 993 422 1010 q 476 976 450 976 q 508 989 496 976 q 520 1022 520 1002 q 506 1064 520 1047 q 467 1082 491 1082 m 571 385 l 437 783 q 311 385 431 740 l 571 385 z "},"Ã":{"ha":971,"x_min":-26,"x_max":995,"o":"m 995 66 l 977 0 l 547 0 l 558 57 l 666 101 l 606 282 q 273 273 446 273 l 214 102 l 340 55 l 329 0 l -26 0 l -14 64 l 94 106 l 397 939 l 555 962 l 888 101 l 995 66 m 571 385 l 437 783 q 311 385 431 740 l 571 385 m 222 1133 q 277 1191 254 1168 q 329 1227 301 1213 q 388 1242 357 1242 q 450 1226 422 1242 q 511 1183 477 1211 q 543 1158 530 1166 q 566 1150 555 1150 q 627 1172 587 1150 q 707 1227 667 1194 l 722 1136 q 666 1079 690 1101 q 615 1042 643 1057 q 555 1027 587 1027 q 493 1043 521 1027 q 433 1086 466 1059 q 401 1111 413 1103 q 379 1119 389 1119 q 315 1097 356 1119 q 239 1042 274 1075 l 222 1133 z "},"Æ":{"ha":1312,"x_min":-30,"x_max":1285,"o":"m 601 284 q 300 274 513 274 l 210 102 l 332 56 l 319 0 l -30 0 l -18 63 l 85 102 l 473 846 l 370 884 l 382 939 l 1116 939 l 1210 947 l 1236 709 l 1152 693 l 1087 837 q 800 879 935 856 l 800 503 q 892 517 832 510 q 969 526 951 525 l 1011 641 l 1074 626 l 1062 308 l 998 317 l 968 426 q 893 433 955 426 q 800 447 832 439 l 800 67 q 926 88 821 73 q 1126 112 1032 103 l 1209 243 l 1285 233 l 1231 0 l 471 0 l 481 60 l 601 106 l 601 284 m 601 806 l 570 806 l 357 385 l 601 385 l 601 806 z "},"B":{"ha":926,"x_min":40,"x_max":872,"o":"m 52 58 l 170 105 l 170 834 l 43 884 l 55 939 l 324 939 q 599 926 496 939 q 765 866 701 913 q 829 719 829 819 q 799 612 829 657 q 718 540 768 567 q 607 502 668 513 q 742 465 682 494 q 837 384 802 435 q 872 266 872 333 q 822 109 872 167 q 671 25 772 51 q 407 0 570 0 l 40 0 l 52 58 m 622 713 q 552 836 622 798 q 376 885 482 874 l 376 55 q 521 89 461 68 q 620 152 581 110 q 658 265 658 195 q 599 401 658 351 q 448 475 540 452 l 454 515 q 578 591 535 541 q 622 713 622 642 z "},"C":{"ha":871,"x_min":58,"x_max":843,"o":"m 502 -24 q 270 30 370 -24 q 114 188 170 83 q 58 438 58 292 q 104 682 58 572 q 236 861 151 791 q 543 962 360 962 q 692 948 607 962 l 791 955 l 812 697 l 728 682 l 669 822 q 588 852 632 843 q 489 861 543 861 q 408 852 446 861 q 353 825 371 842 q 295 699 316 787 q 274 504 274 611 q 357 214 274 323 q 448 137 397 163 q 550 111 500 111 q 683 129 585 111 q 819 156 780 146 l 843 113 q 697 11 783 45 q 502 -24 611 -24 z "},"Ć":{"ha":871,"x_min":58,"x_max":843,"o":"m 502 -24 q 270 30 370 -24 q 114 188 170 83 q 58 438 58 292 q 104 682 58 572 q 236 861 151 791 q 543 962 360 962 q 692 948 607 962 l 791 955 l 812 697 l 728 682 l 669 822 q 588 852 632 843 q 489 861 543 861 q 408 852 446 861 q 353 825 371 842 q 295 699 316 787 q 274 504 274 611 q 357 214 274 323 q 448 137 397 163 q 550 111 500 111 q 683 129 585 111 q 819 156 780 146 l 843 113 q 697 11 783 45 q 502 -24 611 -24 m 367 1083 l 604 1221 l 692 1221 l 715 1109 l 383 1010 l 367 1083 z "},"Č":{"ha":871,"x_min":58,"x_max":843,"o":"m 502 -24 q 270 30 370 -24 q 114 188 170 83 q 58 438 58 292 q 104 682 58 572 q 236 861 151 791 q 543 962 360 962 q 692 948 607 962 l 791 955 l 812 697 l 728 682 l 669 822 q 588 852 632 843 q 489 861 543 861 q 408 852 446 861 q 353 825 371 842 q 295 699 316 787 q 274 504 274 611 q 357 214 274 323 q 448 137 397 163 q 550 111 500 111 q 683 129 585 111 q 819 156 780 146 l 843 113 q 697 11 783 45 q 502 -24 611 -24 m 271 1181 l 326 1231 l 499 1145 l 672 1231 l 728 1181 l 543 1027 l 456 1027 l 271 1181 z "},"Ç":{"ha":871,"x_min":58,"x_max":843,"o":"m 843 113 q 528 -23 730 -15 l 512 -69 q 579 -85 547 -71 q 632 -122 612 -98 q 652 -178 652 -146 q 610 -269 652 -233 q 505 -322 569 -305 q 374 -339 441 -339 l 364 -292 q 495 -233 462 -256 q 528 -193 528 -210 q 376 -130 528 -153 q 441 -21 393 -71 q 240 48 326 -9 q 106 204 153 104 q 58 438 58 303 q 104 682 58 572 q 236 861 151 791 q 543 962 360 962 q 692 948 607 962 l 791 955 l 812 697 l 728 682 l 669 822 q 588 852 632 843 q 489 861 543 861 q 408 852 446 861 q 353 825 371 842 q 295 699 316 787 q 274 504 274 611 q 357 214 274 323 q 448 137 397 163 q 550 111 500 111 q 683 129 585 111 q 819 156 780 146 l 843 113 z "},"D":{"ha":1029,"x_min":40,"x_max":974,"o":"m 171 105 l 171 834 l 44 884 l 56 939 l 374 939 q 608 924 507 939 q 782 865 709 910 q 928 703 883 804 q 974 475 974 602 q 946 284 974 369 q 863 140 918 199 q 732 53 809 83 q 567 11 656 22 q 366 0 478 0 l 40 0 l 52 57 l 171 105 m 376 67 q 589 129 507 86 q 715 254 672 171 q 758 473 758 336 q 617 790 758 686 q 512 842 576 820 q 376 873 448 864 l 376 67 z "},"Ð":{"ha":1019,"x_min":33,"x_max":974,"o":"m 783 865 q 928 703 883 804 q 974 475 974 602 q 946 284 974 370 q 863 140 919 199 q 733 53 810 83 q 567 11 656 22 q 366 0 478 0 l 41 0 l 52 57 l 171 105 l 171 411 l 33 406 l 57 528 l 171 528 l 171 834 l 44 884 l 56 939 l 375 939 q 608 924 507 939 q 783 865 709 910 m 376 67 q 589 129 507 86 q 715 254 672 171 q 758 473 758 336 q 617 790 758 687 q 512 842 576 820 q 376 873 448 864 l 376 528 l 575 528 l 551 423 l 376 418 l 376 67 z "},"Ď":{"ha":1029,"x_min":40,"x_max":974,"o":"m 171 105 l 171 834 l 44 884 l 56 939 l 374 939 q 608 924 507 939 q 782 865 709 910 q 928 703 883 804 q 974 475 974 602 q 946 284 974 369 q 863 140 918 199 q 732 53 809 83 q 567 11 656 22 q 366 0 478 0 l 40 0 l 52 57 l 171 105 m 376 67 q 589 129 507 86 q 715 254 672 171 q 758 473 758 336 q 617 790 758 686 q 512 842 576 820 q 376 873 448 864 l 376 67 m 239 1181 l 295 1231 l 468 1145 l 641 1231 l 696 1181 l 511 1027 l 425 1027 l 239 1181 z "},"Đ":{"ha":1019,"x_min":33,"x_max":974,"o":"m 783 865 q 928 703 883 804 q 974 475 974 602 q 946 284 974 370 q 863 140 919 199 q 733 53 810 83 q 567 11 656 22 q 366 0 478 0 l 41 0 l 52 57 l 171 105 l 171 411 l 33 406 l 57 528 l 171 528 l 171 834 l 44 884 l 56 939 l 375 939 q 608 924 507 939 q 783 865 709 910 m 376 67 q 589 129 507 86 q 715 254 672 171 q 758 473 758 336 q 617 790 758 687 q 512 842 576 820 q 376 873 448 864 l 376 528 l 575 528 l 551 423 l 376 418 l 376 67 z "},"E":{"ha":903,"x_min":37,"x_max":876,"o":"m 718 112 l 800 243 l 876 231 l 823 0 l 37 0 l 48 60 l 172 106 l 172 835 l 44 884 l 57 939 l 706 939 l 800 947 l 825 709 l 743 693 l 677 837 l 376 879 l 376 503 q 553 526 469 519 l 597 640 l 660 627 l 648 307 l 583 319 l 552 426 q 376 447 448 432 l 376 67 l 718 112 z "},"É":{"ha":903,"x_min":37,"x_max":876,"o":"m 718 112 l 800 243 l 876 231 l 823 0 l 37 0 l 48 60 l 172 106 l 172 835 l 44 884 l 57 939 l 706 939 l 800 947 l 825 709 l 743 693 l 677 837 l 376 879 l 376 503 q 553 526 469 519 l 597 640 l 660 627 l 648 307 l 583 319 l 552 426 q 376 447 448 432 l 376 67 l 718 112 m 317 1083 l 554 1221 l 642 1221 l 665 1109 l 333 1010 l 317 1083 z "},"Ě":{"ha":903,"x_min":37,"x_max":876,"o":"m 718 112 l 800 243 l 876 231 l 823 0 l 37 0 l 48 60 l 172 106 l 172 835 l 44 884 l 57 939 l 706 939 l 800 947 l 825 709 l 743 693 l 677 837 l 376 879 l 376 503 q 553 526 469 519 l 597 640 l 660 627 l 648 307 l 583 319 l 552 426 q 376 447 448 432 l 376 67 l 718 112 m 220 1181 l 276 1231 l 449 1145 l 622 1231 l 677 1181 l 492 1027 l 406 1027 l 220 1181 z "},"Ê":{"ha":903,"x_min":37,"x_max":876,"o":"m 718 112 l 800 243 l 876 231 l 823 0 l 37 0 l 48 60 l 172 106 l 172 835 l 44 884 l 57 939 l 706 939 l 800 947 l 825 709 l 743 693 l 677 837 l 376 879 l 376 503 q 553 526 469 519 l 597 640 l 660 627 l 648 307 l 583 319 l 552 426 q 376 447 448 432 l 376 67 l 718 112 m 220 1058 l 410 1219 l 490 1219 l 680 1058 l 622 1008 l 450 1093 l 277 1008 l 220 1058 z "},"Ë":{"ha":903,"x_min":37,"x_max":876,"o":"m 718 112 l 800 243 l 876 231 l 823 0 l 37 0 l 48 60 l 172 106 l 172 835 l 44 884 l 57 939 l 706 939 l 800 947 l 825 709 l 743 693 l 677 837 l 376 879 l 376 503 q 553 526 469 519 l 597 640 l 660 627 l 648 307 l 583 319 l 552 426 q 376 447 448 432 l 376 67 l 718 112 m 512 1096 q 525 1137 510 1109 q 560 1187 539 1165 q 595 1209 581 1209 q 634 1195 608 1209 q 680 1162 659 1181 q 704 1131 701 1143 q 691 1089 706 1117 q 656 1039 677 1061 q 622 1017 636 1017 q 582 1031 608 1017 q 536 1064 557 1045 q 512 1096 515 1083 m 195 1096 q 208 1137 193 1109 q 243 1187 222 1164 q 277 1209 264 1209 q 316 1195 291 1209 q 363 1162 342 1181 q 387 1131 385 1143 q 374 1089 389 1117 q 339 1039 359 1061 q 304 1017 318 1017 q 265 1031 290 1017 q 218 1064 239 1045 q 195 1096 197 1083 z "},"Ė":{"ha":903,"x_min":37,"x_max":876,"o":"m 718 112 l 800 243 l 876 231 l 823 0 l 37 0 l 48 60 l 172 106 l 172 835 l 44 884 l 57 939 l 706 939 l 800 947 l 825 709 l 743 693 l 677 837 l 376 879 l 376 503 q 553 526 469 519 l 597 640 l 660 627 l 648 307 l 583 319 l 552 426 q 376 447 448 432 l 376 67 l 718 112 m 423 1021 q 396 1045 412 1024 q 368 1090 380 1065 q 356 1131 356 1116 q 357 1137 356 1135 q 379 1164 359 1148 q 424 1193 399 1181 q 465 1204 449 1204 q 471 1204 469 1204 q 498 1181 482 1201 q 527 1136 515 1160 q 539 1096 539 1111 q 538 1090 539 1092 q 515 1062 536 1078 q 470 1033 495 1045 q 429 1021 445 1021 q 423 1021 425 1021 z "},"È":{"ha":903,"x_min":37,"x_max":876,"o":"m 718 112 l 800 243 l 876 231 l 823 0 l 37 0 l 48 60 l 172 106 l 172 835 l 44 884 l 57 939 l 706 939 l 800 947 l 825 709 l 743 693 l 677 837 l 376 879 l 376 503 q 553 526 469 519 l 597 640 l 660 627 l 648 307 l 583 319 l 552 426 q 376 447 448 432 l 376 67 l 718 112 m 275 1110 l 298 1221 l 386 1221 l 622 1084 l 607 1009 l 275 1110 z "},"Ē":{"ha":903,"x_min":37,"x_max":876,"o":"m 718 112 l 800 243 l 876 231 l 823 0 l 37 0 l 48 60 l 172 106 l 172 835 l 44 884 l 57 939 l 706 939 l 800 947 l 825 709 l 743 693 l 677 837 l 376 879 l 376 503 q 553 526 469 519 l 597 640 l 660 627 l 648 307 l 583 319 l 552 426 q 376 447 448 432 l 376 67 l 718 112 m 260 1153 l 661 1153 l 641 1048 q 444 1042 563 1044 q 237 1040 325 1040 l 260 1153 z "},"Ę":{"ha":903,"x_min":37,"x_max":876,"o":"m 710 -241 q 761 -233 730 -241 q 825 -210 791 -224 l 842 -239 q 751 -310 800 -285 q 649 -334 702 -334 q 569 -318 606 -334 q 509 -270 532 -302 q 486 -191 486 -238 q 549 -68 486 -124 q 652 0 589 -33 l 37 0 l 48 60 l 172 106 l 172 835 l 44 884 l 57 939 l 706 939 l 800 947 l 825 709 l 743 693 l 677 837 l 376 879 l 376 503 q 553 526 469 519 l 597 640 l 660 627 l 648 307 l 583 319 l 552 426 q 376 447 448 432 l 376 67 l 718 112 l 800 243 l 876 231 l 823 0 l 763 0 q 667 -91 696 -56 q 638 -156 638 -126 q 651 -203 638 -180 q 686 -236 665 -227 q 710 -241 696 -241 z "},"F":{"ha":852,"x_min":35,"x_max":840,"o":"m 40 883 l 52 939 l 730 939 l 817 947 l 840 707 l 759 694 l 694 837 l 372 878 l 372 503 q 568 526 448 515 l 613 641 l 676 625 l 664 306 l 599 316 l 568 426 q 372 441 468 428 l 372 106 l 564 69 l 540 0 l 35 0 l 46 59 l 168 106 l 168 835 l 40 883 z "},"G":{"ha":1004,"x_min":53,"x_max":989,"o":"m 509 395 l 519 452 l 989 452 l 979 391 l 897 338 l 897 144 q 807 59 864 97 q 679 -2 750 20 q 532 -24 607 -24 q 332 4 416 -24 q 178 96 247 32 q 85 243 118 154 q 53 440 53 332 q 99 680 53 568 q 238 866 145 791 q 373 937 296 913 q 539 962 451 962 q 638 957 587 962 q 736 942 690 951 l 839 951 l 867 697 l 783 683 l 730 806 q 633 850 692 834 q 516 865 574 865 q 420 856 465 865 q 355 829 374 847 q 290 701 313 791 q 267 480 267 611 q 292 295 267 378 q 364 164 317 212 q 457 100 407 118 q 562 82 507 82 q 635 90 596 82 q 696 111 674 97 l 696 344 l 509 395 z "},"Ğ":{"ha":1004,"x_min":53,"x_max":989,"o":"m 509 395 l 519 452 l 989 452 l 979 391 l 897 338 l 897 144 q 807 59 864 97 q 679 -2 750 20 q 532 -24 607 -24 q 332 4 416 -24 q 178 96 247 32 q 85 243 118 154 q 53 440 53 332 q 99 680 53 568 q 238 866 145 791 q 373 937 296 913 q 539 962 451 962 q 638 957 587 962 q 736 942 690 951 l 839 951 l 867 697 l 783 683 l 730 806 q 633 850 692 834 q 516 865 574 865 q 420 856 465 865 q 355 829 374 847 q 290 701 313 791 q 267 480 267 611 q 292 295 267 378 q 364 164 317 212 q 457 100 407 118 q 562 82 507 82 q 635 90 596 82 q 696 111 674 97 l 696 344 l 509 395 m 530 1002 q 423 1023 471 1002 q 350 1083 376 1045 q 323 1165 323 1120 q 340 1215 323 1208 l 423 1215 q 530 1102 444 1102 q 597 1129 570 1102 q 633 1215 624 1157 l 718 1215 q 729 1199 725 1211 q 733 1169 733 1187 q 707 1084 733 1122 q 635 1024 681 1046 q 530 1002 589 1002 z "},"Ģ":{"ha":1004,"x_min":53,"x_max":989,"o":"m 509 395 l 519 452 l 989 452 l 979 391 l 897 338 l 897 144 q 807 59 864 97 q 679 -2 750 20 q 532 -24 607 -24 q 332 4 416 -24 q 178 96 247 32 q 85 243 118 154 q 53 440 53 332 q 99 680 53 568 q 238 866 145 791 q 373 937 296 913 q 539 962 451 962 q 638 957 587 962 q 736 942 690 951 l 839 951 l 867 697 l 783 683 l 730 806 q 633 850 692 834 q 516 865 574 865 q 420 856 465 865 q 355 829 374 847 q 290 701 313 791 q 267 480 267 611 q 292 295 267 378 q 364 164 317 212 q 457 100 407 118 q 562 82 507 82 q 635 90 596 82 q 696 111 674 97 l 696 344 l 509 395 m 477 -69 q 548 -80 514 -69 q 607 -113 582 -92 q 648 -201 648 -149 q 616 -286 648 -250 q 540 -339 584 -321 q 463 -358 496 -358 l 446 -311 q 518 -257 500 -275 q 536 -222 536 -239 q 453 -172 536 -191 l 477 -69 z "},"H":{"ha":1132,"x_min":39,"x_max":1094,"o":"m 513 59 l 499 0 l 39 0 l 50 58 l 171 106 l 171 834 l 44 884 l 56 939 l 504 939 l 491 878 l 372 830 l 372 524 l 759 524 l 759 833 l 633 882 l 646 939 l 1094 939 l 1083 882 l 960 833 l 960 104 l 1088 55 l 1076 0 l 616 0 l 627 60 l 759 107 l 759 423 q 372 408 579 414 l 372 108 l 513 59 z "},"I":{"ha":549,"x_min":39,"x_max":510,"o":"m 171 106 l 171 834 l 44 883 l 56 939 l 510 939 l 500 882 l 376 833 l 376 106 l 507 56 l 494 0 l 39 0 l 51 58 l 171 106 z "},"Í":{"ha":549,"x_min":39,"x_max":510,"o":"m 171 106 l 171 834 l 44 883 l 56 939 l 510 939 l 500 882 l 376 833 l 376 106 l 507 56 l 494 0 l 39 0 l 51 58 l 171 106 m 142 1083 l 379 1221 l 467 1221 l 490 1109 l 158 1010 l 142 1083 z "},"Î":{"ha":549,"x_min":39,"x_max":510,"o":"m 171 106 l 171 834 l 44 883 l 56 939 l 510 939 l 500 882 l 376 833 l 376 106 l 507 56 l 494 0 l 39 0 l 51 58 l 171 106 m 45 1058 l 235 1219 l 315 1219 l 505 1058 l 447 1008 l 275 1093 l 102 1008 l 45 1058 z "},"Ï":{"ha":549,"x_min":18,"x_max":531,"o":"m 171 106 l 171 834 l 44 883 l 56 939 l 510 939 l 500 882 l 376 833 l 376 106 l 507 56 l 494 0 l 39 0 l 51 58 l 171 106 m 337 1096 q 350 1137 335 1109 q 385 1187 364 1165 q 420 1209 406 1209 q 459 1195 433 1209 q 505 1162 484 1181 q 529 1131 526 1143 q 516 1089 531 1117 q 481 1039 502 1061 q 447 1017 461 1017 q 407 1031 433 1017 q 361 1064 382 1045 q 337 1096 340 1083 m 20 1096 q 33 1137 18 1109 q 68 1187 47 1164 q 102 1209 89 1209 q 141 1195 116 1209 q 188 1162 167 1181 q 212 1131 210 1143 q 199 1089 214 1117 q 164 1039 184 1061 q 129 1017 143 1017 q 90 1031 115 1017 q 43 1064 64 1045 q 20 1096 22 1083 z "},"İ":{"ha":549,"x_min":39,"x_max":510,"o":"m 171 106 l 171 834 l 44 883 l 56 939 l 510 939 l 500 882 l 376 833 l 376 106 l 507 56 l 494 0 l 39 0 l 51 58 l 171 106 m 248 1021 q 221 1045 237 1024 q 193 1090 205 1065 q 181 1131 181 1116 q 182 1137 181 1135 q 204 1164 184 1148 q 249 1193 224 1181 q 290 1204 274 1204 q 296 1204 294 1204 q 323 1181 307 1201 q 352 1136 340 1160 q 364 1096 364 1111 q 363 1090 364 1092 q 340 1062 361 1078 q 295 1033 320 1045 q 254 1021 270 1021 q 248 1021 250 1021 z "},"Ì":{"ha":549,"x_min":39,"x_max":510,"o":"m 171 106 l 171 834 l 44 883 l 56 939 l 510 939 l 500 882 l 376 833 l 376 106 l 507 56 l 494 0 l 39 0 l 51 58 l 171 106 m 100 1110 l 123 1221 l 211 1221 l 447 1084 l 432 1009 l 100 1110 z "},"Ī":{"ha":549,"x_min":39,"x_max":510,"o":"m 171 106 l 171 834 l 44 883 l 56 939 l 510 939 l 500 882 l 376 833 l 376 106 l 507 56 l 494 0 l 39 0 l 51 58 l 171 106 m 85 1153 l 486 1153 l 466 1048 q 269 1042 388 1044 q 62 1040 150 1040 l 85 1153 z "},"Į":{"ha":549,"x_min":40,"x_max":511,"o":"m 171 105 l 171 834 l 44 884 l 56 939 l 511 939 l 498 882 l 376 833 l 376 105 l 506 56 l 494 0 q 393 -37 439 -8 q 321 -101 347 -66 q 294 -157 294 -136 q 308 -203 294 -180 q 343 -236 321 -227 q 366 -241 354 -241 q 420 -232 387 -241 q 480 -210 452 -224 l 498 -240 q 444 -287 468 -268 q 384 -320 420 -305 q 306 -334 348 -334 q 226 -319 263 -334 q 166 -271 189 -303 q 143 -191 143 -238 q 195 -79 143 -124 q 326 0 246 -35 l 40 0 l 50 59 l 171 105 z "},"J":{"ha":524,"x_min":24,"x_max":497,"o":"m 24 883 l 35 939 l 497 939 l 486 882 l 372 833 l 372 309 q 350 83 372 172 q 268 -77 327 -5 q 96 -224 209 -149 l 54 -192 q 125 -18 83 -129 q 168 119 168 94 l 168 834 l 24 883 z "},"K":{"ha":1042,"x_min":40,"x_max":1043,"o":"m 172 105 l 172 834 l 44 884 l 56 939 l 495 939 l 484 880 l 376 832 l 376 109 l 511 58 l 498 0 l 40 0 l 51 58 l 172 105 m 914 106 l 1043 56 l 1031 0 l 682 0 l 693 55 l 423 476 l 703 837 l 600 886 l 613 939 l 1029 939 l 1017 880 l 897 836 l 631 509 l 914 106 z "},"Ķ":{"ha":1042,"x_min":40,"x_max":1043,"o":"m 172 105 l 172 834 l 44 884 l 56 939 l 495 939 l 484 880 l 376 832 l 376 109 l 511 58 l 498 0 l 40 0 l 51 58 l 172 105 m 914 106 l 1043 56 l 1031 0 l 682 0 l 693 55 l 423 476 l 703 837 l 600 886 l 613 939 l 1029 939 l 1017 880 l 897 836 l 631 509 l 914 106 m 444 -69 q 515 -80 481 -69 q 574 -113 549 -92 q 615 -201 615 -149 q 583 -286 615 -250 q 507 -339 551 -321 q 429 -358 463 -358 l 412 -311 q 485 -257 467 -275 q 503 -222 503 -239 q 420 -172 503 -191 l 444 -69 z "},"L":{"ha":846,"x_min":39,"x_max":848,"o":"m 772 243 l 848 232 l 795 0 l 39 0 l 50 58 l 172 106 l 172 835 l 44 883 l 56 939 l 515 939 l 505 881 l 377 832 l 377 68 l 688 113 l 772 243 z "},"Ĺ":{"ha":846,"x_min":39,"x_max":848,"o":"m 772 243 l 848 232 l 795 0 l 39 0 l 50 58 l 172 106 l 172 835 l 44 883 l 56 939 l 515 939 l 505 881 l 377 832 l 377 68 l 688 113 l 772 243 m 155 1083 l 392 1221 l 480 1221 l 503 1109 l 171 1010 l 155 1083 z "},"Ľ":{"ha":846,"x_min":39,"x_max":848,"o":"m 590 608 q 673 812 645 719 l 603 842 l 616 928 q 791 949 720 948 q 805 913 802 930 q 809 878 809 897 q 763 734 809 815 q 648 591 716 653 l 590 608 m 772 243 l 848 232 l 795 0 l 39 0 l 50 58 l 172 106 l 172 835 l 44 883 l 56 939 l 515 939 l 505 881 l 377 832 l 377 68 l 688 113 l 772 243 z "},"Ļ":{"ha":846,"x_min":39,"x_max":848,"o":"m 772 243 l 848 232 l 795 0 l 39 0 l 50 58 l 172 106 l 172 835 l 44 883 l 56 939 l 515 939 l 505 881 l 377 832 l 377 68 l 688 113 l 772 243 m 349 -69 q 420 -80 386 -69 q 479 -113 454 -92 q 520 -201 520 -149 q 488 -286 520 -250 q 412 -339 456 -321 q 334 -358 368 -358 l 317 -311 q 390 -257 372 -275 q 408 -222 408 -239 q 325 -172 408 -191 l 349 -69 z "},"Ł":{"ha":846,"x_min":3,"x_max":848,"o":"m 848 232 l 795 0 l 39 0 l 50 58 l 172 106 l 172 359 l 28 293 l 3 416 l 172 492 l 172 835 l 44 883 l 56 939 l 515 939 l 505 881 l 377 832 l 377 584 l 684 722 l 710 608 l 377 454 l 377 68 l 688 113 l 772 243 l 848 232 z "},"M":{"ha":1380,"x_min":41,"x_max":1341,"o":"m 46 880 l 58 939 l 391 939 l 697 201 l 980 939 l 1341 939 l 1330 875 l 1208 827 l 1208 104 l 1337 56 l 1325 0 l 876 0 l 886 57 l 1006 105 l 1006 779 q 888 419 955 604 q 733 17 821 235 l 565 -10 l 265 775 q 285 511 281 656 q 291 144 290 366 l 291 104 l 416 56 l 404 0 l 41 0 l 52 58 l 170 105 l 170 832 l 46 880 z "},"N":{"ha":1066,"x_min":43,"x_max":1038,"o":"m 170 105 l 170 834 l 43 883 l 56 939 l 353 939 l 810 233 q 793 500 796 366 q 789 835 789 634 l 652 882 l 663 939 l 1038 939 l 1027 882 l 913 833 l 913 10 l 739 -17 l 269 715 q 289 444 285 580 q 292 104 292 308 l 433 56 l 420 0 l 43 0 l 54 57 l 170 105 z "},"Ń":{"ha":1066,"x_min":43,"x_max":1038,"o":"m 170 105 l 170 834 l 43 883 l 56 939 l 353 939 l 810 233 q 793 500 796 366 q 789 835 789 634 l 652 882 l 663 939 l 1038 939 l 1027 882 l 913 833 l 913 10 l 739 -17 l 269 715 q 289 444 285 580 q 292 104 292 308 l 433 56 l 420 0 l 43 0 l 54 57 l 170 105 m 393 1083 l 631 1221 l 719 1221 l 741 1109 l 410 1010 l 393 1083 z "},"Ň":{"ha":1066,"x_min":43,"x_max":1038,"o":"m 170 105 l 170 834 l 43 883 l 56 939 l 353 939 l 810 233 q 793 500 796 366 q 789 835 789 634 l 652 882 l 663 939 l 1038 939 l 1027 882 l 913 833 l 913 10 l 739 -17 l 269 715 q 289 444 285 580 q 292 104 292 308 l 433 56 l 420 0 l 43 0 l 54 57 l 170 105 m 297 1181 l 353 1231 l 526 1145 l 699 1231 l 754 1181 l 569 1027 l 483 1027 l 297 1181 z "},"Ņ":{"ha":1066,"x_min":43,"x_max":1038,"o":"m 170 105 l 170 834 l 43 883 l 56 939 l 353 939 l 810 233 q 793 500 796 366 q 789 835 789 634 l 652 882 l 663 939 l 1038 939 l 1027 882 l 913 833 l 913 10 l 739 -17 l 269 715 q 289 444 285 580 q 292 104 292 308 l 433 56 l 420 0 l 43 0 l 54 57 l 170 105 m 459 -69 q 530 -80 496 -69 q 589 -113 564 -92 q 630 -201 630 -149 q 598 -286 630 -250 q 522 -339 566 -321 q 444 -358 477 -358 l 427 -311 q 500 -257 481 -275 q 518 -222 518 -239 q 435 -172 518 -191 l 459 -69 z "},"Ñ":{"ha":1066,"x_min":43,"x_max":1038,"o":"m 170 105 l 170 834 l 43 883 l 56 939 l 353 939 l 810 233 q 793 500 796 366 q 789 835 789 634 l 652 882 l 663 939 l 1038 939 l 1027 882 l 913 833 l 913 10 l 739 -17 l 269 715 q 289 444 285 580 q 292 104 292 308 l 433 56 l 420 0 l 43 0 l 54 57 l 170 105 m 275 1133 q 331 1191 307 1168 q 382 1227 355 1213 q 441 1242 410 1242 q 503 1226 476 1242 q 564 1183 530 1211 q 596 1158 584 1166 q 619 1150 608 1150 q 681 1172 641 1150 q 761 1227 721 1194 l 775 1136 q 720 1079 743 1101 q 668 1042 696 1057 q 608 1027 640 1027 q 547 1043 574 1027 q 487 1086 519 1059 q 455 1111 467 1103 q 433 1119 443 1119 q 369 1097 410 1119 q 292 1042 328 1075 l 275 1133 z "},"O":{"ha":1011,"x_min":52,"x_max":959,"o":"m 52 422 q 108 691 52 568 q 273 888 163 814 q 535 962 382 962 q 747 908 650 962 q 902 753 844 854 q 959 517 959 652 q 902 247 959 370 q 737 50 844 123 q 487 -24 630 -24 q 265 30 364 -24 q 109 185 166 84 q 52 422 52 286 m 338 194 q 431 114 375 142 q 549 85 486 85 q 625 96 589 85 q 683 134 661 108 q 728 256 712 170 q 745 418 745 343 q 739 562 745 506 q 715 667 732 618 q 655 765 694 723 q 566 831 616 808 q 463 854 516 854 q 338 816 376 854 q 284 691 302 781 q 267 519 267 602 q 281 331 267 410 q 338 194 295 253 z "},"Ó":{"ha":1011,"x_min":52,"x_max":959,"o":"m 52 422 q 108 691 52 568 q 273 888 163 814 q 535 962 382 962 q 747 908 650 962 q 902 753 844 854 q 959 517 959 652 q 902 247 959 370 q 737 50 844 123 q 487 -24 630 -24 q 265 30 364 -24 q 109 185 166 84 q 52 422 52 286 m 338 194 q 431 114 375 142 q 549 85 486 85 q 625 96 589 85 q 683 134 661 108 q 728 256 712 170 q 745 418 745 343 q 739 562 745 506 q 715 667 732 618 q 655 765 694 723 q 566 831 616 808 q 463 854 516 854 q 338 816 376 854 q 284 691 302 781 q 267 519 267 602 q 281 331 267 410 q 338 194 295 253 m 379 1083 l 616 1221 l 705 1221 l 727 1109 l 395 1010 l 379 1083 z "},"Ô":{"ha":1011,"x_min":52,"x_max":959,"o":"m 52 422 q 108 691 52 568 q 273 888 163 814 q 535 962 382 962 q 747 908 650 962 q 902 753 844 854 q 959 517 959 652 q 902 247 959 370 q 737 50 844 123 q 487 -24 630 -24 q 265 30 364 -24 q 109 185 166 84 q 52 422 52 286 m 338 194 q 431 114 375 142 q 549 85 486 85 q 625 96 589 85 q 683 134 661 108 q 728 256 712 170 q 745 418 745 343 q 739 562 745 506 q 715 667 732 618 q 655 765 694 723 q 566 831 616 808 q 463 854 516 854 q 338 816 376 854 q 284 691 302 781 q 267 519 267 602 q 281 331 267 410 q 338 194 295 253 m 281 1058 l 471 1219 l 551 1219 l 742 1058 l 684 1008 l 511 1093 l 339 1008 l 281 1058 z "},"Ö":{"ha":1011,"x_min":52,"x_max":959,"o":"m 52 422 q 108 691 52 568 q 273 888 163 814 q 535 962 382 962 q 747 908 650 962 q 902 753 844 854 q 959 517 959 652 q 902 247 959 370 q 737 50 844 123 q 487 -24 630 -24 q 265 30 364 -24 q 109 185 166 84 q 52 422 52 286 m 338 194 q 431 114 375 142 q 549 85 486 85 q 625 96 589 85 q 683 134 661 108 q 728 256 712 170 q 745 418 745 343 q 739 562 745 506 q 715 667 732 618 q 655 765 694 723 q 566 831 616 808 q 463 854 516 854 q 338 816 376 854 q 284 691 302 781 q 267 519 267 602 q 281 331 267 410 q 338 194 295 253 m 574 1096 q 586 1137 572 1109 q 622 1187 601 1165 q 656 1209 642 1209 q 695 1195 670 1209 q 742 1162 721 1181 q 766 1131 763 1143 q 753 1089 768 1117 q 718 1039 739 1061 q 684 1017 698 1017 q 644 1031 669 1017 q 597 1064 618 1045 q 574 1096 576 1083 m 256 1096 q 269 1137 254 1109 q 305 1187 284 1164 q 339 1209 326 1209 q 378 1195 353 1209 q 425 1162 404 1181 q 449 1131 446 1143 q 436 1089 451 1117 q 400 1039 421 1061 q 366 1017 380 1017 q 327 1031 352 1017 q 280 1064 301 1045 q 256 1096 259 1083 z "},"Ò":{"ha":1011,"x_min":52,"x_max":959,"o":"m 52 422 q 108 691 52 568 q 273 888 163 814 q 535 962 382 962 q 747 908 650 962 q 902 753 844 854 q 959 517 959 652 q 902 247 959 370 q 737 50 844 123 q 487 -24 630 -24 q 265 30 364 -24 q 109 185 166 84 q 52 422 52 286 m 338 194 q 431 114 375 142 q 549 85 486 85 q 625 96 589 85 q 683 134 661 108 q 728 256 712 170 q 745 418 745 343 q 739 562 745 506 q 715 667 732 618 q 655 765 694 723 q 566 831 616 808 q 463 854 516 854 q 338 816 376 854 q 284 691 302 781 q 267 519 267 602 q 281 331 267 410 q 338 194 295 253 m 337 1110 l 359 1221 l 448 1221 l 684 1084 l 669 1009 l 337 1110 z "},"Ő":{"ha":1011,"x_min":52,"x_max":959,"o":"m 52 422 q 108 691 52 568 q 273 888 163 814 q 535 962 382 962 q 747 908 650 962 q 902 753 844 854 q 959 517 959 652 q 902 247 959 370 q 737 50 844 123 q 487 -24 630 -24 q 265 30 364 -24 q 109 185 166 84 q 52 422 52 286 m 338 194 q 431 114 375 142 q 549 85 486 85 q 625 96 589 85 q 683 134 661 108 q 728 256 712 170 q 745 418 745 343 q 739 562 745 506 q 715 667 732 618 q 655 765 694 723 q 566 831 616 808 q 463 854 516 854 q 338 816 376 854 q 284 691 302 781 q 267 519 267 602 q 281 331 267 410 q 338 194 295 253 m 441 1229 l 550 1229 l 564 1160 l 358 994 l 314 1087 l 441 1229 m 677 1229 l 787 1229 l 800 1160 l 595 994 l 550 1087 l 677 1229 z "},"Ō":{"ha":1011,"x_min":52,"x_max":959,"o":"m 52 422 q 108 691 52 568 q 273 888 163 814 q 535 962 382 962 q 747 908 650 962 q 902 753 844 854 q 959 517 959 652 q 902 247 959 370 q 737 50 844 123 q 487 -24 630 -24 q 265 30 364 -24 q 109 185 166 84 q 52 422 52 286 m 338 194 q 431 114 375 142 q 549 85 486 85 q 625 96 589 85 q 683 134 661 108 q 728 256 712 170 q 745 418 745 343 q 739 562 745 506 q 715 667 732 618 q 655 765 694 723 q 566 831 616 808 q 463 854 516 854 q 338 816 376 854 q 284 691 302 781 q 267 519 267 602 q 281 331 267 410 q 338 194 295 253 m 321 1153 l 722 1153 l 703 1048 q 506 1042 625 1044 q 299 1040 387 1040 l 321 1153 z "},"Ø":{"ha":1011,"x_min":52,"x_max":959,"o":"m 774 892 q 909 739 860 835 q 959 517 959 642 q 902 247 959 370 q 737 50 844 123 q 487 -24 630 -24 q 392 -15 436 -24 l 349 -119 l 216 -87 l 264 31 q 109 185 165 84 q 52 422 52 287 q 108 691 52 568 q 273 888 163 814 q 535 962 382 962 q 650 947 597 962 l 685 1029 l 817 996 l 774 892 m 329 183 l 600 826 q 467 858 537 858 q 395 848 430 858 q 338 816 359 838 q 284 691 302 781 q 267 519 267 602 q 270 386 267 442 q 287 278 274 330 q 327 186 300 226 l 329 183 m 683 134 q 728 258 711 171 q 745 418 745 345 q 740 583 745 522 q 718 693 735 645 q 704 726 712 711 l 441 100 q 547 81 492 81 q 624 94 587 81 q 683 134 661 106 z "},"Õ":{"ha":1011,"x_min":52,"x_max":959,"o":"m 52 422 q 108 691 52 568 q 273 888 163 814 q 535 962 382 962 q 747 908 650 962 q 902 753 844 854 q 959 517 959 652 q 902 247 959 370 q 737 50 844 123 q 487 -24 630 -24 q 265 30 364 -24 q 109 185 166 84 q 52 422 52 286 m 338 194 q 431 114 375 142 q 549 85 486 85 q 625 96 589 85 q 683 134 661 108 q 728 256 712 170 q 745 418 745 343 q 739 562 745 506 q 715 667 732 618 q 655 765 694 723 q 566 831 616 808 q 463 854 516 854 q 338 816 376 854 q 284 691 302 781 q 267 519 267 602 q 281 331 267 410 q 338 194 295 253 m 261 1133 q 317 1191 293 1168 q 368 1227 340 1213 q 427 1242 396 1242 q 489 1226 462 1242 q 550 1183 516 1211 q 582 1158 570 1166 q 605 1150 594 1150 q 667 1172 627 1150 q 747 1227 707 1194 l 761 1136 q 706 1079 729 1101 q 654 1042 682 1057 q 594 1027 626 1027 q 533 1043 560 1027 q 473 1086 505 1059 q 440 1111 452 1103 q 418 1119 429 1119 q 354 1097 395 1119 q 278 1042 313 1075 l 261 1133 z "},"Œ":{"ha":1365,"x_min":52,"x_max":1336,"o":"m 636 0 q 487 -24 563 -24 q 265 30 364 -24 q 109 185 166 84 q 52 422 52 286 q 108 691 52 568 q 273 888 163 814 q 535 962 382 962 q 679 939 610 962 l 1168 939 l 1262 947 l 1287 709 l 1205 693 l 1139 837 l 863 879 l 863 503 q 947 517 897 510 q 1025 526 998 524 l 1067 639 l 1130 626 l 1118 308 l 1055 318 l 1025 426 q 945 433 998 427 q 863 447 892 439 l 863 67 l 1179 112 l 1262 243 l 1336 232 l 1284 0 l 636 0 m 549 85 q 607 91 578 85 q 657 112 635 98 l 657 777 q 568 834 619 814 q 463 854 517 854 q 338 815 377 854 q 284 690 302 780 q 267 519 267 601 q 281 331 267 410 q 338 194 295 253 q 431 114 375 142 q 549 85 486 85 z "},"P":{"ha":873,"x_min":39,"x_max":845,"o":"m 172 105 l 172 834 l 45 884 l 56 939 l 396 939 q 535 936 481 939 q 643 920 590 932 q 739 879 696 907 q 817 790 788 846 q 845 661 845 733 q 818 544 845 597 q 740 457 790 492 q 611 405 687 421 q 460 389 534 389 l 469 434 q 571 496 535 467 q 623 564 606 525 q 640 666 640 604 q 566 830 640 777 q 377 884 493 882 l 377 104 l 543 56 l 532 0 l 39 0 l 50 58 l 172 105 z "},"Þ":{"ha":876,"x_min":39,"x_max":845,"o":"m 767 695 q 845 498 845 627 q 818 381 845 433 q 739 294 790 328 q 610 242 684 258 q 460 225 536 225 l 469 271 q 571 333 535 302 q 624 405 608 364 q 640 507 640 446 q 567 667 640 616 q 377 721 494 718 l 377 106 l 534 56 l 522 0 l 39 0 l 52 58 l 172 106 l 172 834 l 45 883 l 56 939 l 511 939 l 500 882 l 377 833 l 377 776 q 553 770 485 775 q 674 747 621 764 q 767 695 727 730 z "},"Q":{"ha":1011,"x_min":52,"x_max":959,"o":"m 959 517 q 902 248 959 371 q 743 54 846 125 l 956 -175 l 932 -220 q 810 -194 878 -220 q 674 -123 742 -168 q 553 -20 606 -77 q 487 -24 522 -24 q 265 30 364 -24 q 109 185 166 84 q 52 422 52 286 q 108 691 52 568 q 273 888 163 814 q 535 962 382 962 q 747 908 650 962 q 902 753 844 854 q 959 517 959 652 m 338 194 q 431 114 375 142 q 549 85 486 85 q 625 96 589 85 q 683 134 661 108 q 728 256 712 170 q 745 418 745 343 q 739 562 745 506 q 715 667 732 618 q 655 765 694 723 q 566 831 616 808 q 463 854 516 854 q 338 816 376 854 q 284 691 302 781 q 267 519 267 602 q 281 331 267 410 q 338 194 295 253 z "},"R":{"ha":970,"x_min":39,"x_max":978,"o":"m 172 105 l 172 834 l 45 884 l 56 939 l 435 939 q 616 925 536 939 q 758 871 697 911 q 829 794 804 840 q 854 686 854 747 q 805 545 854 602 q 662 458 755 488 l 852 110 l 978 54 l 965 0 l 650 0 l 663 56 l 460 465 q 604 564 562 506 q 646 693 646 621 q 606 797 646 755 q 505 860 566 839 q 377 884 444 881 l 377 113 l 511 64 l 494 0 l 39 0 l 50 56 l 172 105 z "},"Ŕ":{"ha":970,"x_min":39,"x_max":978,"o":"m 172 105 l 172 834 l 45 884 l 56 939 l 435 939 q 616 925 536 939 q 758 871 697 911 q 829 794 804 840 q 854 686 854 747 q 805 545 854 602 q 662 458 755 488 l 852 110 l 978 54 l 965 0 l 650 0 l 663 56 l 460 465 q 604 564 562 506 q 646 693 646 621 q 606 797 646 755 q 505 860 566 839 q 377 884 444 881 l 377 113 l 511 64 l 494 0 l 39 0 l 50 56 l 172 105 m 307 1083 l 545 1221 l 633 1221 l 655 1109 l 323 1010 l 307 1083 z "},"Ř":{"ha":970,"x_min":39,"x_max":978,"o":"m 172 105 l 172 834 l 45 884 l 56 939 l 435 939 q 616 925 536 939 q 758 871 697 911 q 829 794 804 840 q 854 686 854 747 q 805 545 854 602 q 662 458 755 488 l 852 110 l 978 54 l 965 0 l 650 0 l 663 56 l 460 465 q 604 564 562 506 q 646 693 646 621 q 606 797 646 755 q 505 860 566 839 q 377 884 444 881 l 377 113 l 511 64 l 494 0 l 39 0 l 50 56 l 172 105 m 211 1181 l 267 1231 l 439 1145 l 612 1231 l 668 1181 l 483 1027 l 397 1027 l 211 1181 z "},"Ŗ":{"ha":970,"x_min":39,"x_max":978,"o":"m 172 105 l 172 834 l 45 884 l 56 939 l 435 939 q 616 925 536 939 q 758 871 697 911 q 829 794 804 840 q 854 686 854 747 q 805 545 854 602 q 662 458 755 488 l 852 110 l 978 54 l 965 0 l 650 0 l 663 56 l 460 465 q 604 564 562 506 q 646 693 646 621 q 606 797 646 755 q 505 860 566 839 q 377 884 444 881 l 377 113 l 511 64 l 494 0 l 39 0 l 50 56 l 172 105 m 420 -69 q 491 -80 457 -69 q 550 -113 525 -92 q 591 -201 591 -149 q 559 -286 591 -250 q 483 -339 527 -321 q 406 -358 439 -358 l 389 -311 q 461 -257 443 -275 q 479 -222 479 -239 q 396 -172 479 -191 l 420 -69 z "},"S":{"ha":775,"x_min":40,"x_max":720,"o":"m 520 876 q 480 874 492 876 q 357 847 410 870 q 283 794 305 825 q 274 771 277 785 q 270 743 270 758 q 292 683 270 711 q 359 628 314 656 q 483 561 404 600 q 609 489 559 524 q 689 404 659 454 q 720 280 720 353 q 672 120 720 189 q 535 14 624 52 q 328 -24 446 -24 q 164 0 242 -24 q 40 57 87 24 l 93 286 l 181 267 l 199 79 q 277 83 241 78 q 394 105 339 87 q 478 154 449 123 q 508 232 508 184 q 489 291 508 266 q 436 338 471 316 q 326 401 401 361 q 309 411 323 403 q 183 488 231 452 q 107 575 135 524 q 79 701 79 627 q 125 840 79 781 q 253 931 171 899 q 439 962 335 962 q 524 956 480 962 q 597 943 568 949 l 671 945 l 694 693 l 610 677 l 520 876 z "},"Ś":{"ha":775,"x_min":40,"x_max":720,"o":"m 520 876 q 480 874 492 876 q 357 847 410 870 q 283 794 305 825 q 274 771 277 785 q 270 743 270 758 q 292 683 270 711 q 359 628 314 656 q 483 561 404 600 q 609 489 559 524 q 689 404 659 454 q 720 280 720 353 q 672 120 720 189 q 535 14 624 52 q 328 -24 446 -24 q 164 0 242 -24 q 40 57 87 24 l 93 286 l 181 267 l 199 79 q 277 83 241 78 q 394 105 339 87 q 478 154 449 123 q 508 232 508 184 q 489 291 508 266 q 436 338 471 316 q 326 401 401 361 q 309 411 323 403 q 183 488 231 452 q 107 575 135 524 q 79 701 79 627 q 125 840 79 781 q 253 931 171 899 q 439 962 335 962 q 524 956 480 962 q 597 943 568 949 l 671 945 l 694 693 l 610 677 l 520 876 m 254 1083 l 492 1221 l 580 1221 l 602 1109 l 271 1010 l 254 1083 z "},"Š":{"ha":775,"x_min":40,"x_max":720,"o":"m 520 876 q 480 874 492 876 q 357 847 410 870 q 283 794 305 825 q 274 771 277 785 q 270 743 270 758 q 292 683 270 711 q 359 628 314 656 q 483 561 404 600 q 609 489 559 524 q 689 404 659 454 q 720 280 720 353 q 672 120 720 189 q 535 14 624 52 q 328 -24 446 -24 q 164 0 242 -24 q 40 57 87 24 l 93 286 l 181 267 l 199 79 q 277 83 241 78 q 394 105 339 87 q 478 154 449 123 q 508 232 508 184 q 489 291 508 266 q 436 338 471 316 q 326 401 401 361 q 309 411 323 403 q 183 488 231 452 q 107 575 135 524 q 79 701 79 627 q 125 840 79 781 q 253 931 171 899 q 439 962 335 962 q 524 956 480 962 q 597 943 568 949 l 671 945 l 694 693 l 610 677 l 520 876 m 158 1181 l 214 1231 l 387 1145 l 559 1231 l 615 1181 l 430 1027 l 344 1027 l 158 1181 z "},"Ş":{"ha":775,"x_min":40,"x_max":720,"o":"m 720 280 q 683 137 720 200 q 575 33 645 73 q 409 -19 505 -7 l 391 -69 q 458 -85 426 -71 q 510 -122 490 -98 q 530 -178 530 -146 q 489 -269 530 -233 q 384 -322 448 -305 q 253 -339 320 -339 l 243 -292 q 373 -233 340 -256 q 406 -193 406 -210 q 254 -130 406 -153 q 317 -24 271 -74 q 160 1 235 -22 q 40 57 85 24 l 93 286 l 181 267 l 199 79 q 277 83 241 78 q 394 105 339 87 q 478 154 449 123 q 508 232 508 184 q 489 291 508 266 q 436 338 471 316 q 326 401 401 361 q 309 411 323 403 q 183 488 231 452 q 107 575 135 524 q 79 701 79 627 q 125 840 79 781 q 253 931 171 899 q 439 962 335 962 q 524 956 480 962 q 597 943 568 949 l 671 945 l 694 693 l 610 677 l 520 876 q 480 874 492 876 q 357 847 410 870 q 283 794 305 825 q 274 771 277 785 q 270 743 270 758 q 292 683 270 711 q 359 628 314 656 q 483 561 404 600 q 609 489 559 524 q 689 404 659 454 q 720 280 720 353 z "},"Ș":{"ha":775,"x_min":40,"x_max":720,"o":"m 520 876 q 480 874 492 876 q 357 847 410 870 q 283 794 305 825 q 274 771 277 785 q 270 743 270 758 q 292 683 270 711 q 359 628 314 656 q 483 561 404 600 q 609 489 559 524 q 689 404 659 454 q 720 280 720 353 q 672 120 720 189 q 535 14 624 52 q 328 -24 446 -24 q 164 0 242 -24 q 40 57 87 24 l 93 286 l 181 267 l 199 79 q 277 83 241 78 q 394 105 339 87 q 478 154 449 123 q 508 232 508 184 q 489 291 508 266 q 436 338 471 316 q 326 401 401 361 q 309 411 323 403 q 183 488 231 452 q 107 575 135 524 q 79 701 79 627 q 125 840 79 781 q 253 931 171 899 q 439 962 335 962 q 524 956 480 962 q 597 943 568 949 l 671 945 l 694 693 l 610 677 l 520 876 m 311 -69 q 382 -80 348 -69 q 441 -113 416 -92 q 482 -201 482 -149 q 450 -286 482 -250 q 374 -339 418 -321 q 296 -358 330 -358 l 279 -311 q 352 -257 334 -275 q 370 -222 370 -239 q 287 -172 370 -191 l 311 -69 z "},"T":{"ha":964,"x_min":3,"x_max":954,"o":"m 380 109 l 380 873 l 178 843 l 87 673 l 3 688 l 59 945 l 149 939 l 838 939 l 924 948 l 954 687 l 868 669 l 789 842 l 581 874 l 581 108 l 737 60 l 725 0 l 229 0 l 242 60 l 380 109 z "},"Ť":{"ha":964,"x_min":3,"x_max":954,"o":"m 380 109 l 380 873 l 178 843 l 87 673 l 3 688 l 59 945 l 149 939 l 838 939 l 924 948 l 954 687 l 868 669 l 789 842 l 581 874 l 581 108 l 737 60 l 725 0 l 229 0 l 242 60 l 380 109 m 254 1181 l 310 1231 l 483 1145 l 656 1231 l 711 1181 l 526 1027 l 440 1027 l 254 1181 z "},"Ț":{"ha":964,"x_min":3,"x_max":954,"o":"m 380 109 l 380 873 l 178 843 l 87 673 l 3 688 l 59 945 l 149 939 l 838 939 l 924 948 l 954 687 l 868 669 l 789 842 l 581 874 l 581 108 l 737 60 l 725 0 l 229 0 l 242 60 l 380 109 m 404 -69 q 475 -80 441 -69 q 534 -113 509 -92 q 575 -201 575 -149 q 543 -286 575 -250 q 467 -339 511 -321 q 389 -358 422 -358 l 372 -311 q 445 -257 427 -275 q 463 -222 463 -239 q 380 -172 463 -191 l 404 -69 z "},"U":{"ha":1052,"x_min":29,"x_max":1031,"o":"m 347 363 q 376 224 347 285 q 462 128 406 163 q 596 94 518 94 q 673 105 638 94 q 730 140 707 117 q 787 323 787 197 l 787 833 l 654 883 l 665 939 l 1031 939 l 1021 882 l 917 831 l 917 345 q 870 143 917 225 q 732 18 823 60 q 513 -24 642 -24 q 237 64 329 -24 q 145 318 145 153 l 145 834 l 29 884 l 41 939 l 492 939 l 477 870 l 347 827 l 347 363 z "},"Ú":{"ha":1052,"x_min":29,"x_max":1031,"o":"m 347 363 q 376 224 347 285 q 462 128 406 163 q 596 94 518 94 q 673 105 638 94 q 730 140 707 117 q 787 323 787 197 l 787 833 l 654 883 l 665 939 l 1031 939 l 1021 882 l 917 831 l 917 345 q 870 143 917 225 q 732 18 823 60 q 513 -24 642 -24 q 237 64 329 -24 q 145 318 145 153 l 145 834 l 29 884 l 41 939 l 492 939 l 477 870 l 347 827 l 347 363 m 426 1083 l 663 1221 l 751 1221 l 774 1109 l 442 1010 l 426 1083 z "},"Û":{"ha":1052,"x_min":29,"x_max":1031,"o":"m 347 363 q 376 224 347 285 q 462 128 406 163 q 596 94 518 94 q 673 105 638 94 q 730 140 707 117 q 787 323 787 197 l 787 833 l 654 883 l 665 939 l 1031 939 l 1021 882 l 917 831 l 917 345 q 870 143 917 225 q 732 18 823 60 q 513 -24 642 -24 q 237 64 329 -24 q 145 318 145 153 l 145 834 l 29 884 l 41 939 l 492 939 l 477 870 l 347 827 l 347 363 m 329 1058 l 519 1219 l 599 1219 l 789 1058 l 731 1008 l 559 1093 l 387 1008 l 329 1058 z "},"Ü":{"ha":1052,"x_min":29,"x_max":1031,"o":"m 347 363 q 376 224 347 285 q 462 128 406 163 q 596 94 518 94 q 673 105 638 94 q 730 140 707 117 q 787 323 787 197 l 787 833 l 654 883 l 665 939 l 1031 939 l 1021 882 l 917 831 l 917 345 q 870 143 917 225 q 732 18 823 60 q 513 -24 642 -24 q 237 64 329 -24 q 145 318 145 153 l 145 834 l 29 884 l 41 939 l 492 939 l 477 870 l 347 827 l 347 363 m 621 1096 q 634 1137 619 1109 q 669 1187 648 1165 q 704 1209 690 1209 q 743 1195 718 1209 q 789 1162 768 1181 q 813 1131 810 1143 q 801 1089 815 1117 q 766 1039 786 1061 q 731 1017 745 1017 q 691 1031 717 1017 q 645 1064 666 1045 q 621 1096 624 1083 m 304 1096 q 317 1137 302 1109 q 352 1187 332 1164 q 387 1209 373 1209 q 426 1195 400 1209 q 472 1162 451 1181 q 496 1131 494 1143 q 484 1089 498 1117 q 448 1039 469 1061 q 413 1017 427 1017 q 374 1031 399 1017 q 328 1064 349 1045 q 304 1096 307 1083 z "},"Ù":{"ha":1052,"x_min":29,"x_max":1031,"o":"m 347 363 q 376 224 347 285 q 462 128 406 163 q 596 94 518 94 q 673 105 638 94 q 730 140 707 117 q 787 323 787 197 l 787 833 l 654 883 l 665 939 l 1031 939 l 1021 882 l 917 831 l 917 345 q 870 143 917 225 q 732 18 823 60 q 513 -24 642 -24 q 237 64 329 -24 q 145 318 145 153 l 145 834 l 29 884 l 41 939 l 492 939 l 477 870 l 347 827 l 347 363 m 385 1110 l 407 1221 l 495 1221 l 731 1084 l 716 1009 l 385 1110 z "},"Ű":{"ha":1052,"x_min":29,"x_max":1031,"o":"m 347 363 q 376 224 347 285 q 462 128 406 163 q 596 94 518 94 q 673 105 638 94 q 730 140 707 117 q 787 323 787 197 l 787 833 l 654 883 l 665 939 l 1031 939 l 1021 882 l 917 831 l 917 345 q 870 143 917 225 q 732 18 823 60 q 513 -24 642 -24 q 237 64 329 -24 q 145 318 145 153 l 145 834 l 29 884 l 41 939 l 492 939 l 477 870 l 347 827 l 347 363 m 489 1229 l 597 1229 l 612 1160 l 406 994 l 361 1087 l 489 1229 m 725 1229 l 834 1229 l 848 1160 l 642 994 l 597 1087 l 725 1229 z "},"Ū":{"ha":1052,"x_min":29,"x_max":1031,"o":"m 347 363 q 376 224 347 285 q 462 128 406 163 q 596 94 518 94 q 673 105 638 94 q 730 140 707 117 q 787 323 787 197 l 787 833 l 654 883 l 665 939 l 1031 939 l 1021 882 l 917 831 l 917 345 q 870 143 917 225 q 732 18 823 60 q 513 -24 642 -24 q 237 64 329 -24 q 145 318 145 153 l 145 834 l 29 884 l 41 939 l 492 939 l 477 870 l 347 827 l 347 363 m 369 1153 l 770 1153 l 750 1048 q 553 1042 672 1044 q 347 1040 434 1040 l 369 1153 z "},"Ų":{"ha":1052,"x_min":24,"x_max":1031,"o":"m 347 363 q 376 224 347 285 q 462 128 406 163 q 596 94 518 94 q 742 153 696 94 q 787 323 787 212 l 787 833 l 654 884 l 667 939 l 1031 939 l 1020 881 l 917 831 l 917 345 q 879 158 917 231 q 760 29 840 84 q 641 -69 686 -22 q 595 -156 595 -115 q 609 -203 595 -180 q 644 -236 623 -227 q 667 -241 657 -241 q 722 -232 688 -241 q 781 -209 755 -222 l 800 -239 q 709 -310 758 -285 q 607 -334 660 -334 q 527 -318 564 -334 q 467 -270 490 -302 q 444 -191 444 -238 q 500 -73 444 -127 q 574 -20 530 -45 q 513 -24 547 -24 q 235 65 329 -24 q 141 318 141 153 l 141 834 l 24 884 l 37 939 l 490 939 l 477 870 l 347 827 l 347 363 z "},"Ů":{"ha":1052,"x_min":29,"x_max":1031,"o":"m 347 363 q 376 224 347 285 q 462 128 406 163 q 596 94 518 94 q 673 105 638 94 q 730 140 707 117 q 787 323 787 197 l 787 833 l 654 883 l 665 939 l 1031 939 l 1021 882 l 917 831 l 917 345 q 870 143 917 225 q 732 18 823 60 q 513 -24 642 -24 q 237 64 329 -24 q 145 318 145 153 l 145 834 l 29 884 l 41 939 l 492 939 l 477 870 l 347 827 l 347 363 m 552 996 q 485 1011 516 996 q 436 1055 454 1027 q 418 1119 418 1082 q 436 1188 418 1158 q 485 1237 453 1219 q 558 1255 516 1255 q 622 1239 592 1255 q 671 1195 652 1223 q 690 1131 690 1167 q 672 1061 690 1092 q 623 1014 654 1031 q 552 996 592 996 m 558 1074 q 590 1086 578 1074 q 602 1120 602 1099 q 588 1162 602 1145 q 549 1179 573 1179 q 517 1165 529 1179 q 505 1131 505 1151 q 518 1090 505 1107 q 558 1074 532 1074 z "},"V":{"ha":959,"x_min":-24,"x_max":981,"o":"m 752 837 l 633 876 l 645 939 l 981 939 l 969 876 l 878 836 l 591 0 l 391 -24 l 72 836 l -24 876 l -12 939 l 424 939 l 414 877 l 304 836 l 545 137 l 752 837 z "},"W":{"ha":1480,"x_min":-9,"x_max":1501,"o":"m 1501 939 l 1489 875 l 1400 836 l 1134 0 l 934 -24 l 743 576 l 548 0 l 347 -24 l 90 836 l -9 875 l 2 939 l 429 939 l 418 877 l 313 836 l 500 146 l 693 730 l 659 837 l 560 878 l 572 939 l 1015 939 l 1003 876 l 876 835 l 1088 146 l 1274 837 l 1140 875 l 1154 939 l 1501 939 z "},"X":{"ha":975,"x_min":11,"x_max":964,"o":"m 964 59 l 954 0 l 507 0 l 517 58 l 612 103 l 435 371 l 265 102 l 370 55 l 357 0 l 11 0 l 22 62 l 123 103 l 379 454 l 118 836 l 14 872 l 28 939 l 469 939 l 459 880 l 364 836 l 541 564 l 707 836 l 604 884 l 615 939 l 962 939 l 949 873 l 848 836 l 598 479 l 860 100 l 964 59 z "},"Y":{"ha":872,"x_min":-25,"x_max":891,"o":"m 339 102 l 339 378 l 69 836 l -25 876 l -13 939 l 402 939 l 391 879 l 288 835 l 496 468 q 566 637 526 548 q 660 834 606 726 l 538 884 l 550 939 l 891 939 l 881 875 l 787 836 l 541 380 l 541 102 l 678 56 l 667 0 l 210 0 l 220 56 l 339 102 z "},"Ý":{"ha":872,"x_min":-25,"x_max":891,"o":"m 339 102 l 339 378 l 69 836 l -25 876 l -13 939 l 402 939 l 391 879 l 288 835 l 496 468 q 566 637 526 548 q 660 834 606 726 l 538 884 l 550 939 l 891 939 l 881 875 l 787 836 l 541 380 l 541 102 l 678 56 l 667 0 l 210 0 l 220 56 l 339 102 m 315 1083 l 553 1221 l 641 1221 l 663 1109 l 332 1010 l 315 1083 z "},"Ÿ":{"ha":872,"x_min":-25,"x_max":891,"o":"m 339 102 l 339 378 l 69 836 l -25 876 l -13 939 l 402 939 l 391 879 l 288 835 l 496 468 q 566 637 526 548 q 660 834 606 726 l 538 884 l 550 939 l 891 939 l 881 875 l 787 836 l 541 380 l 541 102 l 678 56 l 667 0 l 210 0 l 220 56 l 339 102 m 510 1096 q 523 1137 508 1109 q 558 1187 537 1165 q 593 1209 578 1209 q 632 1195 606 1209 q 678 1162 657 1181 q 702 1131 699 1143 q 689 1089 704 1117 q 654 1039 675 1061 q 620 1017 634 1017 q 580 1031 606 1017 q 534 1064 555 1045 q 510 1096 513 1083 m 193 1096 q 205 1137 191 1109 q 241 1187 220 1164 q 275 1209 262 1209 q 314 1195 289 1209 q 361 1162 340 1181 q 385 1131 382 1143 q 372 1089 387 1117 q 337 1039 357 1061 q 302 1017 316 1017 q 263 1031 288 1017 q 216 1064 237 1045 q 193 1096 195 1083 z "},"Z":{"ha":874,"x_min":36,"x_max":832,"o":"m 753 259 l 832 245 l 777 0 l 73 0 l 36 102 l 596 867 l 220 836 l 150 688 l 63 702 l 94 945 l 232 939 l 797 939 l 824 856 l 260 79 l 668 113 l 753 259 z "},"Ź":{"ha":874,"x_min":36,"x_max":832,"o":"m 753 259 l 832 245 l 777 0 l 73 0 l 36 102 l 596 867 l 220 836 l 150 688 l 63 702 l 94 945 l 232 939 l 797 939 l 824 856 l 260 79 l 668 113 l 753 259 m 315 1083 l 553 1221 l 641 1221 l 663 1109 l 332 1010 l 315 1083 z "},"Ž":{"ha":874,"x_min":36,"x_max":832,"o":"m 753 259 l 832 245 l 777 0 l 73 0 l 36 102 l 596 867 l 220 836 l 150 688 l 63 702 l 94 945 l 232 939 l 797 939 l 824 856 l 260 79 l 668 113 l 753 259 m 220 1181 l 275 1231 l 448 1145 l 621 1231 l 677 1181 l 492 1027 l 406 1027 l 220 1181 z "},"Ż":{"ha":874,"x_min":36,"x_max":832,"o":"m 753 259 l 832 245 l 777 0 l 73 0 l 36 102 l 596 867 l 220 836 l 150 688 l 63 702 l 94 945 l 232 939 l 797 939 l 824 856 l 260 79 l 668 113 l 753 259 m 422 1021 q 395 1045 411 1024 q 367 1090 378 1065 q 355 1131 355 1116 q 355 1137 355 1135 q 378 1164 358 1148 q 423 1193 398 1181 q 463 1204 448 1204 q 470 1204 468 1204 q 497 1181 481 1201 q 526 1136 513 1160 q 538 1096 538 1111 q 537 1090 538 1092 q 514 1062 534 1078 q 469 1033 494 1045 q 428 1021 444 1021 q 422 1021 424 1021 z "},"a":{"ha":732,"x_min":39,"x_max":734,"o":"m 39 163 q 63 271 39 229 q 142 336 88 313 q 221 358 176 351 q 316 365 267 365 q 426 357 380 365 l 426 394 q 373 577 426 542 q 342 589 361 585 q 302 593 323 593 q 266 589 283 593 l 246 472 q 211 446 231 457 q 179 434 191 434 q 134 454 163 434 q 84 500 106 473 q 62 548 62 527 q 90 583 62 565 q 153 614 119 602 q 290 649 212 637 q 414 661 368 661 q 569 606 522 661 q 617 457 617 551 l 617 134 q 664 91 635 108 q 734 63 693 73 l 726 24 q 538 -17 643 -15 q 497 43 519 18 q 444 90 475 69 q 356 13 409 43 q 232 -17 302 -17 q 120 10 163 -17 q 58 79 77 37 q 39 163 39 120 m 271 92 q 292 84 279 84 q 359 93 318 84 q 426 112 400 102 l 426 313 q 331 293 372 304 q 267 271 290 282 q 237 252 243 259 q 228 208 228 239 q 241 142 228 178 q 271 92 254 107 z "},"á":{"ha":732,"x_min":39,"x_max":734,"o":"m 39 163 q 63 271 39 229 q 142 336 88 313 q 221 358 176 351 q 316 365 267 365 q 426 357 380 365 l 426 394 q 373 577 426 542 q 342 589 361 585 q 302 593 323 593 q 266 589 283 593 l 246 472 q 211 446 231 457 q 179 434 191 434 q 134 454 163 434 q 84 500 106 473 q 62 548 62 527 q 90 583 62 565 q 153 614 119 602 q 290 649 212 637 q 414 661 368 661 q 569 606 522 661 q 617 457 617 551 l 617 134 q 664 91 635 108 q 734 63 693 73 l 726 24 q 538 -17 643 -15 q 497 43 519 18 q 444 90 475 69 q 356 13 409 43 q 232 -17 302 -17 q 120 10 163 -17 q 58 79 77 37 q 39 163 39 120 m 271 92 q 292 84 279 84 q 359 93 318 84 q 426 112 400 102 l 426 313 q 331 293 372 304 q 267 271 290 282 q 237 252 243 259 q 228 208 228 239 q 241 142 228 178 q 271 92 254 107 m 414 992 l 500 992 l 524 871 l 238 711 l 220 810 l 414 992 z "},"ă":{"ha":732,"x_min":39,"x_max":734,"o":"m 39 163 q 63 271 39 229 q 142 336 88 313 q 221 358 176 351 q 316 365 267 365 q 426 357 380 365 l 426 394 q 373 577 426 542 q 342 589 361 585 q 302 593 323 593 q 266 589 283 593 l 246 472 q 211 446 231 457 q 179 434 191 434 q 134 454 163 434 q 84 500 106 473 q 62 548 62 527 q 90 583 62 565 q 153 614 119 602 q 290 649 212 637 q 414 661 368 661 q 569 606 522 661 q 617 457 617 551 l 617 134 q 664 91 635 108 q 734 63 693 73 l 726 24 q 538 -17 643 -15 q 497 43 519 18 q 444 90 475 69 q 356 13 409 43 q 232 -17 302 -17 q 120 10 163 -17 q 58 79 77 37 q 39 163 39 120 m 271 92 q 292 84 279 84 q 359 93 318 84 q 426 112 400 102 l 426 313 q 331 293 372 304 q 267 271 290 282 q 237 252 243 259 q 228 208 228 239 q 241 142 228 178 q 271 92 254 107 m 347 720 q 240 743 288 720 q 164 802 192 765 q 136 882 136 840 q 144 929 136 904 l 241 929 q 280 845 251 872 q 347 819 310 819 q 412 845 384 819 q 451 929 441 871 l 547 929 q 555 883 555 903 q 527 803 555 840 q 452 743 500 765 q 347 720 404 720 z "},"â":{"ha":732,"x_min":39,"x_max":734,"o":"m 39 163 q 63 271 39 229 q 142 336 88 313 q 221 358 176 351 q 316 365 267 365 q 426 357 380 365 l 426 394 q 373 577 426 542 q 342 589 361 585 q 302 593 323 593 q 266 589 283 593 l 246 472 q 211 446 231 457 q 179 434 191 434 q 134 454 163 434 q 84 500 106 473 q 62 548 62 527 q 90 583 62 565 q 153 614 119 602 q 290 649 212 637 q 414 661 368 661 q 569 606 522 661 q 617 457 617 551 l 617 134 q 664 91 635 108 q 734 63 693 73 l 726 24 q 538 -17 643 -15 q 497 43 519 18 q 444 90 475 69 q 356 13 409 43 q 232 -17 302 -17 q 120 10 163 -17 q 58 79 77 37 q 39 163 39 120 m 271 92 q 292 84 279 84 q 359 93 318 84 q 426 112 400 102 l 426 313 q 331 293 372 304 q 267 271 290 282 q 237 252 243 259 q 228 208 228 239 q 241 142 228 178 q 271 92 254 107 m 182 733 l 105 770 l 291 953 l 401 953 l 587 770 l 509 732 l 346 827 l 182 733 z "},"ä":{"ha":732,"x_min":39,"x_max":734,"o":"m 39 163 q 63 271 39 229 q 142 336 88 313 q 221 358 176 351 q 316 365 267 365 q 426 357 380 365 l 426 394 q 373 577 426 542 q 342 589 361 585 q 302 593 323 593 q 266 589 283 593 l 246 472 q 211 446 231 457 q 179 434 191 434 q 134 454 163 434 q 84 500 106 473 q 62 548 62 527 q 90 583 62 565 q 153 614 119 602 q 290 649 212 637 q 414 661 368 661 q 569 606 522 661 q 617 457 617 551 l 617 134 q 664 91 635 108 q 734 63 693 73 l 726 24 q 538 -17 643 -15 q 497 43 519 18 q 444 90 475 69 q 356 13 409 43 q 232 -17 302 -17 q 120 10 163 -17 q 58 79 77 37 q 39 163 39 120 m 271 92 q 292 84 279 84 q 359 93 318 84 q 426 112 400 102 l 426 313 q 331 293 372 304 q 267 271 290 282 q 237 252 243 259 q 228 208 228 239 q 241 142 228 178 q 271 92 254 107 m 85 847 q 100 896 83 863 q 142 954 118 928 q 182 980 167 980 q 225 963 198 980 q 275 924 253 946 q 301 887 298 901 q 288 839 304 871 q 250 781 273 806 q 212 755 228 755 q 167 771 197 755 q 113 810 137 788 q 85 847 88 832 m 390 847 q 403 896 387 864 q 441 954 419 928 q 479 980 464 980 q 524 963 495 980 q 578 924 553 947 q 606 887 602 902 q 591 839 608 871 q 549 781 574 806 q 508 755 525 755 q 465 771 492 755 q 416 810 438 788 q 390 847 393 833 z "},"à":{"ha":732,"x_min":39,"x_max":734,"o":"m 39 163 q 63 271 39 229 q 142 336 88 313 q 221 358 176 351 q 316 365 267 365 q 426 357 380 365 l 426 394 q 373 577 426 542 q 342 589 361 585 q 302 593 323 593 q 266 589 283 593 l 246 472 q 211 446 231 457 q 179 434 191 434 q 134 454 163 434 q 84 500 106 473 q 62 548 62 527 q 90 583 62 565 q 153 614 119 602 q 290 649 212 637 q 414 661 368 661 q 569 606 522 661 q 617 457 617 551 l 617 134 q 664 91 635 108 q 734 63 693 73 l 726 24 q 538 -17 643 -15 q 497 43 519 18 q 444 90 475 69 q 356 13 409 43 q 232 -17 302 -17 q 120 10 163 -17 q 58 79 77 37 q 39 163 39 120 m 271 92 q 292 84 279 84 q 359 93 318 84 q 426 112 400 102 l 426 313 q 331 293 372 304 q 267 271 290 282 q 237 252 243 259 q 228 208 228 239 q 241 142 228 178 q 271 92 254 107 m 181 872 l 204 992 l 291 992 l 485 810 l 468 711 l 181 872 z "},"ā":{"ha":732,"x_min":39,"x_max":734,"o":"m 39 163 q 63 271 39 229 q 142 336 88 313 q 221 358 176 351 q 316 365 267 365 q 426 357 380 365 l 426 394 q 373 577 426 542 q 342 589 361 585 q 302 593 323 593 q 266 589 283 593 l 246 472 q 211 446 231 457 q 179 434 191 434 q 134 454 163 434 q 84 500 106 473 q 62 548 62 527 q 90 583 62 565 q 153 614 119 602 q 290 649 212 637 q 414 661 368 661 q 569 606 522 661 q 617 457 617 551 l 617 134 q 664 91 635 108 q 734 63 693 73 l 726 24 q 538 -17 643 -15 q 497 43 519 18 q 444 90 475 69 q 356 13 409 43 q 232 -17 302 -17 q 120 10 163 -17 q 58 79 77 37 q 39 163 39 120 m 271 92 q 292 84 279 84 q 359 93 318 84 q 426 112 400 102 l 426 313 q 331 293 372 304 q 267 271 290 282 q 237 252 243 259 q 228 208 228 239 q 241 142 228 178 q 271 92 254 107 m 164 892 l 553 892 l 530 779 q 178 770 364 770 l 140 770 l 164 892 z "},"ą":{"ha":732,"x_min":39,"x_max":734,"o":"m 39 163 q 63 271 39 229 q 142 336 88 313 q 221 358 176 351 q 312 365 267 365 q 426 357 380 365 l 426 394 q 373 577 426 542 q 342 589 361 585 q 302 593 323 593 q 266 589 283 593 l 246 472 q 211 446 231 457 q 179 434 191 434 q 134 454 163 434 q 84 500 106 473 q 62 548 62 527 q 90 583 62 565 q 153 614 119 602 q 290 649 212 637 q 414 661 368 661 q 569 606 522 661 q 617 457 617 551 l 617 137 q 662 93 632 111 q 734 64 691 75 l 724 22 q 544 -56 608 -9 q 479 -156 479 -102 q 491 -202 479 -180 q 523 -234 503 -224 q 551 -241 534 -241 q 604 -232 572 -241 q 665 -210 635 -224 l 682 -239 q 592 -310 641 -285 q 490 -334 543 -334 q 410 -319 448 -334 q 350 -271 373 -303 q 327 -191 327 -238 q 383 -73 327 -123 q 519 9 439 -22 q 444 90 476 74 q 223 -17 364 -17 q 119 11 161 -17 q 58 79 77 38 q 39 163 39 121 m 271 92 q 292 84 279 84 q 359 93 318 84 q 426 112 400 102 l 426 313 q 331 293 372 304 q 267 271 290 282 q 237 252 243 259 q 228 201 228 239 q 241 140 228 172 q 271 92 254 107 z "},"å":{"ha":732,"x_min":39,"x_max":734,"o":"m 39 163 q 63 271 39 229 q 142 336 88 313 q 221 358 176 351 q 316 365 267 365 q 426 357 380 365 l 426 394 q 373 577 426 542 q 342 589 361 585 q 302 593 323 593 q 266 589 283 593 l 246 472 q 211 446 231 457 q 179 434 191 434 q 134 454 163 434 q 84 500 106 473 q 62 548 62 527 q 90 583 62 565 q 153 614 119 602 q 290 649 212 637 q 414 661 368 661 q 569 606 522 661 q 617 457 617 551 l 617 134 q 664 91 635 108 q 734 63 693 73 l 726 24 q 538 -17 643 -15 q 497 43 519 18 q 444 90 475 69 q 356 13 409 43 q 232 -17 302 -17 q 120 10 163 -17 q 58 79 77 37 q 39 163 39 120 m 271 92 q 292 84 279 84 q 359 93 318 84 q 426 112 400 102 l 426 313 q 331 293 372 304 q 267 271 290 282 q 237 252 243 259 q 228 208 228 239 q 241 142 228 178 q 271 92 254 107 m 344 710 q 268 728 302 710 q 214 777 234 745 q 195 852 195 809 q 214 929 195 893 q 269 986 233 964 q 350 1007 304 1007 q 424 989 390 1007 q 477 939 457 971 q 497 864 497 906 q 477 787 497 822 q 422 731 457 751 q 344 710 387 710 m 351 795 q 390 811 375 795 q 404 852 404 828 q 386 903 404 881 q 338 924 367 924 q 300 907 315 924 q 286 865 286 889 q 303 816 286 837 q 351 795 321 795 z "},"ã":{"ha":732,"x_min":39,"x_max":734,"o":"m 39 163 q 63 271 39 229 q 142 336 88 313 q 221 358 176 351 q 316 365 267 365 q 426 357 380 365 l 426 394 q 373 577 426 542 q 342 589 361 585 q 302 593 323 593 q 266 589 283 593 l 246 472 q 211 446 231 457 q 179 434 191 434 q 134 454 163 434 q 84 500 106 473 q 62 548 62 527 q 90 583 62 565 q 153 614 119 602 q 290 649 212 637 q 414 661 368 661 q 569 606 522 661 q 617 457 617 551 l 617 134 q 664 91 635 108 q 734 63 693 73 l 726 24 q 538 -17 643 -15 q 497 43 519 18 q 444 90 475 69 q 356 13 409 43 q 232 -17 302 -17 q 120 10 163 -17 q 58 79 77 37 q 39 163 39 120 m 271 92 q 292 84 279 84 q 359 93 318 84 q 426 112 400 102 l 426 313 q 331 293 372 304 q 267 271 290 282 q 237 252 243 259 q 228 208 228 239 q 241 142 228 178 q 271 92 254 107 m 98 866 q 183 943 146 916 q 261 970 220 970 q 321 955 294 970 q 383 913 349 940 q 416 889 406 896 q 437 882 427 882 q 501 902 459 882 q 576 949 543 922 l 593 851 q 538 798 562 818 q 488 763 515 777 q 431 749 460 749 q 371 763 398 749 q 309 805 344 778 q 276 829 288 821 q 254 836 264 836 q 190 816 232 836 q 115 768 147 796 l 98 866 z "},"æ":{"ha":1004,"x_min":39,"x_max":966,"o":"m 39 163 q 63 271 39 233 q 145 333 88 310 q 229 354 180 347 q 322 362 277 362 q 418 357 362 362 l 418 390 q 362 577 418 539 q 296 593 338 593 q 260 589 277 593 l 239 472 q 204 446 224 457 q 172 434 184 434 q 127 454 156 434 q 77 500 99 473 q 55 548 55 527 q 83 583 55 565 q 146 614 112 601 q 281 649 205 637 q 404 661 357 661 q 555 606 503 661 q 741 661 635 661 q 863 632 812 661 q 940 553 913 602 q 966 446 966 504 q 943 355 966 401 q 927 337 937 343 q 898 332 917 332 l 579 332 q 608 216 582 273 q 675 125 634 160 q 762 90 717 90 q 850 103 799 90 q 928 127 902 117 l 941 104 q 843 17 906 51 q 711 -17 780 -17 q 570 12 635 -17 q 462 96 504 41 q 358 14 419 44 q 219 -17 297 -17 q 117 11 158 -17 q 58 79 77 38 q 39 163 39 121 m 790 412 q 773 504 790 465 q 729 563 757 543 q 665 583 701 583 q 618 566 630 583 q 593 497 605 547 q 579 382 582 448 l 790 412 m 271 92 q 292 84 279 84 q 359 94 322 84 q 418 119 396 104 l 418 311 q 327 290 366 302 q 266 267 288 278 q 237 248 243 255 q 230 227 231 238 q 228 201 228 216 q 241 140 228 172 q 271 92 254 107 z "},"b":{"ha":791,"x_min":8,"x_max":743,"o":"m 75 -17 l 45 22 l 105 135 l 105 867 l 8 926 l 15 958 l 296 998 l 296 563 q 404 633 347 604 q 517 661 460 661 q 645 616 595 661 q 719 498 696 570 q 743 345 743 426 q 720 196 743 266 q 654 77 697 126 q 459 -17 573 -17 q 358 3 401 -17 q 275 68 315 23 l 75 -17 m 296 127 q 369 99 328 108 q 454 91 410 91 q 496 96 480 91 q 520 117 512 101 q 545 188 536 138 q 555 286 555 237 q 538 416 555 355 q 488 517 522 477 q 465 537 477 532 q 436 543 453 543 q 367 535 412 543 q 296 517 322 527 l 296 127 z "},"c":{"ha":631,"x_min":41,"x_max":609,"o":"m 393 604 q 282 538 325 593 q 242 454 254 502 q 229 359 229 406 q 242 259 229 304 q 281 174 254 214 q 417 94 337 94 q 514 105 454 94 q 596 123 575 117 l 609 102 q 551 46 587 73 q 465 1 514 18 q 361 -17 416 -17 q 189 24 261 -17 q 79 139 117 64 q 41 313 41 214 q 89 498 41 419 q 218 618 137 576 q 397 660 300 660 q 470 654 437 660 q 534 634 503 648 q 581 602 561 621 q 602 567 602 583 q 580 518 602 547 q 530 470 558 490 q 486 449 502 449 q 450 461 471 449 q 417 488 430 473 l 393 604 z "},"ć":{"ha":631,"x_min":41,"x_max":609,"o":"m 393 604 q 282 538 325 593 q 242 454 254 502 q 229 359 229 406 q 242 259 229 304 q 281 174 254 214 q 417 94 337 94 q 514 105 454 94 q 596 123 575 117 l 609 102 q 551 46 587 73 q 465 1 514 18 q 361 -17 416 -17 q 189 24 261 -17 q 79 139 117 64 q 41 313 41 214 q 89 498 41 419 q 218 618 137 576 q 397 660 300 660 q 470 654 437 660 q 534 634 503 648 q 581 602 561 621 q 602 567 602 583 q 580 518 602 547 q 530 470 558 490 q 486 449 502 449 q 450 461 471 449 q 417 488 430 473 l 393 604 m 413 992 l 498 992 l 522 871 l 237 711 l 218 810 l 413 992 z "},"č":{"ha":631,"x_min":41,"x_max":609,"o":"m 393 604 q 282 538 325 593 q 242 454 254 502 q 229 359 229 406 q 242 259 229 304 q 281 174 254 214 q 417 94 337 94 q 514 105 454 94 q 596 123 575 117 l 609 102 q 551 46 587 73 q 465 1 514 18 q 361 -17 416 -17 q 189 24 261 -17 q 79 139 117 64 q 41 313 41 214 q 89 498 41 419 q 218 618 137 576 q 397 660 300 660 q 470 654 437 660 q 534 634 503 648 q 581 602 561 621 q 602 567 602 583 q 580 518 602 547 q 530 470 558 490 q 486 449 502 449 q 450 461 471 449 q 417 488 430 473 l 393 604 m 509 956 l 585 920 l 403 736 l 285 736 l 103 920 l 178 956 l 344 854 l 509 956 z "},"ç":{"ha":631,"x_min":41,"x_max":609,"o":"m 609 102 q 520 26 578 60 q 393 -15 463 -8 l 376 -57 q 475 -98 443 -69 q 507 -178 507 -127 q 465 -264 507 -230 q 362 -315 422 -299 q 249 -332 302 -332 l 232 -282 q 353 -226 323 -250 q 382 -183 382 -202 q 349 -146 382 -161 q 254 -121 316 -132 q 273 -71 256 -102 q 312 -14 291 -39 q 165 38 227 -5 q 73 152 104 81 q 41 313 41 222 q 89 498 41 419 q 218 618 137 576 q 397 660 300 660 q 470 654 437 660 q 534 634 503 648 q 581 602 561 621 q 602 567 602 583 q 580 518 602 547 q 530 470 558 490 q 486 449 502 449 q 450 461 471 449 q 417 488 430 473 l 393 604 q 282 538 325 593 q 242 454 254 502 q 229 359 229 406 q 242 259 229 304 q 281 174 254 214 q 417 94 337 94 q 514 105 454 94 q 596 123 575 117 l 609 102 z "},"d":{"ha":813,"x_min":44,"x_max":808,"o":"m 690 133 q 741 89 705 106 q 808 64 777 71 l 799 22 q 717 -3 775 12 q 620 -17 659 -17 q 575 44 598 18 q 525 90 553 71 q 431 12 486 41 q 311 -17 376 -17 q 180 16 240 -17 q 82 119 119 48 q 44 297 44 189 q 80 479 44 396 q 183 612 116 562 q 339 661 250 661 q 499 596 420 661 l 499 866 l 401 926 l 407 958 l 690 998 l 690 133 m 316 129 q 345 104 329 113 q 378 94 361 94 q 442 101 407 94 q 499 118 477 108 l 499 498 q 430 539 472 524 q 343 553 387 553 q 294 547 313 553 q 265 519 275 540 q 237 362 237 463 q 258 229 237 289 q 316 129 279 170 z "},"ð":{"ha":773,"x_min":41,"x_max":715,"o":"m 509 882 q 715 363 715 696 q 676 180 715 268 q 561 38 637 93 q 379 -17 485 -17 q 207 19 283 -17 q 86 127 130 54 q 41 309 41 201 q 81 480 41 401 q 191 606 120 559 q 355 653 262 653 q 437 642 398 653 q 506 612 476 631 q 372 804 463 722 l 201 699 l 161 798 l 290 868 q 69 970 197 928 l 169 1017 q 287 997 216 1017 q 419 944 357 977 l 568 1038 l 615 940 l 509 882 m 486 97 q 515 172 505 117 q 526 278 526 228 q 502 431 526 366 q 435 531 479 496 q 334 566 392 566 q 267 547 288 566 q 236 480 246 530 q 227 375 227 430 q 247 232 227 299 q 309 122 267 164 q 415 79 352 79 q 457 83 439 79 q 486 97 475 87 z "},"ď":{"ha":942,"x_min":44,"x_max":947,"o":"m 690 133 q 741 89 705 106 q 808 64 777 71 l 799 22 q 717 -3 775 12 q 620 -17 659 -17 q 575 44 598 18 q 525 90 553 71 q 431 12 486 41 q 311 -17 376 -17 q 180 16 240 -17 q 82 119 119 48 q 44 297 44 189 q 80 479 44 396 q 183 612 116 562 q 339 661 250 661 q 499 596 420 661 l 499 866 l 401 926 l 407 958 l 690 998 l 690 133 m 728 650 q 812 855 782 760 l 741 885 l 754 971 q 930 991 857 991 q 947 921 947 957 q 901 777 947 858 q 787 634 854 696 l 728 650 m 316 129 q 345 104 329 113 q 378 94 361 94 q 442 101 407 94 q 499 118 477 108 l 499 498 q 430 539 472 524 q 343 553 387 553 q 294 547 313 553 q 265 519 275 540 q 237 362 237 463 q 258 229 237 289 q 316 129 279 170 z "},"đ":{"ha":808,"x_min":39,"x_max":810,"o":"m 686 133 q 737 89 701 106 q 804 64 773 71 l 795 22 q 713 -3 771 12 q 616 -17 655 -17 q 571 45 593 19 q 521 90 549 71 q 427 12 481 41 q 307 -17 372 -17 q 175 16 236 -17 q 77 119 115 48 q 39 297 39 189 q 75 479 39 396 q 178 612 111 562 q 334 661 245 661 q 495 596 417 661 l 495 730 l 334 728 l 357 824 l 495 821 l 495 866 l 397 926 l 403 958 l 686 998 l 686 821 l 810 823 l 791 730 l 686 730 l 686 133 m 312 129 q 341 104 325 113 q 374 94 357 94 q 438 101 402 94 q 495 118 473 108 l 495 497 q 426 539 468 524 q 339 553 384 553 q 290 547 309 553 q 260 519 271 540 q 233 362 233 463 q 254 229 233 289 q 312 129 275 170 z "},"e":{"ha":680,"x_min":41,"x_max":642,"o":"m 385 661 q 521 631 463 661 q 610 548 579 600 q 642 431 642 496 q 625 336 642 377 q 611 318 620 324 q 585 313 602 313 l 229 313 q 262 206 236 256 q 326 125 288 156 q 410 95 365 95 q 515 107 450 95 q 602 126 580 119 l 614 103 q 500 17 573 51 q 351 -17 428 -17 q 199 18 269 -17 q 84 127 128 53 q 41 312 41 201 q 83 486 41 406 q 204 613 126 566 q 385 661 283 661 m 477 399 q 451 492 473 453 q 393 550 428 530 q 316 570 358 570 q 287 567 299 570 q 268 555 275 564 q 239 485 251 532 q 226 369 227 438 l 477 399 z "},"é":{"ha":680,"x_min":41,"x_max":642,"o":"m 385 661 q 521 631 463 661 q 610 548 579 600 q 642 431 642 496 q 625 336 642 377 q 611 318 620 324 q 585 313 602 313 l 229 313 q 262 206 236 256 q 326 125 288 156 q 410 95 365 95 q 515 107 450 95 q 602 126 580 119 l 614 103 q 500 17 573 51 q 351 -17 428 -17 q 199 18 269 -17 q 84 127 128 53 q 41 312 41 201 q 83 486 41 406 q 204 613 126 566 q 385 661 283 661 m 477 399 q 451 492 473 453 q 393 550 428 530 q 316 570 358 570 q 287 567 299 570 q 268 555 275 564 q 239 485 251 532 q 226 369 227 438 l 477 399 m 422 992 l 508 992 l 532 871 l 246 711 l 228 810 l 422 992 z "},"ě":{"ha":680,"x_min":41,"x_max":642,"o":"m 385 661 q 521 631 463 661 q 610 548 579 600 q 642 431 642 496 q 625 336 642 377 q 611 318 620 324 q 585 313 602 313 l 229 313 q 262 206 236 256 q 326 125 288 156 q 410 95 365 95 q 515 107 450 95 q 602 126 580 119 l 614 103 q 500 17 573 51 q 351 -17 428 -17 q 199 18 269 -17 q 84 127 128 53 q 41 312 41 201 q 83 486 41 406 q 204 613 126 566 q 385 661 283 661 m 477 399 q 451 492 473 453 q 393 550 428 530 q 316 570 358 570 q 287 567 299 570 q 268 555 275 564 q 239 485 251 532 q 226 369 227 438 l 477 399 m 519 956 l 594 920 l 412 736 l 294 736 l 113 920 l 188 956 l 353 854 l 519 956 z "},"ê":{"ha":680,"x_min":41,"x_max":642,"o":"m 385 661 q 521 631 463 661 q 610 548 579 600 q 642 431 642 496 q 625 336 642 377 q 611 318 620 324 q 585 313 602 313 l 229 313 q 262 206 236 256 q 326 125 288 156 q 410 95 365 95 q 515 107 450 95 q 602 126 580 119 l 614 103 q 500 17 573 51 q 351 -17 428 -17 q 199 18 269 -17 q 84 127 128 53 q 41 312 41 201 q 83 486 41 406 q 204 613 126 566 q 385 661 283 661 m 477 399 q 451 492 473 453 q 393 550 428 530 q 316 570 358 570 q 287 567 299 570 q 268 555 275 564 q 239 485 251 532 q 226 369 227 438 l 477 399 m 190 733 l 113 770 l 298 953 l 408 953 l 594 770 l 517 732 l 353 827 l 190 733 z "},"ë":{"ha":680,"x_min":41,"x_max":642,"o":"m 385 661 q 521 631 463 661 q 610 548 579 600 q 642 431 642 496 q 625 336 642 377 q 611 318 620 324 q 585 313 602 313 l 229 313 q 262 206 236 256 q 326 125 288 156 q 410 95 365 95 q 515 107 450 95 q 602 126 580 119 l 614 103 q 500 17 573 51 q 351 -17 428 -17 q 199 18 269 -17 q 84 127 128 53 q 41 312 41 201 q 83 486 41 406 q 204 613 126 566 q 385 661 283 661 m 477 399 q 451 492 473 453 q 393 550 428 530 q 316 570 358 570 q 287 567 299 570 q 268 555 275 564 q 239 485 251 532 q 226 369 227 438 l 477 399 m 93 847 q 108 896 90 863 q 150 954 125 928 q 190 980 174 980 q 233 963 205 980 q 283 924 260 946 q 309 887 305 901 q 296 839 311 871 q 258 781 280 806 q 220 755 235 755 q 174 771 204 755 q 120 810 144 788 q 93 847 96 832 m 397 847 q 411 896 395 864 q 449 954 427 928 q 486 980 471 980 q 532 963 503 980 q 585 924 561 947 q 613 887 610 902 q 598 839 616 871 q 557 781 581 806 q 515 755 532 755 q 473 771 500 755 q 423 810 446 788 q 397 847 401 833 z "},"ė":{"ha":680,"x_min":41,"x_max":642,"o":"m 385 661 q 521 631 463 661 q 610 548 579 600 q 642 431 642 496 q 625 336 642 377 q 611 318 620 324 q 585 313 602 313 l 229 313 q 262 206 236 256 q 326 125 288 156 q 410 95 365 95 q 515 107 450 95 q 602 126 580 119 l 614 103 q 500 17 573 51 q 351 -17 428 -17 q 199 18 269 -17 q 84 127 128 53 q 41 312 41 201 q 83 486 41 406 q 204 613 126 566 q 385 661 283 661 m 477 399 q 451 492 473 453 q 393 550 428 530 q 316 570 358 570 q 287 567 299 570 q 268 555 275 564 q 239 485 251 532 q 226 369 227 438 l 477 399 m 326 760 q 294 787 313 763 q 260 841 275 811 q 245 888 245 870 q 246 894 245 892 q 273 927 250 907 q 325 960 296 946 q 372 974 354 974 q 380 973 378 974 q 412 947 393 970 q 445 895 431 924 q 460 848 460 865 q 459 841 460 843 q 433 807 456 827 q 380 774 409 788 q 332 760 351 760 q 326 760 328 760 z "},"è":{"ha":680,"x_min":41,"x_max":642,"o":"m 385 661 q 521 631 463 661 q 610 548 579 600 q 642 431 642 496 q 625 336 642 377 q 611 318 620 324 q 585 313 602 313 l 229 313 q 262 206 236 256 q 326 125 288 156 q 410 95 365 95 q 515 107 450 95 q 602 126 580 119 l 614 103 q 500 17 573 51 q 351 -17 428 -17 q 199 18 269 -17 q 84 127 128 53 q 41 312 41 201 q 83 486 41 406 q 204 613 126 566 q 385 661 283 661 m 477 399 q 451 492 473 453 q 393 550 428 530 q 316 570 358 570 q 287 567 299 570 q 268 555 275 564 q 239 485 251 532 q 226 369 227 438 l 477 399 m 189 872 l 212 992 l 298 992 l 492 810 l 475 711 l 189 872 z "},"ē":{"ha":680,"x_min":41,"x_max":642,"o":"m 385 661 q 521 631 463 661 q 610 548 579 600 q 642 431 642 496 q 625 336 642 377 q 611 318 620 324 q 585 313 602 313 l 229 313 q 262 206 236 256 q 326 125 288 156 q 410 95 365 95 q 515 107 450 95 q 602 126 580 119 l 614 103 q 500 17 573 51 q 351 -17 428 -17 q 199 18 269 -17 q 84 127 128 53 q 41 312 41 201 q 83 486 41 406 q 204 613 126 566 q 385 661 283 661 m 477 399 q 451 492 473 453 q 393 550 428 530 q 316 570 358 570 q 287 567 299 570 q 268 555 275 564 q 239 485 251 532 q 226 369 227 438 l 477 399 m 172 892 l 560 892 l 538 779 q 185 770 372 770 l 148 770 l 172 892 z "},"ę":{"ha":680,"x_min":41,"x_max":642,"o":"m 229 313 q 260 208 235 258 q 324 126 285 157 q 410 95 363 95 q 516 107 454 95 q 602 125 579 119 l 615 104 q 564 55 590 74 q 502 17 537 37 q 469 -2 476 2 q 380 -79 412 -40 q 348 -156 348 -118 q 361 -203 348 -180 q 396 -236 375 -227 q 420 -241 409 -241 q 471 -232 441 -241 q 534 -210 502 -224 l 552 -239 q 461 -309 511 -284 q 359 -334 412 -334 q 280 -318 317 -334 q 220 -270 243 -302 q 197 -191 197 -238 q 242 -84 197 -134 q 326 -14 273 -47 l 312 -12 q 300 -11 308 -12 q 286 -8 292 -9 q 162 42 217 4 q 74 148 106 80 q 41 310 41 215 q 83 485 41 404 q 205 613 126 565 q 386 661 283 661 q 522 631 464 661 q 611 548 580 600 q 642 431 642 496 q 625 336 642 376 q 611 318 620 324 q 585 313 602 313 l 229 313 m 478 399 q 451 492 474 453 q 393 550 429 530 q 316 570 358 570 q 287 567 299 570 q 269 555 275 564 q 240 485 252 532 q 226 369 229 438 l 478 399 z "},"f":{"ha":547,"x_min":35,"x_max":669,"o":"m 141 98 l 141 538 l 35 585 l 47 644 l 141 644 q 174 846 141 768 q 275 961 207 924 q 452 998 344 998 q 540 991 505 998 q 606 970 576 985 q 650 940 631 958 q 669 905 669 921 q 647 858 669 886 q 598 808 626 829 q 553 787 570 787 q 518 799 538 787 q 484 825 498 811 l 458 947 q 379 892 407 934 q 342 790 352 851 q 332 644 332 730 l 545 644 l 536 591 l 332 539 l 332 92 l 511 47 l 500 0 l 38 0 l 49 53 l 141 98 z "},"g":{"ha":751,"x_min":7,"x_max":755,"o":"m 528 90 q 679 55 635 90 q 722 -50 722 19 q 675 -194 722 -127 q 534 -299 628 -260 q 307 -339 440 -339 q 166 -326 235 -339 q 58 -285 98 -313 q 7 -189 7 -250 q 44 -101 7 -139 q 138 -35 81 -62 q 73 9 97 -20 q 50 77 50 37 q 93 161 50 127 q 194 212 137 195 q 101 283 134 237 q 68 396 68 330 q 101 531 68 471 q 205 626 135 591 q 382 661 276 661 q 469 651 427 661 q 547 620 511 640 q 644 654 592 642 q 742 666 695 666 l 755 639 l 637 522 q 652 443 652 486 q 613 306 652 364 q 506 216 574 247 q 351 184 437 184 q 247 195 294 184 q 219 124 219 144 q 225 110 219 116 q 239 100 231 103 q 309 92 257 94 q 528 90 361 90 m 269 564 q 253 524 258 550 q 247 471 247 498 q 266 370 247 417 q 319 295 284 323 q 401 266 354 266 q 456 283 439 266 q 473 327 467 294 q 479 409 479 359 q 462 495 479 456 q 412 558 446 534 q 329 582 378 582 q 293 577 310 582 q 269 564 275 573 m 524 -217 q 538 -197 530 -212 q 553 -160 547 -182 q 559 -114 559 -138 q 555 -84 559 -95 q 538 -66 551 -73 q 496 -59 524 -59 q 314 -57 385 -59 q 193 -47 243 -55 q 169 -107 179 -75 q 159 -161 159 -139 q 165 -185 159 -177 q 210 -215 176 -201 q 290 -237 243 -229 q 383 -245 336 -245 q 465 -239 425 -245 q 524 -217 504 -233 z "},"ğ":{"ha":751,"x_min":7,"x_max":755,"o":"m 528 90 q 679 55 635 90 q 722 -50 722 19 q 675 -194 722 -127 q 534 -299 628 -260 q 307 -339 440 -339 q 166 -326 235 -339 q 58 -285 98 -313 q 7 -189 7 -250 q 44 -101 7 -139 q 138 -35 81 -62 q 73 9 97 -20 q 50 77 50 37 q 93 161 50 127 q 194 212 137 195 q 101 283 134 237 q 68 396 68 330 q 101 531 68 471 q 205 626 135 591 q 382 661 276 661 q 469 651 427 661 q 547 620 511 640 q 644 654 592 642 q 742 666 695 666 l 755 639 l 637 522 q 652 443 652 486 q 613 306 652 364 q 506 216 574 247 q 351 184 437 184 q 247 195 294 184 q 219 124 219 144 q 225 110 219 116 q 239 100 231 103 q 309 92 257 94 q 528 90 361 90 m 269 564 q 253 524 258 550 q 247 471 247 498 q 266 370 247 417 q 319 295 284 323 q 401 266 354 266 q 456 283 439 266 q 473 327 467 294 q 479 409 479 359 q 462 495 479 456 q 412 558 446 534 q 329 582 378 582 q 293 577 310 582 q 269 564 275 573 m 524 -217 q 538 -197 530 -212 q 553 -160 547 -182 q 559 -114 559 -138 q 555 -84 559 -95 q 538 -66 551 -73 q 496 -59 524 -59 q 314 -57 385 -59 q 193 -47 243 -55 q 169 -107 179 -75 q 159 -161 159 -139 q 165 -185 159 -177 q 210 -215 176 -201 q 290 -237 243 -229 q 383 -245 336 -245 q 465 -239 425 -245 q 524 -217 504 -233 m 366 720 q 259 743 307 720 q 183 802 211 765 q 155 882 155 840 q 163 929 155 904 l 260 929 q 299 845 270 872 q 366 819 329 819 q 431 845 403 819 q 470 929 460 871 l 566 929 q 574 883 574 903 q 546 803 574 840 q 471 743 519 765 q 366 720 423 720 z "},"ģ":{"ha":751,"x_min":7,"x_max":755,"o":"m 289 758 q 248 846 248 793 q 280 930 248 895 q 356 984 312 965 q 433 1002 400 1002 l 450 956 q 392 915 412 930 q 366 888 373 899 q 359 865 359 877 q 442 816 359 836 l 418 713 q 348 725 382 713 q 289 758 314 736 m 528 90 q 679 55 635 90 q 722 -50 722 19 q 675 -194 722 -127 q 534 -299 628 -260 q 307 -339 440 -339 q 166 -326 235 -339 q 58 -285 98 -313 q 7 -189 7 -250 q 44 -101 7 -139 q 138 -35 81 -62 q 73 9 97 -20 q 50 77 50 37 q 93 161 50 127 q 194 212 137 195 q 101 283 134 237 q 68 396 68 330 q 101 531 68 471 q 205 626 135 591 q 382 661 276 661 q 469 651 427 661 q 547 620 511 640 q 644 654 592 642 q 742 666 695 666 l 755 639 l 637 522 q 652 443 652 486 q 613 306 652 364 q 506 216 574 247 q 351 184 437 184 q 247 195 294 184 q 219 124 219 144 q 225 110 219 116 q 239 100 231 103 q 309 92 257 94 q 528 90 361 90 m 269 564 q 253 524 258 550 q 247 471 247 498 q 266 370 247 417 q 319 295 284 323 q 401 266 354 266 q 456 283 439 266 q 473 327 467 294 q 479 409 479 359 q 462 495 479 456 q 412 558 446 534 q 329 582 378 582 q 293 577 310 582 q 269 564 275 573 m 524 -217 q 538 -197 530 -212 q 553 -160 547 -182 q 559 -114 559 -138 q 555 -84 559 -95 q 538 -66 551 -73 q 496 -59 524 -59 q 314 -57 385 -59 q 193 -47 243 -55 q 169 -107 179 -75 q 159 -161 159 -139 q 165 -185 159 -177 q 210 -215 176 -201 q 290 -237 243 -229 q 383 -245 336 -245 q 465 -239 425 -245 q 524 -217 504 -233 z "},"h":{"ha":868,"x_min":21,"x_max":859,"o":"m 859 47 l 848 0 l 491 0 l 501 51 l 561 97 l 561 374 q 549 476 561 436 q 521 531 537 517 q 496 540 510 540 q 405 530 463 540 q 314 510 347 521 l 314 92 l 409 46 l 398 0 l 21 0 l 31 52 l 123 96 l 123 866 l 25 926 l 31 958 l 314 998 l 314 557 q 557 661 450 661 q 696 607 640 661 q 752 420 752 553 l 752 92 l 859 47 z "},"i":{"ha":446,"x_min":32,"x_max":424,"o":"m 244 755 q 199 769 229 752 q 142 809 168 785 q 113 847 117 832 q 127 893 111 863 q 168 950 144 924 q 207 979 191 977 q 254 965 224 982 q 310 925 285 948 q 338 887 335 901 q 323 840 340 871 q 283 783 307 809 q 244 755 259 757 m 134 96 l 134 522 l 37 581 l 43 614 l 326 654 l 326 92 l 424 46 l 414 0 l 32 0 l 42 52 l 134 96 z "},"ı":{"ha":446,"x_min":32,"x_max":424,"o":"m 134 96 l 134 522 l 37 581 l 43 614 l 326 652 l 326 92 l 424 46 l 414 0 l 32 0 l 42 52 l 134 96 z "},"í":{"ha":446,"x_min":32,"x_max":424,"o":"m 134 96 l 134 522 l 37 581 l 43 614 l 326 652 l 326 92 l 424 46 l 414 0 l 32 0 l 42 52 l 134 96 m 286 992 l 371 992 l 395 871 l 109 711 l 91 810 l 286 992 z "},"î":{"ha":446,"x_min":-24,"x_max":458,"o":"m 134 96 l 134 522 l 37 581 l 43 614 l 326 652 l 326 92 l 424 46 l 414 0 l 32 0 l 42 52 l 134 96 m 54 733 l -24 770 l 162 953 l 272 953 l 458 770 l 380 732 l 217 827 l 54 733 z "},"ï":{"ha":446,"x_min":-46,"x_max":479,"o":"m 134 96 l 134 522 l 37 581 l 43 614 l 326 652 l 326 92 l 424 46 l 414 0 l 32 0 l 42 52 l 134 96 m -43 847 q -28 896 -46 863 q 14 954 -11 928 q 54 980 38 980 q 97 963 69 980 q 146 924 124 946 q 172 887 169 901 q 159 839 175 871 q 121 781 144 806 q 83 755 99 755 q 38 771 68 755 q -16 810 8 788 q -43 847 -41 832 m 261 847 q 274 896 258 864 q 313 954 290 928 q 350 980 335 980 q 395 963 366 980 q 449 924 425 947 q 477 887 473 902 q 462 839 479 871 q 420 781 445 806 q 379 755 396 755 q 336 771 363 755 q 287 810 309 788 q 261 847 264 833 z "},"ì":{"ha":446,"x_min":32,"x_max":424,"o":"m 134 96 l 134 522 l 37 581 l 43 614 l 326 652 l 326 92 l 424 46 l 414 0 l 32 0 l 42 52 l 134 96 m 52 872 l 75 992 l 161 992 l 355 810 l 338 711 l 52 872 z "},"ī":{"ha":446,"x_min":11,"x_max":424,"o":"m 134 96 l 134 522 l 37 581 l 43 614 l 326 652 l 326 92 l 424 46 l 414 0 l 32 0 l 42 52 l 134 96 m 35 892 l 423 892 l 401 779 q 48 770 235 770 l 11 770 l 35 892 z "},"į":{"ha":448,"x_min":32,"x_max":425,"o":"m 243 755 q 197 769 227 752 q 140 809 166 785 q 112 847 115 832 q 125 893 109 863 q 166 950 142 924 q 205 979 190 977 q 253 965 222 982 q 308 925 283 948 q 336 887 334 901 q 322 840 339 871 q 281 783 305 809 q 243 755 258 757 m 77 -191 q 135 -82 77 -127 q 285 0 193 -37 l 32 0 l 42 52 l 134 96 l 134 524 l 37 581 l 43 614 l 326 654 l 326 92 l 425 46 l 413 1 q 304 -67 342 -41 q 247 -115 266 -94 q 228 -156 228 -136 q 241 -203 228 -180 q 275 -236 254 -227 q 298 -241 285 -241 q 347 -233 317 -241 q 406 -210 376 -224 l 424 -239 q 238 -334 343 -334 q 161 -319 197 -334 q 100 -272 124 -304 q 77 -191 77 -239 z "},"j":{"ha":404,"x_min":-167,"x_max":319,"o":"m 223 755 q 177 769 208 752 q 121 808 147 785 q 92 847 96 831 q 106 894 90 863 q 146 951 122 925 q 186 979 170 977 q 233 965 203 983 q 289 924 263 948 q 317 887 314 901 q 302 839 319 869 q 261 783 286 808 q 223 755 237 757 m 20 581 l 25 614 l 309 654 l 309 19 q 246 -239 309 -138 q 16 -339 184 -339 q -67 -326 -24 -339 q -138 -290 -110 -312 q -167 -244 -167 -268 q -145 -197 -167 -226 q -94 -147 -123 -169 q -49 -125 -66 -125 q -17 -137 -35 -125 q 19 -163 2 -149 l 48 -298 q 94 -225 79 -262 q 113 -139 109 -188 q 117 0 117 -90 l 117 522 l 20 581 z "},"k":{"ha":844,"x_min":21,"x_max":847,"o":"m 24 926 l 31 958 l 313 998 l 313 92 l 412 46 l 401 0 l 21 0 l 31 52 l 122 96 l 122 866 l 24 926 m 755 85 l 847 45 l 836 0 l 538 0 l 547 44 l 341 373 l 543 564 l 468 599 l 477 644 l 794 644 l 783 593 l 689 559 l 528 414 l 755 85 z "},"ķ":{"ha":844,"x_min":21,"x_max":847,"o":"m 24 926 l 31 958 l 313 998 l 313 92 l 412 46 l 401 0 l 21 0 l 31 52 l 122 96 l 122 866 l 24 926 m 755 85 l 847 45 l 836 0 l 538 0 l 547 44 l 341 373 l 543 564 l 468 599 l 477 644 l 794 644 l 783 593 l 689 559 l 528 414 l 755 85 m 372 -69 q 442 -80 408 -69 q 501 -113 476 -92 q 543 -201 543 -149 q 510 -286 543 -250 q 434 -339 478 -321 q 357 -358 390 -358 l 340 -311 q 412 -257 394 -275 q 431 -222 431 -239 q 347 -172 431 -191 l 372 -69 z "},"l":{"ha":434,"x_min":21,"x_max":412,"o":"m 24 926 l 31 958 l 313 998 l 313 92 l 412 46 l 401 0 l 21 0 l 31 52 l 122 96 l 122 866 l 24 926 z "},"ĺ":{"ha":434,"x_min":21,"x_max":420,"o":"m 24 926 l 31 958 l 313 998 l 313 92 l 412 46 l 401 0 l 21 0 l 31 52 l 122 96 l 122 866 l 24 926 m 73 1091 l 310 1230 l 398 1230 l 420 1118 l 89 1018 l 73 1091 z "},"ľ":{"ha":434,"x_min":21,"x_max":572,"o":"m 24 926 l 31 958 l 313 998 l 313 92 l 412 46 l 401 0 l 21 0 l 31 52 l 122 96 l 122 866 l 24 926 m 353 650 q 436 855 408 762 l 366 885 l 378 971 q 554 991 482 991 q 568 956 564 973 q 572 921 572 939 q 525 777 572 858 q 411 634 479 696 l 353 650 z "},"ļ":{"ha":434,"x_min":21,"x_max":412,"o":"m 24 926 l 31 958 l 313 998 l 313 92 l 412 46 l 401 0 l 21 0 l 31 52 l 122 96 l 122 866 l 24 926 m 150 -69 q 220 -80 186 -69 q 279 -113 254 -92 q 321 -201 321 -149 q 289 -286 321 -250 q 212 -339 256 -321 q 135 -358 168 -358 l 118 -311 q 191 -257 172 -275 q 209 -222 209 -239 q 125 -172 209 -191 l 150 -69 z "},"ł":{"ha":431,"x_min":-25,"x_max":475,"o":"m 313 92 l 412 46 l 402 0 l 21 0 l 31 52 l 122 96 l 122 439 l -1 380 l -25 475 l 122 547 l 122 866 l 24 926 l 31 958 l 313 998 l 313 642 l 448 707 l 475 611 l 313 532 l 313 92 z "},"m":{"ha":1291,"x_min":33,"x_max":1282,"o":"m 37 581 l 43 614 l 273 651 l 309 546 q 565 661 452 661 q 660 635 614 661 q 730 548 706 608 q 860 631 792 600 q 976 661 927 661 q 1087 634 1043 661 q 1153 546 1131 608 q 1176 381 1176 484 l 1176 92 l 1282 47 l 1272 0 l 915 0 l 925 51 l 985 97 l 985 336 q 948 526 985 490 q 937 537 943 534 q 920 540 931 540 q 837 531 895 540 q 741 509 779 523 q 750 441 748 484 q 752 323 752 399 l 752 92 l 846 46 l 835 0 l 492 0 l 500 50 l 561 97 l 561 339 q 519 533 561 487 q 502 540 512 540 q 418 532 473 540 q 321 510 363 524 q 326 466 326 492 l 326 92 l 422 46 l 412 0 l 33 0 l 43 52 l 135 98 l 135 522 l 37 581 z "},"n":{"ha":878,"x_min":33,"x_max":869,"o":"m 37 581 l 43 614 l 273 654 l 309 545 q 568 661 454 661 q 706 607 650 661 q 762 420 762 553 l 762 92 l 869 47 l 858 0 l 501 0 l 511 51 l 570 97 l 570 374 q 559 476 570 436 q 531 531 547 517 q 506 540 520 540 q 413 530 471 540 q 321 509 354 520 q 324 495 322 506 q 326 473 326 484 l 326 92 l 422 45 l 412 0 l 33 0 l 43 53 l 135 98 l 135 522 l 37 581 z "},"ń":{"ha":878,"x_min":33,"x_max":869,"o":"m 37 581 l 43 614 l 273 654 l 309 545 q 568 661 454 661 q 706 607 650 661 q 762 420 762 553 l 762 92 l 869 47 l 858 0 l 501 0 l 511 51 l 570 97 l 570 374 q 559 476 570 436 q 531 531 547 517 q 506 540 520 540 q 413 530 471 540 q 321 509 354 520 q 324 495 322 506 q 326 473 326 484 l 326 92 l 422 45 l 412 0 l 33 0 l 43 53 l 135 98 l 135 522 l 37 581 m 526 992 l 612 992 l 635 871 l 350 711 l 332 810 l 526 992 z "},"ň":{"ha":878,"x_min":33,"x_max":869,"o":"m 37 581 l 43 614 l 273 654 l 309 545 q 568 661 454 661 q 706 607 650 661 q 762 420 762 553 l 762 92 l 869 47 l 858 0 l 501 0 l 511 51 l 570 97 l 570 374 q 559 476 570 436 q 531 531 547 517 q 506 540 520 540 q 413 530 471 540 q 321 509 354 520 q 324 495 322 506 q 326 473 326 484 l 326 92 l 422 45 l 412 0 l 33 0 l 43 53 l 135 98 l 135 522 l 37 581 m 623 956 l 699 920 l 517 736 l 399 736 l 217 920 l 292 956 l 458 854 l 623 956 z "},"ņ":{"ha":878,"x_min":33,"x_max":869,"o":"m 37 581 l 43 614 l 273 654 l 309 545 q 568 661 454 661 q 706 607 650 661 q 762 420 762 553 l 762 92 l 869 47 l 858 0 l 501 0 l 511 51 l 570 97 l 570 374 q 559 476 570 436 q 531 531 547 517 q 506 540 520 540 q 413 530 471 540 q 321 509 354 520 q 324 495 322 506 q 326 473 326 484 l 326 92 l 422 45 l 412 0 l 33 0 l 43 53 l 135 98 l 135 522 l 37 581 m 382 -69 q 452 -80 418 -69 q 511 -113 486 -92 q 553 -201 553 -149 q 520 -286 553 -250 q 444 -339 488 -321 q 367 -358 400 -358 l 350 -311 q 422 -257 404 -275 q 441 -222 441 -239 q 357 -172 441 -191 l 382 -69 z "},"ñ":{"ha":878,"x_min":33,"x_max":869,"o":"m 37 581 l 43 614 l 273 654 l 309 545 q 568 661 454 661 q 706 607 650 661 q 762 420 762 553 l 762 92 l 869 47 l 858 0 l 501 0 l 511 51 l 570 97 l 570 374 q 559 476 570 436 q 531 531 547 517 q 506 540 520 540 q 413 530 471 540 q 321 509 354 520 q 324 495 322 506 q 326 473 326 484 l 326 92 l 422 45 l 412 0 l 33 0 l 43 53 l 135 98 l 135 522 l 37 581 m 210 866 q 295 943 258 916 q 373 970 332 970 q 433 955 406 970 q 495 913 461 940 q 528 889 517 896 q 549 882 539 882 q 613 902 571 882 q 688 949 654 922 l 705 851 q 650 798 673 818 q 600 763 627 777 q 543 749 572 749 q 483 763 510 749 q 421 805 456 778 q 388 829 400 821 q 366 836 376 836 q 301 816 344 836 q 227 768 259 796 l 210 866 z "},"o":{"ha":743,"x_min":40,"x_max":703,"o":"m 40 307 q 83 481 40 399 q 202 612 125 562 q 374 661 278 661 q 542 626 467 661 q 660 518 616 591 q 703 336 703 445 q 660 163 703 244 q 541 32 617 81 q 372 -17 465 -17 q 202 18 277 -17 q 84 125 127 53 q 40 307 40 198 m 417 79 q 460 85 441 79 q 488 102 479 92 q 508 165 501 119 q 515 256 515 210 q 491 420 515 350 q 423 528 467 490 q 324 566 380 566 q 255 542 275 566 q 236 479 243 524 q 228 387 228 434 q 250 230 228 300 q 315 119 273 160 q 417 79 358 79 z "},"ó":{"ha":743,"x_min":40,"x_max":703,"o":"m 40 307 q 83 481 40 399 q 202 612 125 562 q 374 661 278 661 q 542 626 467 661 q 660 518 616 591 q 703 336 703 445 q 660 163 703 244 q 541 32 617 81 q 372 -17 465 -17 q 202 18 277 -17 q 84 125 127 53 q 40 307 40 198 m 417 79 q 460 85 441 79 q 488 102 479 92 q 508 165 501 119 q 515 256 515 210 q 491 420 515 350 q 423 528 467 490 q 324 566 380 566 q 255 542 275 566 q 236 479 243 524 q 228 387 228 434 q 250 230 228 300 q 315 119 273 160 q 417 79 358 79 m 441 992 l 526 992 l 550 871 l 264 711 l 246 810 l 441 992 z "},"ô":{"ha":743,"x_min":40,"x_max":703,"o":"m 40 307 q 83 481 40 399 q 202 612 125 562 q 374 661 278 661 q 542 626 467 661 q 660 518 616 591 q 703 336 703 445 q 660 163 703 244 q 541 32 617 81 q 372 -17 465 -17 q 202 18 277 -17 q 84 125 127 53 q 40 307 40 198 m 417 79 q 460 85 441 79 q 488 102 479 92 q 508 165 501 119 q 515 256 515 210 q 491 420 515 350 q 423 528 467 490 q 324 566 380 566 q 255 542 275 566 q 236 479 243 524 q 228 387 228 434 q 250 230 228 300 q 315 119 273 160 q 417 79 358 79 m 209 733 l 132 770 l 317 953 l 427 953 l 613 770 l 536 732 l 372 827 l 209 733 z "},"ö":{"ha":743,"x_min":40,"x_max":703,"o":"m 40 307 q 83 481 40 399 q 202 612 125 562 q 374 661 278 661 q 542 626 467 661 q 660 518 616 591 q 703 336 703 445 q 660 163 703 244 q 541 32 617 81 q 372 -17 465 -17 q 202 18 277 -17 q 84 125 127 53 q 40 307 40 198 m 417 79 q 460 85 441 79 q 488 102 479 92 q 508 165 501 119 q 515 256 515 210 q 491 420 515 350 q 423 528 467 490 q 324 566 380 566 q 255 542 275 566 q 236 479 243 524 q 228 387 228 434 q 250 230 228 300 q 315 119 273 160 q 417 79 358 79 m 112 847 q 127 896 109 863 q 169 954 144 928 q 209 980 193 980 q 252 963 224 980 q 302 924 279 946 q 328 887 324 901 q 315 839 330 871 q 277 781 299 806 q 239 755 254 755 q 193 771 223 755 q 139 810 163 788 q 112 847 115 832 m 416 847 q 430 896 414 864 q 468 954 446 928 q 505 980 490 980 q 551 963 522 980 q 604 924 580 947 q 632 887 629 902 q 617 839 635 871 q 576 781 600 806 q 534 755 551 755 q 492 771 519 755 q 442 810 465 788 q 416 847 420 833 z "},"ò":{"ha":743,"x_min":40,"x_max":703,"o":"m 40 307 q 83 481 40 399 q 202 612 125 562 q 374 661 278 661 q 542 626 467 661 q 660 518 616 591 q 703 336 703 445 q 660 163 703 244 q 541 32 617 81 q 372 -17 465 -17 q 202 18 277 -17 q 84 125 127 53 q 40 307 40 198 m 417 79 q 460 85 441 79 q 488 102 479 92 q 508 165 501 119 q 515 256 515 210 q 491 420 515 350 q 423 528 467 490 q 324 566 380 566 q 255 542 275 566 q 236 479 243 524 q 228 387 228 434 q 250 230 228 300 q 315 119 273 160 q 417 79 358 79 m 207 872 l 230 992 l 317 992 l 511 810 l 494 711 l 207 872 z "},"ő":{"ha":743,"x_min":40,"x_max":703,"o":"m 40 307 q 83 481 40 399 q 202 612 125 562 q 374 661 278 661 q 542 626 467 661 q 660 518 616 591 q 703 336 703 445 q 660 163 703 244 q 541 32 617 81 q 372 -17 465 -17 q 202 18 277 -17 q 84 125 127 53 q 40 307 40 198 m 417 79 q 460 85 441 79 q 488 102 479 92 q 508 165 501 119 q 515 256 515 210 q 491 420 515 350 q 423 528 467 490 q 324 566 380 566 q 255 542 275 566 q 236 479 243 524 q 228 387 228 434 q 250 230 228 300 q 315 119 273 160 q 417 79 358 79 m 288 1000 l 389 1000 l 399 918 l 217 710 l 193 829 l 288 1000 m 507 1000 l 609 1000 l 619 918 l 436 710 l 412 831 l 507 1000 z "},"ō":{"ha":743,"x_min":40,"x_max":703,"o":"m 40 307 q 83 481 40 399 q 202 612 125 562 q 374 661 278 661 q 542 626 467 661 q 660 518 616 591 q 703 336 703 445 q 660 163 703 244 q 541 32 617 81 q 372 -17 465 -17 q 202 18 277 -17 q 84 125 127 53 q 40 307 40 198 m 417 79 q 460 85 441 79 q 488 102 479 92 q 508 165 501 119 q 515 256 515 210 q 491 420 515 350 q 423 528 467 490 q 324 566 380 566 q 255 542 275 566 q 236 479 243 524 q 228 387 228 434 q 250 230 228 300 q 315 119 273 160 q 417 79 358 79 m 190 892 l 578 892 l 556 779 q 203 770 390 770 l 166 770 l 190 892 z "},"ø":{"ha":752,"x_min":40,"x_max":712,"o":"m 554 623 q 670 514 628 585 q 712 340 712 443 q 668 164 712 246 q 548 33 624 82 q 382 -16 472 -16 q 300 -9 337 -16 l 262 -110 l 144 -79 l 189 28 q 79 138 118 67 q 40 309 40 208 q 83 482 40 401 q 203 612 126 563 q 378 661 281 661 q 442 657 412 661 l 477 745 l 590 709 l 554 623 m 226 383 q 252 181 226 248 l 331 372 l 404 560 q 323 572 370 572 q 286 567 301 572 q 262 552 271 561 q 236 483 247 532 q 226 383 226 434 m 492 98 q 518 170 509 118 q 527 267 527 222 q 494 477 527 406 l 404 257 l 338 89 q 426 76 374 76 q 465 81 448 76 q 492 98 481 85 z "},"õ":{"ha":743,"x_min":40,"x_max":703,"o":"m 40 307 q 83 481 40 399 q 202 612 125 562 q 374 661 278 661 q 542 626 467 661 q 660 518 616 591 q 703 336 703 445 q 660 163 703 244 q 541 32 617 81 q 372 -17 465 -17 q 202 18 277 -17 q 84 125 127 53 q 40 307 40 198 m 417 79 q 460 85 441 79 q 488 102 479 92 q 508 165 501 119 q 515 256 515 210 q 491 420 515 350 q 423 528 467 490 q 324 566 380 566 q 255 542 275 566 q 236 479 243 524 q 228 387 228 434 q 250 230 228 300 q 315 119 273 160 q 417 79 358 79 m 124 866 q 209 943 172 916 q 287 970 245 970 q 347 955 319 970 q 409 913 375 940 q 442 889 431 896 q 463 882 453 882 q 527 902 485 882 q 602 949 568 922 l 619 851 q 564 798 587 818 q 513 763 541 777 q 456 749 486 749 q 397 763 424 749 q 335 805 370 778 q 302 829 314 821 q 280 836 290 836 q 215 816 258 836 q 141 768 173 796 l 124 866 z "},"œ":{"ha":1099,"x_min":41,"x_max":1061,"o":"m 846 89 q 916 96 878 89 q 987 111 955 102 q 1029 124 1020 120 l 1044 103 q 986 47 1022 75 q 905 0 950 19 q 814 -18 861 -18 q 680 5 743 -18 q 572 72 618 27 q 477 6 530 29 q 366 -18 424 -18 q 199 16 273 -18 q 83 120 126 50 q 41 295 41 190 q 82 474 41 389 q 199 609 124 558 q 369 661 275 661 q 497 639 438 661 q 599 576 557 618 q 702 638 644 616 q 827 660 760 660 q 952 631 899 660 q 1034 552 1006 602 q 1061 444 1061 503 q 1038 354 1061 399 q 1022 336 1031 342 q 993 330 1012 330 l 669 331 q 699 216 673 272 q 765 124 726 159 q 846 89 804 89 m 709 566 q 683 496 695 545 q 669 382 671 448 l 878 410 q 861 503 878 465 q 815 562 844 542 q 751 581 787 581 q 709 566 719 581 m 465 95 q 490 168 481 115 q 500 263 500 221 q 477 428 500 357 q 416 536 455 498 q 327 574 376 574 q 289 569 303 574 q 264 553 274 564 q 238 482 248 533 q 227 382 227 431 q 245 235 227 306 q 301 117 264 163 q 395 71 339 71 q 436 76 419 71 q 465 95 453 81 z "},"p":{"ha":802,"x_min":16,"x_max":755,"o":"m 490 -275 l 479 -322 l 16 -322 l 26 -269 l 117 -224 l 117 522 l 20 581 l 26 614 l 256 651 l 298 561 q 413 633 358 606 q 525 661 467 661 q 648 622 596 661 q 727 512 700 584 q 755 340 755 439 q 719 164 755 247 q 620 33 683 81 q 553 -3 589 10 q 476 -17 516 -17 q 380 0 425 -17 q 309 53 335 18 l 309 -231 l 490 -275 m 307 517 q 309 470 309 502 l 309 127 q 382 99 340 108 q 468 91 425 91 q 508 96 493 91 q 532 117 523 101 q 556 183 547 139 q 566 279 566 228 q 549 413 566 352 q 496 516 531 474 q 472 538 485 532 q 444 544 460 544 q 377 536 420 544 q 307 517 334 528 z "},"þ":{"ha":789,"x_min":-1,"x_max":743,"o":"m 466 -269 l 456 -322 l -1 -322 l 9 -262 l 107 -231 l 107 865 l 9 926 l 16 958 l 298 998 l 298 564 q 410 635 359 609 q 514 661 460 661 q 636 622 585 661 q 715 508 688 582 q 743 335 743 434 q 707 162 743 242 q 609 33 672 81 q 542 -3 578 10 q 465 -17 505 -17 q 369 1 414 -17 q 298 55 325 19 l 298 -237 l 466 -269 m 298 128 q 376 101 327 110 q 471 93 425 93 q 496 97 485 93 q 513 107 507 101 q 532 141 523 115 q 548 206 542 168 q 554 289 554 245 q 534 432 554 368 q 482 525 513 496 q 433 544 463 544 q 366 536 404 544 q 298 516 329 529 l 298 128 z "},"q":{"ha":795,"x_min":44,"x_max":795,"o":"m 498 66 q 416 8 465 33 q 305 -17 366 -17 q 177 16 236 -17 q 81 122 117 50 q 44 305 44 194 q 72 459 44 385 q 151 583 99 532 q 234 640 186 620 q 335 661 282 661 q 526 572 450 661 l 720 654 l 747 611 l 689 500 l 689 -229 l 795 -275 l 785 -322 l 324 -322 l 336 -270 l 498 -227 l 498 66 m 498 498 q 429 537 471 522 q 343 553 387 553 q 293 546 311 553 q 264 518 275 539 q 237 361 237 465 q 313 130 237 212 q 343 104 326 114 q 378 94 361 94 q 441 101 407 94 q 498 117 476 107 l 498 498 z "},"r":{"ha":624,"x_min":32,"x_max":619,"o":"m 38 581 l 43 614 l 273 651 l 315 532 q 396 630 355 601 q 488 660 437 660 q 526 653 505 660 q 566 634 547 646 q 604 601 589 620 q 619 566 619 583 q 598 518 619 547 q 548 467 576 489 q 502 445 520 445 q 468 455 488 445 q 437 475 449 465 l 424 545 q 373 520 402 537 q 326 488 344 503 l 326 91 l 509 47 l 498 0 l 32 0 l 43 53 l 135 98 l 135 522 l 38 581 z "},"ŕ":{"ha":624,"x_min":32,"x_max":619,"o":"m 38 581 l 43 614 l 273 651 l 315 532 q 396 630 355 601 q 488 660 437 660 q 526 653 505 660 q 566 634 547 646 q 604 601 589 620 q 619 566 619 583 q 598 518 619 547 q 548 467 576 489 q 502 445 520 445 q 468 455 488 445 q 437 475 449 465 l 424 545 q 373 520 402 537 q 326 488 344 503 l 326 91 l 509 47 l 498 0 l 32 0 l 43 53 l 135 98 l 135 522 l 38 581 m 387 992 l 472 992 l 496 871 l 210 711 l 192 810 l 387 992 z "},"ř":{"ha":624,"x_min":32,"x_max":619,"o":"m 38 581 l 43 614 l 273 651 l 315 532 q 396 630 355 601 q 488 660 437 660 q 526 653 505 660 q 566 634 547 646 q 604 601 589 620 q 619 566 619 583 q 598 518 619 547 q 548 467 576 489 q 502 445 520 445 q 468 455 488 445 q 437 475 449 465 l 424 545 q 373 520 402 537 q 326 488 344 503 l 326 91 l 509 47 l 498 0 l 32 0 l 43 53 l 135 98 l 135 522 l 38 581 m 484 956 l 559 920 l 377 736 l 259 736 l 77 920 l 153 956 l 318 854 l 484 956 z "},"ŗ":{"ha":624,"x_min":32,"x_max":619,"o":"m 38 581 l 43 614 l 273 651 l 315 532 q 396 630 355 601 q 488 660 437 660 q 526 653 505 660 q 566 634 547 646 q 604 601 589 620 q 619 566 619 583 q 598 518 619 547 q 548 467 576 489 q 502 445 520 445 q 468 455 488 445 q 437 475 449 465 l 424 545 q 373 520 402 537 q 326 488 344 503 l 326 91 l 509 47 l 498 0 l 32 0 l 43 53 l 135 98 l 135 522 l 38 581 m 163 -69 q 234 -80 200 -69 q 293 -113 268 -92 q 334 -201 334 -149 q 302 -286 334 -250 q 226 -339 270 -321 q 149 -358 182 -358 l 132 -311 q 204 -257 186 -275 q 222 -222 222 -239 q 139 -172 222 -191 l 163 -69 z "},"s":{"ha":624,"x_min":37,"x_max":581,"o":"m 380 600 q 302 573 345 594 q 235 529 259 553 q 223 512 227 520 q 220 491 220 503 q 235 458 220 473 q 282 427 250 442 q 368 393 302 418 q 445 365 416 376 q 497 339 473 353 q 558 281 535 316 q 581 199 581 246 q 538 75 581 123 q 427 5 495 26 q 281 -17 359 -17 q 148 -1 205 -17 q 37 45 90 14 l 73 219 l 151 203 l 184 62 q 293 77 232 62 q 385 114 354 92 q 404 150 404 127 q 392 179 404 166 q 351 205 379 192 q 287 233 334 214 q 220 260 248 248 q 168 286 193 272 q 89 356 118 315 q 59 460 59 398 q 100 573 59 528 q 205 640 140 618 q 343 661 271 661 q 502 633 441 661 q 572 565 572 595 q 552 515 572 543 q 506 467 532 488 q 465 447 479 447 q 432 459 451 447 q 402 486 413 472 l 380 600 z "},"ś":{"ha":624,"x_min":37,"x_max":581,"o":"m 380 600 q 302 573 345 594 q 235 529 259 553 q 223 512 227 520 q 220 491 220 503 q 235 458 220 473 q 282 427 250 442 q 368 393 302 418 q 445 365 416 376 q 497 339 473 353 q 558 281 535 316 q 581 199 581 246 q 538 75 581 123 q 427 5 495 26 q 281 -17 359 -17 q 148 -1 205 -17 q 37 45 90 14 l 73 219 l 151 203 l 184 62 q 293 77 232 62 q 385 114 354 92 q 404 150 404 127 q 392 179 404 166 q 351 205 379 192 q 287 233 334 214 q 220 260 248 248 q 168 286 193 272 q 89 356 118 315 q 59 460 59 398 q 100 573 59 528 q 205 640 140 618 q 343 661 271 661 q 502 633 441 661 q 572 565 572 595 q 552 515 572 543 q 506 467 532 488 q 465 447 479 447 q 432 459 451 447 q 402 486 413 472 l 380 600 m 390 992 l 475 992 l 499 871 l 214 711 l 195 810 l 390 992 z "},"š":{"ha":624,"x_min":37,"x_max":581,"o":"m 380 600 q 302 573 345 594 q 235 529 259 553 q 223 512 227 520 q 220 491 220 503 q 235 458 220 473 q 282 427 250 442 q 368 393 302 418 q 445 365 416 376 q 497 339 473 353 q 558 281 535 316 q 581 199 581 246 q 538 75 581 123 q 427 5 495 26 q 281 -17 359 -17 q 148 -1 205 -17 q 37 45 90 14 l 73 219 l 151 203 l 184 62 q 293 77 232 62 q 385 114 354 92 q 404 150 404 127 q 392 179 404 166 q 351 205 379 192 q 287 233 334 214 q 220 260 248 248 q 168 286 193 272 q 89 356 118 315 q 59 460 59 398 q 100 573 59 528 q 205 640 140 618 q 343 661 271 661 q 502 633 441 661 q 572 565 572 595 q 552 515 572 543 q 506 467 532 488 q 465 447 479 447 q 432 459 451 447 q 402 486 413 472 l 380 600 m 487 956 l 562 920 l 380 736 l 262 736 l 81 920 l 156 956 l 321 854 l 487 956 z "},"ş":{"ha":624,"x_min":37,"x_max":581,"o":"m 581 199 q 514 51 581 103 q 345 -14 448 -1 l 326 -57 q 425 -98 393 -69 q 457 -178 457 -127 q 415 -264 457 -230 q 312 -315 372 -299 q 199 -332 252 -332 l 182 -282 q 302 -226 273 -250 q 332 -183 332 -202 q 299 -146 332 -161 q 204 -121 266 -132 q 222 -73 205 -102 q 260 -17 239 -43 q 139 1 193 -14 q 37 45 85 16 l 73 219 l 151 203 l 184 62 q 293 77 232 62 q 385 114 354 92 q 404 150 404 127 q 392 179 404 166 q 351 205 379 192 q 287 233 334 214 q 220 260 248 248 q 168 286 193 272 q 89 356 118 315 q 59 460 59 398 q 100 573 59 528 q 205 640 140 618 q 343 661 271 661 q 502 633 441 661 q 572 565 572 595 q 552 515 572 543 q 506 467 532 488 q 465 447 479 447 q 432 459 451 447 q 402 486 413 472 l 380 600 q 302 573 345 594 q 235 529 259 553 q 223 512 227 520 q 220 491 220 503 q 235 458 220 473 q 282 427 250 442 q 368 393 302 418 q 445 365 416 376 q 497 339 473 353 q 558 281 535 316 q 581 199 581 246 z "},"ș":{"ha":624,"x_min":37,"x_max":581,"o":"m 380 600 q 302 573 345 594 q 235 529 259 553 q 223 512 227 520 q 220 491 220 503 q 235 458 220 473 q 282 427 250 442 q 368 393 302 418 q 445 365 416 376 q 497 339 473 353 q 558 281 535 316 q 581 199 581 246 q 538 75 581 123 q 427 5 495 26 q 281 -17 359 -17 q 148 -1 205 -17 q 37 45 90 14 l 73 219 l 151 203 l 184 62 q 293 77 232 62 q 385 114 354 92 q 404 150 404 127 q 392 179 404 166 q 351 205 379 192 q 287 233 334 214 q 220 260 248 248 q 168 286 193 272 q 89 356 118 315 q 59 460 59 398 q 100 573 59 528 q 205 640 140 618 q 343 661 271 661 q 502 633 441 661 q 572 565 572 595 q 552 515 572 543 q 506 467 532 488 q 465 447 479 447 q 432 459 451 447 q 402 486 413 472 l 380 600 m 231 -69 q 302 -80 268 -69 q 361 -113 336 -92 q 402 -201 402 -149 q 370 -286 402 -250 q 294 -339 338 -321 q 216 -358 250 -358 l 199 -311 q 272 -257 254 -275 q 290 -222 290 -239 q 207 -172 290 -191 l 231 -69 z "},"ß":{"ha":930,"x_min":33,"x_max":911,"o":"m 139 98 l 139 538 l 33 585 l 45 644 l 139 644 l 139 669 q 159 799 139 738 q 214 900 179 859 q 509 1002 298 1002 q 665 978 597 1002 q 772 907 734 954 q 811 800 811 861 q 797 734 811 762 q 761 687 782 706 q 706 642 741 667 q 660 606 677 621 q 631 571 642 591 q 619 525 619 551 q 631 485 619 503 q 668 448 643 467 q 744 397 693 429 q 835 333 800 363 q 891 265 871 303 q 911 176 911 227 q 844 31 911 80 q 667 -18 777 -18 q 536 -3 595 -18 q 424 47 477 12 l 456 218 l 534 205 l 567 64 q 660 77 614 64 q 721 102 706 90 q 739 145 739 117 q 726 192 739 171 q 688 230 712 212 q 613 281 664 248 q 524 346 554 321 q 474 409 494 371 q 454 500 454 446 q 476 586 454 548 q 530 649 499 623 q 602 703 560 674 q 642 731 633 723 q 652 773 652 742 q 626 856 652 822 q 555 906 599 890 q 460 923 511 923 q 399 917 423 923 q 367 901 376 910 q 337 837 345 875 q 330 724 330 800 l 330 85 l 347 0 l 36 0 l 47 54 l 139 98 z "},"t":{"ha":545,"x_min":8,"x_max":549,"o":"m 20 644 l 119 644 l 146 786 l 310 854 l 310 644 l 521 644 l 510 585 l 310 538 l 310 249 q 322 156 310 198 q 357 98 334 114 q 389 89 368 89 q 467 97 413 89 q 539 110 520 106 l 549 84 q 448 13 509 43 q 322 -17 387 -17 q 174 40 229 -17 q 119 214 119 96 l 119 538 l 8 584 l 20 644 z "},"ť":{"ha":536,"x_min":8,"x_max":572,"o":"m 376 736 q 436 906 420 839 l 366 937 l 379 1022 l 553 1046 q 572 972 572 1018 q 537 848 572 916 q 444 717 502 781 l 376 736 m 20 644 l 119 644 l 146 786 l 310 854 l 310 644 l 521 644 l 510 585 l 310 538 l 310 249 q 322 156 310 198 q 357 98 334 114 q 389 89 368 89 q 467 97 413 89 q 539 110 520 106 l 549 84 q 448 13 509 43 q 322 -17 387 -17 q 174 40 229 -17 q 119 214 119 96 l 119 538 l 8 584 l 20 644 z "},"ț":{"ha":545,"x_min":8,"x_max":549,"o":"m 20 644 l 119 644 l 146 786 l 310 854 l 310 644 l 521 644 l 510 585 l 310 538 l 310 249 q 322 156 310 198 q 357 98 334 114 q 389 89 368 89 q 467 97 413 89 q 539 110 520 106 l 549 84 q 448 13 509 43 q 322 -17 387 -17 q 174 40 229 -17 q 119 214 119 96 l 119 538 l 8 584 l 20 644 m 235 -69 q 306 -80 272 -69 q 365 -113 340 -92 q 406 -201 406 -149 q 374 -286 406 -250 q 298 -339 342 -321 q 220 -358 254 -358 l 203 -311 q 276 -257 258 -275 q 294 -222 294 -239 q 211 -172 294 -191 l 235 -69 z "},"u":{"ha":853,"x_min":14,"x_max":840,"o":"m 14 587 l 26 644 l 307 644 l 307 263 q 317 159 307 193 q 345 108 327 125 q 360 98 353 101 q 379 95 368 95 q 459 101 415 95 q 532 117 503 107 l 532 528 l 434 586 l 445 644 l 723 644 l 723 133 q 775 87 738 106 q 840 64 812 69 l 830 22 q 751 -4 802 9 q 652 -17 701 -17 q 613 41 642 5 q 557 92 585 77 q 454 14 513 45 q 333 -17 396 -17 q 116 225 116 -17 l 116 528 l 14 587 z "},"ú":{"ha":853,"x_min":14,"x_max":840,"o":"m 14 587 l 26 644 l 307 644 l 307 263 q 317 159 307 193 q 345 108 327 125 q 360 98 353 101 q 379 95 368 95 q 459 101 415 95 q 532 117 503 107 l 532 528 l 434 586 l 445 644 l 723 644 l 723 133 q 775 87 738 106 q 840 64 812 69 l 830 22 q 751 -4 802 9 q 652 -17 701 -17 q 613 41 642 5 q 557 92 585 77 q 454 14 513 45 q 333 -17 396 -17 q 116 225 116 -17 l 116 528 l 14 587 m 473 992 l 558 992 l 582 871 l 296 711 l 278 810 l 473 992 z "},"û":{"ha":853,"x_min":14,"x_max":840,"o":"m 14 587 l 26 644 l 307 644 l 307 263 q 317 159 307 193 q 345 108 327 125 q 360 98 353 101 q 379 95 368 95 q 459 101 415 95 q 532 117 503 107 l 532 528 l 434 586 l 445 644 l 723 644 l 723 133 q 775 87 738 106 q 840 64 812 69 l 830 22 q 751 -4 802 9 q 652 -17 701 -17 q 613 41 642 5 q 557 92 585 77 q 454 14 513 45 q 333 -17 396 -17 q 116 225 116 -17 l 116 528 l 14 587 m 240 733 l 163 770 l 349 953 l 458 953 l 644 770 l 567 732 l 404 827 l 240 733 z "},"ü":{"ha":853,"x_min":14,"x_max":840,"o":"m 14 587 l 26 644 l 307 644 l 307 263 q 317 159 307 193 q 345 108 327 125 q 360 98 353 101 q 379 95 368 95 q 459 101 415 95 q 532 117 503 107 l 532 528 l 434 586 l 445 644 l 723 644 l 723 133 q 775 87 738 106 q 840 64 812 69 l 830 22 q 751 -4 802 9 q 652 -17 701 -17 q 613 41 642 5 q 557 92 585 77 q 454 14 513 45 q 333 -17 396 -17 q 116 225 116 -17 l 116 528 l 14 587 m 143 847 q 158 896 140 863 q 200 954 176 928 q 240 980 224 980 q 283 963 256 980 q 333 924 311 946 q 359 887 355 901 q 346 839 361 871 q 308 781 330 806 q 270 755 286 755 q 224 771 254 755 q 170 810 195 788 q 143 847 146 832 m 448 847 q 461 896 445 864 q 499 954 477 928 q 536 980 522 980 q 582 963 553 980 q 635 924 611 947 q 663 887 660 902 q 649 839 666 871 q 607 781 631 806 q 566 755 583 755 q 523 771 550 755 q 473 810 496 788 q 448 847 451 833 z "},"ù":{"ha":853,"x_min":14,"x_max":840,"o":"m 14 587 l 26 644 l 307 644 l 307 263 q 317 159 307 193 q 345 108 327 125 q 360 98 353 101 q 379 95 368 95 q 459 101 415 95 q 532 117 503 107 l 532 528 l 434 586 l 445 644 l 723 644 l 723 133 q 775 87 738 106 q 840 64 812 69 l 830 22 q 751 -4 802 9 q 652 -17 701 -17 q 613 41 642 5 q 557 92 585 77 q 454 14 513 45 q 333 -17 396 -17 q 116 225 116 -17 l 116 528 l 14 587 m 239 872 l 262 992 l 349 992 l 543 810 l 526 711 l 239 872 z "},"ű":{"ha":853,"x_min":14,"x_max":840,"o":"m 14 587 l 26 644 l 307 644 l 307 263 q 317 159 307 193 q 345 108 327 125 q 360 98 353 101 q 379 95 368 95 q 459 101 415 95 q 532 117 503 107 l 532 528 l 434 586 l 445 644 l 723 644 l 723 133 q 775 87 738 106 q 840 64 812 69 l 830 22 q 751 -4 802 9 q 652 -17 701 -17 q 613 41 642 5 q 557 92 585 77 q 454 14 513 45 q 333 -17 396 -17 q 116 225 116 -17 l 116 528 l 14 587 m 319 1000 l 420 1000 l 431 918 l 249 710 l 224 829 l 319 1000 m 539 1000 l 641 1000 l 651 918 l 468 710 l 444 831 l 539 1000 z "},"ū":{"ha":853,"x_min":14,"x_max":840,"o":"m 14 587 l 26 644 l 307 644 l 307 263 q 317 159 307 193 q 345 108 327 125 q 360 98 353 101 q 379 95 368 95 q 459 101 415 95 q 532 117 503 107 l 532 528 l 434 586 l 445 644 l 723 644 l 723 133 q 775 87 738 106 q 840 64 812 69 l 830 22 q 751 -4 802 9 q 652 -17 701 -17 q 613 41 642 5 q 557 92 585 77 q 454 14 513 45 q 333 -17 396 -17 q 116 225 116 -17 l 116 528 l 14 587 m 222 892 l 610 892 l 588 779 q 235 770 422 770 l 198 770 l 222 892 z "},"ų":{"ha":853,"x_min":15,"x_max":840,"o":"m 433 585 l 444 644 l 723 644 l 723 135 q 769 92 736 109 q 840 64 802 74 l 830 22 q 714 -19 763 1 q 630 -74 666 -40 q 593 -156 593 -109 q 607 -203 593 -180 q 642 -236 621 -227 q 665 -241 652 -241 q 718 -232 686 -241 q 779 -210 749 -223 l 797 -239 q 707 -310 755 -285 q 605 -334 658 -334 q 525 -319 562 -334 q 465 -271 488 -303 q 442 -191 442 -238 q 499 -75 442 -125 q 640 3 555 -24 q 597 58 614 38 q 557 92 580 79 q 454 14 513 45 q 333 -17 396 -17 q 116 225 116 -17 l 116 528 l 15 587 l 26 644 l 307 644 l 307 263 q 317 159 307 193 q 345 108 327 125 q 360 98 353 101 q 379 95 368 95 q 459 101 415 95 q 532 117 503 107 l 532 529 l 433 585 z "},"ů":{"ha":853,"x_min":14,"x_max":840,"o":"m 14 587 l 26 644 l 307 644 l 307 263 q 317 159 307 193 q 345 108 327 125 q 360 98 353 101 q 379 95 368 95 q 459 101 415 95 q 532 117 503 107 l 532 528 l 434 586 l 445 644 l 723 644 l 723 133 q 775 87 738 106 q 840 64 812 69 l 830 22 q 751 -4 802 9 q 652 -17 701 -17 q 613 41 642 5 q 557 92 585 77 q 454 14 513 45 q 333 -17 396 -17 q 116 225 116 -17 l 116 528 l 14 587 m 401 710 q 326 728 359 710 q 272 777 292 745 q 252 852 252 809 q 272 929 252 893 q 327 986 291 964 q 408 1007 362 1007 q 481 989 448 1007 q 535 939 515 971 q 555 864 555 906 q 535 787 555 822 q 480 731 515 751 q 401 710 445 710 m 409 795 q 447 811 433 795 q 462 852 462 828 q 443 903 462 881 q 396 924 425 924 q 358 907 373 924 q 343 865 343 889 q 361 816 343 837 q 409 795 379 795 z "},"v":{"ha":752,"x_min":-20,"x_max":770,"o":"m 770 644 l 761 597 l 680 556 l 456 0 l 302 -16 l 77 557 l -20 598 l -12 644 l 357 644 l 346 595 l 278 560 l 431 148 l 570 559 l 490 599 l 498 644 l 770 644 z "},"w":{"ha":1089,"x_min":-15,"x_max":1096,"o":"m 1096 644 l 1086 598 l 1004 557 l 842 0 l 674 -17 l 538 358 l 422 0 l 260 -17 l 83 557 l -15 599 l -7 644 l 360 644 l 351 595 l 277 559 l 386 140 l 536 644 l 618 644 l 806 140 l 907 559 l 800 597 l 808 644 l 1096 644 z "},"x":{"ha":823,"x_min":17,"x_max":812,"o":"m 812 47 l 804 0 l 410 0 l 420 52 l 486 81 l 364 240 l 246 81 l 320 45 l 311 0 l 17 0 l 27 52 l 119 87 l 309 312 l 113 563 l 17 596 l 26 644 l 415 644 l 406 593 l 342 564 l 458 402 l 578 563 l 502 599 l 511 644 l 800 644 l 789 591 l 707 559 l 513 328 l 715 82 l 812 47 z "},"y":{"ha":770,"x_min":-21,"x_max":783,"o":"m 783 644 l 774 595 l 693 557 l 522 110 q 428 -118 468 -31 q 348 -258 388 -205 q 261 -328 307 -311 q 193 -339 231 -339 q 107 -326 152 -339 q 34 -289 63 -312 q 5 -239 5 -266 q 26 -193 5 -221 q 75 -142 47 -164 q 121 -120 103 -120 q 158 -132 136 -120 q 193 -159 180 -144 l 218 -283 q 261 -232 232 -275 q 323 -128 290 -189 q 380 -11 355 -67 l 303 -20 l 75 557 l -21 597 l -13 644 l 359 644 l 349 595 l 277 560 l 430 140 l 566 559 l 487 600 l 495 644 l 783 644 z "},"ý":{"ha":770,"x_min":-21,"x_max":783,"o":"m 783 644 l 774 595 l 693 557 l 522 110 q 428 -118 468 -31 q 348 -258 388 -205 q 261 -328 307 -311 q 193 -339 231 -339 q 107 -326 152 -339 q 34 -289 63 -312 q 5 -239 5 -266 q 26 -193 5 -221 q 75 -142 47 -164 q 121 -120 103 -120 q 158 -132 136 -120 q 193 -159 180 -144 l 218 -283 q 261 -232 232 -275 q 323 -128 290 -189 q 380 -11 355 -67 l 303 -20 l 75 557 l -21 597 l -13 644 l 359 644 l 349 595 l 277 560 l 430 140 l 566 559 l 487 600 l 495 644 l 783 644 m 467 992 l 553 992 l 576 871 l 291 711 l 273 810 l 467 992 z "},"ÿ":{"ha":770,"x_min":-21,"x_max":783,"o":"m 783 644 l 774 595 l 693 557 l 522 110 q 428 -118 468 -31 q 348 -258 388 -205 q 261 -328 307 -311 q 193 -339 231 -339 q 107 -326 152 -339 q 34 -289 63 -312 q 5 -239 5 -266 q 26 -193 5 -221 q 75 -142 47 -164 q 121 -120 103 -120 q 158 -132 136 -120 q 193 -159 180 -144 l 218 -283 q 261 -232 232 -275 q 323 -128 290 -189 q 380 -11 355 -67 l 303 -20 l 75 557 l -21 597 l -13 644 l 359 644 l 349 595 l 277 560 l 430 140 l 566 559 l 487 600 l 495 644 l 783 644 m 138 847 q 153 896 136 863 q 195 954 171 928 q 235 980 220 980 q 278 963 251 980 q 328 924 306 946 q 354 887 351 901 q 341 839 357 871 q 303 781 326 806 q 265 755 281 755 q 220 771 250 755 q 165 810 190 788 q 138 847 141 832 m 443 847 q 456 896 440 864 q 494 954 472 928 q 532 980 517 980 q 577 963 548 980 q 631 924 606 947 q 659 887 655 902 q 644 839 661 871 q 602 781 627 806 q 561 755 578 755 q 518 771 545 755 q 469 810 491 788 q 443 847 446 833 z "},"z":{"ha":675,"x_min":31,"x_max":632,"o":"m 539 208 l 614 213 l 616 0 l 68 0 l 31 74 l 431 581 l 197 563 l 143 446 l 66 439 l 66 644 l 600 644 l 632 562 l 252 64 l 487 87 l 539 208 z "},"ź":{"ha":675,"x_min":31,"x_max":632,"o":"m 539 208 l 614 213 l 616 0 l 68 0 l 31 74 l 431 581 l 197 563 l 143 446 l 66 439 l 66 644 l 600 644 l 632 562 l 252 64 l 487 87 l 539 208 m 408 992 l 493 992 l 517 871 l 231 711 l 213 810 l 408 992 z "},"ž":{"ha":675,"x_min":31,"x_max":632,"o":"m 539 208 l 614 213 l 616 0 l 68 0 l 31 74 l 431 581 l 197 563 l 143 446 l 66 439 l 66 644 l 600 644 l 632 562 l 252 64 l 487 87 l 539 208 m 504 956 l 579 920 l 397 736 l 279 736 l 98 920 l 173 956 l 338 854 l 504 956 z "},"ż":{"ha":675,"x_min":31,"x_max":632,"o":"m 539 208 l 614 213 l 616 0 l 68 0 l 31 74 l 431 581 l 197 563 l 143 446 l 66 439 l 66 644 l 600 644 l 632 562 l 252 64 l 487 87 l 539 208 m 312 760 q 280 787 299 763 q 246 841 260 811 q 231 888 231 870 q 232 894 231 892 q 259 927 235 907 q 311 960 282 946 q 358 974 340 974 q 366 973 363 974 q 397 947 378 970 q 431 895 416 924 q 446 848 446 865 q 445 841 446 843 q 418 807 442 827 q 366 774 395 788 q 318 760 336 760 q 312 760 314 760 z "},"ﬁ":{"ha":949,"x_min":33,"x_max":935,"o":"m 140 98 l 140 538 l 33 585 l 46 644 l 140 644 q 185 838 142 761 q 313 956 229 915 q 420 988 362 978 q 553 998 479 998 q 653 987 602 998 q 745 958 705 975 q 808 919 783 941 q 833 874 833 897 q 810 827 833 856 q 758 775 788 798 q 709 753 728 753 q 665 772 690 753 q 625 810 640 791 l 597 920 q 574 922 585 922 q 396 847 456 916 q 330 644 336 778 l 833 652 l 833 92 l 935 45 l 924 0 l 539 0 l 548 52 l 642 96 l 642 514 q 609 545 629 531 q 569 567 590 559 l 330 539 l 330 92 l 459 58 l 448 0 l 36 0 l 47 54 l 140 98 z "},"ﬂ":{"ha":943,"x_min":33,"x_max":922,"o":"m 922 47 l 911 0 l 531 0 l 541 53 l 631 96 l 631 806 l 602 920 q 578 922 589 922 q 393 841 452 917 q 330 644 334 766 l 544 644 l 536 591 l 330 539 l 330 92 l 456 47 l 447 0 l 36 0 l 47 53 l 140 98 l 140 538 l 33 585 l 46 644 l 140 644 q 248 916 140 832 q 547 999 357 999 q 605 995 573 999 q 658 985 637 991 l 821 998 l 822 92 l 922 47 z "},"ª":{"ha":732,"x_min":92,"x_max":663,"o":"m 254 417 q 164 440 201 417 q 110 499 127 464 q 92 570 92 534 q 113 655 92 624 q 180 707 134 687 q 268 726 215 721 q 367 731 321 731 q 395 729 378 731 q 416 725 412 727 q 407 834 416 795 q 374 890 399 873 q 311 905 356 905 q 287 901 296 905 l 273 817 q 210 779 230 779 q 171 797 195 779 q 129 839 147 815 q 110 876 110 862 q 133 904 110 889 q 186 928 157 919 q 394 962 281 962 q 528 921 486 962 q 570 808 570 879 l 570 536 q 602 505 581 517 q 659 486 623 493 l 650 451 q 579 427 623 438 q 498 416 536 416 q 435 503 463 484 q 395 464 423 484 q 330 431 368 444 q 254 417 293 417 m 290 518 q 304 515 294 515 q 364 521 330 515 q 416 536 398 528 l 416 676 q 311 659 349 670 q 263 638 273 648 q 256 625 258 633 q 254 604 254 616 q 265 553 254 580 q 290 518 276 527 m 111 343 l 663 343 l 643 250 q 361 239 517 243 q 92 235 205 235 l 111 343 z "},"º":{"ha":688,"x_min":90,"x_max":604,"o":"m 90 673 q 122 815 90 749 q 213 922 155 882 q 346 962 272 962 q 474 934 417 962 q 565 848 532 906 q 599 705 599 790 q 565 564 599 630 q 474 457 532 497 q 349 417 417 417 q 216 445 275 417 q 123 530 157 473 q 90 673 90 588 m 385 511 q 413 514 399 511 q 435 526 427 518 q 457 578 449 541 q 465 646 465 615 q 446 760 465 709 q 390 841 427 811 q 303 870 353 870 q 273 866 286 870 q 254 855 260 862 q 232 805 241 840 q 223 733 223 769 q 240 627 223 677 q 293 543 257 576 q 385 511 330 511 m 111 343 l 604 343 l 583 250 q 92 235 332 235 l 111 343 z "},"π":{"ha":994,"x_min":47,"x_max":937,"o":"m 729 517 l 729 142 q 742 96 729 111 q 788 76 755 81 q 886 71 820 71 l 880 24 q 748 -8 802 3 q 648 -18 694 -18 q 561 24 585 -18 q 538 123 538 66 q 546 277 538 142 q 562 517 554 412 l 380 517 l 355 11 l 146 -14 l 208 517 l 47 517 l 85 644 l 937 644 l 902 517 l 729 517 z "},"ऄ":{"ha":1053,"x_min":16,"x_max":1088,"o":"m 1088 691 l 936 691 l 936 -66 l 770 -27 l 770 318 q 733 305 752 309 q 689 301 713 301 q 603 318 654 301 q 645 201 645 268 q 611 90 645 136 q 523 19 578 43 q 403 -5 467 -5 q 184 78 282 -5 q 16 323 86 161 l 87 360 q 219 190 155 243 q 355 136 283 136 q 427 152 395 136 q 475 195 458 168 q 493 258 493 223 q 443 378 493 327 q 322 340 389 353 l 243 478 q 422 555 360 510 q 484 657 484 601 q 475 694 484 684 q 429 705 467 705 q 328 669 385 705 q 224 577 271 634 l 111 698 q 224 785 159 753 q 353 817 288 817 q 467 784 414 817 q 552 697 520 750 q 583 590 583 644 q 503 416 583 481 q 596 393 550 393 q 690 417 644 393 q 770 482 737 441 l 770 691 l 670 691 l 635 805 l 817 805 q 786 851 804 833 q 739 886 768 870 q 689 903 719 897 q 609 915 659 909 q 516 928 554 921 q 451 951 479 936 q 363 1045 391 985 q 334 1169 335 1105 l 397 1202 q 450 1124 427 1148 q 507 1087 472 1100 q 555 1073 529 1078 q 627 1061 581 1068 q 713 1046 678 1054 q 779 1025 749 1039 q 870 941 838 999 q 907 805 903 884 l 1055 805 l 1088 691 z "},"ॲ":{"ha":1053,"x_min":16,"x_max":1088,"o":"m 1088 691 l 936 691 l 936 -66 l 770 -27 l 770 318 q 733 305 752 309 q 689 301 713 301 q 603 318 654 301 q 645 201 645 268 q 611 90 645 136 q 523 19 578 43 q 403 -5 467 -5 q 184 78 282 -5 q 16 323 86 161 l 87 360 q 219 190 155 243 q 355 136 283 136 q 427 152 395 136 q 475 195 458 168 q 493 258 493 223 q 443 378 493 327 q 322 340 389 353 l 243 478 q 422 555 360 510 q 484 657 484 601 q 475 694 484 684 q 429 705 467 705 q 328 669 385 705 q 224 577 271 634 l 111 698 q 224 785 159 753 q 353 817 288 817 q 467 784 414 817 q 552 697 520 750 q 583 590 583 644 q 503 416 583 481 q 596 393 550 393 q 690 417 644 393 q 770 482 737 441 l 770 691 l 670 691 l 635 805 l 1055 805 l 1088 691 m 484 1106 q 540 1038 514 1061 q 591 1005 566 1014 q 646 997 615 997 q 731 1028 691 998 q 809 1118 771 1059 l 908 1024 q 680 881 823 881 q 541 929 607 881 q 428 1074 474 977 l 484 1106 z "},"अ":{"ha":1053,"x_min":16,"x_max":1088,"o":"m 1088 691 l 936 691 l 936 -66 l 770 -27 l 770 318 q 733 305 752 309 q 689 301 713 301 q 603 318 654 301 q 645 201 645 268 q 611 90 645 136 q 523 19 578 43 q 403 -5 467 -5 q 184 78 282 -5 q 16 323 86 161 l 87 360 q 219 190 155 243 q 355 136 283 136 q 427 152 395 136 q 475 195 458 168 q 493 258 493 223 q 443 378 493 327 q 322 340 389 353 l 243 478 q 422 555 360 510 q 484 657 484 601 q 475 694 484 684 q 429 705 467 705 q 328 669 385 705 q 224 577 271 634 l 111 698 q 224 785 159 753 q 353 817 288 817 q 467 784 414 817 q 552 697 520 750 q 583 590 583 644 q 503 416 583 481 q 596 393 550 393 q 690 417 644 393 q 770 482 737 441 l 770 691 l 670 691 l 635 805 l 1055 805 l 1088 691 z "},"आ":{"ha":1362,"x_min":16,"x_max":1402,"o":"m 1402 691 l 1265 691 l 1265 -64 l 1101 -28 l 1101 691 l 1088 691 l 936 691 l 936 -66 l 770 -27 l 770 318 q 733 305 752 309 q 689 301 713 301 q 603 318 654 301 q 645 201 645 268 q 611 90 645 136 q 523 19 578 43 q 403 -5 467 -5 q 184 78 282 -5 q 16 323 86 161 l 87 360 q 219 190 155 243 q 355 136 283 136 q 427 152 395 136 q 475 195 458 168 q 493 258 493 223 q 443 378 493 327 q 322 340 389 353 l 243 478 q 422 555 360 510 q 484 657 484 601 q 475 694 484 684 q 429 705 467 705 q 328 669 385 705 q 224 577 271 634 l 111 698 q 224 785 159 753 q 353 817 288 817 q 467 784 414 817 q 552 697 520 750 q 583 590 583 644 q 503 416 583 481 q 596 393 550 393 q 690 417 644 393 q 770 482 737 441 l 770 691 l 670 691 l 635 805 l 1371 805 l 1402 691 z "},"इ":{"ha":728,"x_min":-41,"x_max":763,"o":"m 524 395 q 599 365 563 395 q 658 292 635 335 q 680 211 680 248 q 584 37 680 88 q 321 -15 488 -15 l 311 -15 q 372 -82 340 -62 q 452 -102 404 -102 q 488 -96 471 -102 q 528 -79 505 -91 l 588 -199 q 469 -237 534 -237 q 373 -211 414 -237 q 296 -137 331 -186 q 220 -6 261 -87 q 97 35 146 7 q 47 92 47 62 q 65 150 47 118 q 112 203 84 181 q 165 225 140 225 q 205 198 182 225 q 256 127 229 171 q 323 120 287 120 q 423 132 371 120 q 511 169 475 144 q 547 231 547 194 q 545 252 547 240 q 541 264 543 264 q 513 260 530 264 q 476 252 495 257 q 406 237 437 242 q 344 231 375 231 q 204 272 264 231 q 110 368 143 313 q 77 462 77 423 q 128 566 77 538 q 250 594 180 594 l 424 594 q 427 635 427 616 q 423 691 427 666 l -6 691 l -41 805 l 731 805 l 763 691 l 576 691 q 592 541 591 616 q 589 481 592 519 l 326 481 q 259 464 275 481 q 243 418 243 447 q 254 366 243 388 q 264 359 258 361 q 283 358 270 358 q 331 364 302 359 q 389 375 359 369 q 465 390 433 385 q 524 395 497 395 z "},"ई":{"ha":728,"x_min":-41,"x_max":763,"o":"m 524 395 q 599 365 563 395 q 658 292 635 335 q 680 211 680 248 q 584 37 680 88 q 321 -15 488 -15 l 311 -15 q 372 -82 340 -62 q 452 -102 404 -102 q 488 -96 471 -102 q 528 -79 505 -91 l 588 -199 q 469 -237 534 -237 q 373 -211 414 -237 q 296 -137 331 -186 q 220 -6 261 -87 q 97 35 146 7 q 47 92 47 62 q 65 150 47 118 q 112 203 84 181 q 165 225 140 225 q 205 198 182 225 q 256 127 229 171 q 323 120 287 120 q 423 132 371 120 q 511 169 475 144 q 547 231 547 194 q 545 252 547 240 q 541 264 543 264 q 513 260 530 264 q 476 252 495 257 q 406 237 437 242 q 344 231 375 231 q 204 272 264 231 q 110 368 143 313 q 77 462 77 423 q 128 566 77 538 q 250 594 180 594 l 424 594 q 427 635 427 616 q 423 691 427 666 l -6 691 l -41 805 l 731 805 l 763 691 l 576 691 q 592 541 591 616 q 589 481 592 519 l 326 481 q 259 464 275 481 q 243 418 243 447 q 254 366 243 388 q 264 359 258 361 q 283 358 270 358 q 331 364 302 359 q 389 375 359 369 q 465 390 433 385 q 524 395 497 395 m 490 753 q 363 874 411 808 q 315 1010 315 941 q 341 1096 315 1059 q 410 1155 367 1134 q 503 1175 453 1175 q 585 1163 549 1175 q 659 1122 622 1152 l 692 1016 q 627 1052 661 1040 q 562 1064 593 1064 q 493 1039 519 1064 q 467 964 467 1013 q 490 873 467 922 q 555 777 513 823 l 490 753 z "},"उ":{"ha":745,"x_min":-35,"x_max":781,"o":"m 534 408 q 701 197 701 313 q 667 83 701 130 q 578 13 633 36 q 456 -12 522 -11 q 208 66 316 -12 q 22 300 100 144 l 92 342 q 397 125 212 125 q 471 142 438 125 q 522 188 504 159 q 541 251 541 216 q 525 313 541 281 q 484 372 510 345 q 399 339 445 351 q 307 327 354 327 l 242 458 q 353 482 307 468 q 431 523 400 496 q 461 593 461 550 q 435 691 461 648 l -1 691 l -35 805 l 749 805 l 781 691 l 549 691 q 588 621 574 659 q 602 549 602 583 q 584 473 602 509 q 534 408 566 437 z "},"ऊ":{"ha":991,"x_min":-35,"x_max":1027,"o":"m 745 475 q 848 444 797 475 q 932 363 899 413 q 964 262 964 313 q 945 153 964 205 q 876 52 925 101 l 745 148 q 830 252 805 207 q 855 347 854 298 q 852 372 855 361 q 846 385 849 382 q 823 389 837 389 q 799 386 810 389 q 730 353 760 377 q 671 291 701 328 q 702 197 702 246 q 668 83 702 130 q 578 13 634 36 q 456 -12 522 -11 q 211 66 319 -12 q 21 300 102 144 l 90 342 q 232 181 150 237 q 397 125 315 125 q 471 142 439 125 q 522 188 504 159 q 541 251 541 216 q 525 314 541 282 q 483 373 510 346 q 400 341 445 353 q 308 327 355 329 l 237 458 q 405 504 346 472 q 464 593 464 536 q 433 691 464 641 l 0 691 l -35 805 l 994 805 l 1027 691 l 547 691 q 587 620 573 658 q 602 549 602 583 q 584 472 602 507 q 534 408 566 436 l 564 389 q 651 454 607 433 q 745 475 695 475 z "},"ऋ":{"ha":1144,"x_min":-35,"x_max":1179,"o":"m 480 357 q 378 436 412 414 q 315 457 344 457 q 270 451 292 457 q 217 425 248 445 q 144 363 186 404 l 29 505 q 251 600 136 600 q 321 586 289 600 q 390 545 354 573 q 488 463 427 517 l 488 691 l 0 691 l -35 805 l 1146 805 l 1179 691 l 654 691 l 654 396 q 754 417 713 401 q 831 458 796 433 q 801 547 801 507 q 819 594 801 578 q 869 610 836 610 q 960 582 913 610 q 1041 507 1006 553 q 1050 487 1050 496 q 1045 473 1050 479 q 972 401 1022 441 q 1054 286 1026 336 q 1081 181 1081 236 q 1039 77 1081 125 q 903 1 998 30 l 880 -5 l 808 159 q 939 202 907 176 q 971 256 971 229 q 957 307 971 281 q 913 365 942 333 q 654 300 799 301 l 654 -67 l 488 -26 l 488 225 l 186 -12 l 81 140 l 480 357 z "},"ॠ":{"ha":1177,"x_min":-35,"x_max":1223,"o":"m 465 361 q 367 430 406 409 q 295 452 328 452 q 224 430 262 452 q 133 357 187 408 l 20 499 q 130 571 71 545 q 241 597 190 597 q 310 585 278 597 q 379 546 341 574 q 475 467 417 519 l 475 691 l 0 691 l -35 805 l 1179 805 l 1212 691 l 640 691 l 640 435 q 689 445 658 435 q 739 465 720 454 q 774 542 747 509 q 842 594 802 576 q 926 613 882 613 q 959 592 939 613 q 993 544 978 570 q 1008 505 1008 517 q 983 467 1008 492 q 919 421 959 443 q 835 390 879 399 q 818 361 818 382 q 834 336 818 344 q 878 329 851 329 q 944 343 908 329 q 1027 388 979 357 l 1103 260 q 1012 210 1043 229 q 964 172 981 191 q 948 132 948 153 q 964 112 948 118 q 1005 105 981 105 q 1072 118 1038 105 q 1145 164 1105 132 l 1223 43 q 1141 -7 1182 8 q 1053 -23 1099 -23 q 967 6 1008 -23 q 903 81 927 36 q 878 168 878 125 q 881 196 878 181 q 890 221 884 212 q 810 260 848 227 q 754 342 772 292 q 661 334 705 334 l 640 334 l 640 -66 l 475 -26 l 475 230 l 178 -13 l 71 138 l 465 361 z "},"ऌ":{"ha":1046,"x_min":-35,"x_max":1087,"o":"m 1087 -32 q 895 -126 1002 -126 q 776 -93 840 -126 q 668 -7 712 -59 q 624 93 624 44 q 644 163 624 130 q 705 246 664 197 q 730 277 732 280 q 785 355 765 321 q 806 420 806 390 q 804 443 806 432 q 799 458 802 454 q 771 475 791 467 q 724 482 751 482 q 621 432 670 482 q 547 257 572 382 l 389 296 q 435 441 403 382 q 349 460 392 460 q 262 425 295 460 q 230 323 230 389 q 284 160 230 244 q 449 1 338 76 l 407 -67 q 144 131 237 21 q 52 355 52 241 q 83 467 52 420 q 164 536 113 513 q 274 559 215 559 q 467 488 368 559 q 532 539 493 518 q 614 568 570 559 q 628 647 626 602 q 627 691 628 676 l -1 691 l -35 805 l 1048 805 l 1079 691 l 733 691 q 758 589 755 636 q 757 556 758 568 q 848 502 806 538 q 913 422 889 467 q 938 332 938 377 q 925 270 938 300 q 894 213 913 240 q 842 145 875 185 q 829 127 842 144 q 785 66 798 90 q 770 20 771 43 q 775 -4 770 3 q 785 -8 777 -6 q 802 -10 793 -10 q 878 13 838 -10 q 973 93 918 35 l 1087 -32 z "},"ॡ":{"ha":1084,"x_min":-35,"x_max":1158,"o":"m 1158 -227 q 1093 -283 1124 -263 q 1033 -310 1063 -302 q 964 -317 1002 -317 q 919 -310 943 -317 q 871 -292 894 -304 q 802 -245 834 -275 q 750 -181 770 -216 q 731 -111 731 -146 q 741 -58 731 -87 q 648 20 685 -25 q 612 109 612 65 q 631 167 612 137 q 691 244 650 197 l 716 274 q 776 354 755 323 q 798 414 796 386 q 797 440 798 427 q 791 458 795 454 q 764 475 784 467 q 717 482 743 482 q 613 433 661 482 q 538 257 566 383 l 381 295 q 427 442 390 380 q 344 460 382 460 q 255 426 288 460 q 222 329 222 391 q 273 164 222 245 q 440 0 323 83 l 399 -66 q 210 60 290 -10 q 87 207 130 130 q 44 359 44 283 q 75 470 44 425 q 156 537 105 515 q 266 559 206 559 q 459 488 359 559 q 525 539 486 518 q 606 568 563 559 q 620 653 619 608 q 619 691 620 678 l 1 691 l -35 805 l 1088 805 l 1120 691 l 726 691 q 749 589 747 635 q 749 556 749 568 q 840 502 799 538 q 906 422 882 467 q 930 332 930 377 q 918 277 930 304 q 887 227 905 250 q 836 165 868 203 q 821 149 820 148 q 777 90 791 115 q 762 41 763 65 q 767 18 762 24 q 777 13 769 15 q 794 11 785 11 q 870 33 832 11 q 964 115 908 55 l 1077 -10 q 987 -82 1033 -60 q 887 -105 942 -105 q 857 -102 871 -105 q 842 -153 842 -126 q 844 -173 842 -164 q 852 -187 847 -182 q 873 -195 856 -191 q 909 -199 890 -199 q 982 -181 947 -199 q 1063 -117 1017 -163 l 1158 -227 z "},"ऍ":{"ha":809,"x_min":-35,"x_max":842,"o":"m 229 1106 q 285 1038 259 1061 q 336 1005 311 1014 q 391 997 360 997 q 476 1028 436 998 q 554 1118 516 1059 l 653 1024 q 425 881 568 881 q 286 929 352 881 q 173 1074 219 977 l 229 1106 m 0 691 l -35 805 l 810 805 l 842 691 l 724 691 l 724 439 q 712 329 724 372 q 675 257 701 287 q 599 199 648 227 l 473 304 q 523 339 506 323 q 548 376 541 355 q 555 428 555 396 l 555 691 l 270 691 l 270 351 q 277 309 270 323 q 302 282 283 294 q 484 165 372 235 l 574 107 q 640 45 622 77 q 658 -37 658 14 q 636 -122 658 -80 q 561 -222 614 -164 l 425 -121 q 483 -58 467 -82 q 499 -12 499 -35 q 491 22 499 7 q 463 50 483 37 q 218 203 372 109 q 144 258 169 234 q 109 309 119 282 q 100 376 100 336 l 100 691 l 0 691 z "},"ऎ":{"ha":807,"x_min":-35,"x_max":842,"o":"m 842 691 l 724 691 l 724 439 q 712 329 724 372 q 675 257 701 287 q 599 199 648 227 l 473 304 q 523 339 506 323 q 548 376 541 355 q 555 428 555 396 l 555 691 l 270 691 l 270 351 q 277 309 270 323 q 302 282 283 294 q 484 165 372 235 l 574 107 q 640 45 622 77 q 658 -37 658 14 q 636 -122 658 -80 q 561 -222 614 -164 l 425 -121 q 483 -58 467 -82 q 499 -12 499 -35 q 491 22 499 7 q 463 50 483 37 q 218 203 372 109 q 144 258 169 234 q 109 309 119 282 q 100 376 100 336 l 100 691 l 0 691 l -35 805 l 585 805 q 554 851 572 833 q 507 886 536 870 q 457 903 487 897 q 377 915 427 909 q 284 928 322 921 q 219 951 247 936 q 131 1045 159 985 q 102 1169 103 1105 l 165 1202 q 218 1124 195 1148 q 275 1087 240 1100 q 323 1073 297 1078 q 395 1061 349 1068 q 481 1046 446 1054 q 547 1025 517 1039 q 638 941 606 999 q 675 805 671 884 l 810 805 l 842 691 z "},"ए":{"ha":807,"x_min":-35,"x_max":842,"o":"m 0 691 l -35 805 l 810 805 l 842 691 l 724 691 l 724 439 q 712 329 724 372 q 675 257 701 287 q 599 199 648 227 l 473 304 q 523 339 506 323 q 548 376 541 355 q 555 428 555 396 l 555 691 l 270 691 l 270 351 q 277 309 270 323 q 302 282 283 294 q 484 165 372 235 l 574 107 q 640 45 622 77 q 658 -37 658 14 q 636 -122 658 -80 q 561 -222 614 -164 l 425 -121 q 483 -58 467 -82 q 499 -12 499 -35 q 491 22 499 7 q 463 50 483 37 q 218 203 372 109 q 144 258 169 234 q 109 309 119 282 q 100 376 100 336 l 100 691 l 0 691 z "},"ऐ":{"ha":807,"x_min":-35,"x_max":842,"o":"m 842 691 l 724 691 l 724 439 q 712 329 724 372 q 675 257 701 287 q 599 199 648 227 l 473 304 q 523 339 506 323 q 548 376 541 355 q 555 428 555 396 l 555 691 l 270 691 l 270 351 q 277 309 270 323 q 302 282 283 294 q 484 165 372 235 l 574 107 q 640 45 622 77 q 658 -37 658 14 q 636 -122 658 -80 q 561 -222 614 -164 l 425 -121 q 483 -58 467 -82 q 499 -12 499 -35 q 491 22 499 7 q 463 50 483 37 q 218 203 372 109 q 144 258 169 234 q 109 309 119 282 q 100 376 100 336 l 100 691 l 0 691 l -35 805 l 574 805 q 523 890 553 847 q 463 964 492 932 q 414 1008 433 996 q 336 1017 386 1017 q 223 1000 291 1017 l 180 1146 q 319 1168 236 1168 q 410 1152 368 1168 q 481 1114 452 1137 q 594 984 541 1069 q 676 805 647 899 l 810 805 l 842 691 z "},"ऑ":{"ha":1370,"x_min":16,"x_max":1402,"o":"m 1402 691 l 1265 691 l 1265 -64 l 1101 -28 l 1101 691 l 1088 691 l 936 691 l 936 -66 l 770 -27 l 770 318 q 733 305 752 309 q 689 301 713 301 q 603 318 654 301 q 645 201 645 268 q 611 90 645 136 q 523 19 578 43 q 403 -5 467 -5 q 184 78 282 -5 q 16 323 86 161 l 87 360 q 219 190 155 243 q 355 136 283 136 q 427 152 395 136 q 475 195 458 168 q 493 258 493 223 q 443 378 493 327 q 322 340 389 353 l 243 478 q 422 555 360 510 q 484 657 484 601 q 475 694 484 684 q 429 705 467 705 q 328 669 385 705 q 224 577 271 634 l 111 698 q 224 785 159 753 q 353 817 288 817 q 467 784 414 817 q 552 697 520 750 q 583 590 583 644 q 503 416 583 481 q 596 393 550 393 q 690 417 644 393 q 770 482 737 441 l 770 691 l 670 691 l 635 805 l 1371 805 l 1402 691 m 841 1106 q 897 1038 871 1061 q 947 1005 923 1014 q 1002 997 972 997 q 1088 1028 1048 998 q 1166 1118 1128 1059 l 1265 1024 q 1037 881 1180 881 q 897 929 964 881 q 785 1074 831 977 l 841 1106 z "},"ऒ":{"ha":1383,"x_min":16,"x_max":1402,"o":"m 1402 691 l 1265 691 l 1265 -64 l 1101 -28 l 1101 691 l 1088 691 l 936 691 l 936 -66 l 770 -27 l 770 318 q 733 305 752 309 q 689 301 713 301 q 603 318 654 301 q 645 201 645 268 q 611 90 645 136 q 523 19 578 43 q 403 -5 467 -5 q 184 78 282 -5 q 16 323 86 161 l 87 360 q 219 190 155 243 q 355 136 283 136 q 427 152 395 136 q 475 195 458 168 q 493 258 493 223 q 443 378 493 327 q 322 340 389 353 l 243 478 q 422 555 360 510 q 484 657 484 601 q 475 694 484 684 q 429 705 467 705 q 328 669 385 705 q 224 577 271 634 l 111 698 q 224 785 159 753 q 353 817 288 817 q 467 784 414 817 q 552 697 520 750 q 583 590 583 644 q 503 416 583 481 q 596 393 550 393 q 690 417 644 393 q 770 482 737 441 l 770 691 l 670 691 l 635 805 l 1158 805 q 1126 851 1143 833 q 1079 886 1108 870 q 1028 903 1059 897 q 949 915 998 909 q 856 928 894 921 q 791 951 819 936 q 703 1045 730 985 q 675 1169 675 1105 l 738 1202 q 790 1124 768 1148 q 847 1087 812 1100 q 894 1074 869 1078 q 966 1061 920 1069 q 1053 1046 1018 1054 q 1118 1025 1088 1039 q 1211 941 1178 999 q 1246 805 1244 884 l 1371 805 l 1402 691 z "},"ओ":{"ha":1362,"x_min":16,"x_max":1402,"o":"m 1402 691 l 1265 691 l 1265 -64 l 1101 -28 l 1101 691 l 1088 691 l 936 691 l 936 -66 l 770 -27 l 770 318 q 733 305 752 309 q 689 301 713 301 q 603 318 654 301 q 645 201 645 268 q 611 90 645 136 q 523 19 578 43 q 403 -5 467 -5 q 184 78 282 -5 q 16 323 86 161 l 87 360 q 219 190 155 243 q 355 136 283 136 q 427 152 395 136 q 475 195 458 168 q 493 258 493 223 q 443 378 493 327 q 322 340 389 353 l 243 478 q 422 555 360 510 q 484 657 484 601 q 475 694 484 684 q 429 705 467 705 q 328 669 385 705 q 224 577 271 634 l 111 698 q 224 785 159 753 q 353 817 288 817 q 467 784 414 817 q 552 697 520 750 q 583 590 583 644 q 503 416 583 481 q 596 393 550 393 q 690 417 644 393 q 770 482 737 441 l 770 691 l 670 691 l 635 805 l 1143 805 q 1091 890 1122 847 q 1031 964 1061 932 q 982 1008 1002 996 q 904 1017 954 1017 q 791 1000 859 1017 l 748 1146 q 888 1168 804 1168 q 978 1152 936 1168 q 1050 1114 1021 1137 q 1162 984 1109 1069 q 1244 805 1215 899 l 1371 805 l 1402 691 z "},"औ":{"ha":1362,"x_min":16,"x_max":1402,"o":"m 1402 691 l 1265 691 l 1265 -64 l 1101 -28 l 1101 691 l 1088 691 l 936 691 l 936 -66 l 770 -27 l 770 318 q 733 305 752 309 q 689 301 713 301 q 603 318 654 301 q 645 201 645 268 q 611 90 645 136 q 523 19 578 43 q 403 -5 467 -5 q 184 78 282 -5 q 16 323 86 161 l 87 360 q 219 190 155 243 q 355 136 283 136 q 427 152 395 136 q 475 195 458 168 q 493 258 493 223 q 443 378 493 327 q 322 340 389 353 l 243 478 q 422 555 360 510 q 484 657 484 601 q 475 694 484 684 q 429 705 467 705 q 328 669 385 705 q 224 577 271 634 l 111 698 q 224 785 159 753 q 353 817 288 817 q 467 784 414 817 q 552 697 520 750 q 583 590 583 644 q 503 416 583 481 q 596 393 550 393 q 690 417 644 393 q 770 482 737 441 l 770 691 l 670 691 l 635 805 l 1105 805 q 1006 869 1055 849 q 901 888 958 888 q 849 883 871 888 q 794 867 827 878 l 748 1000 q 871 1027 809 1027 q 1014 986 944 1027 q 1158 844 1084 945 q 1078 992 1120 934 q 986 1084 1036 1050 q 902 1099 948 1099 q 797 1086 850 1099 l 751 1213 q 876 1237 811 1237 q 1044 1187 973 1237 q 1164 1043 1115 1137 q 1249 805 1213 948 l 1371 805 l 1402 691 z "},"ॳ":{"ha":1053,"x_min":16,"x_max":1088,"o":"m 1088 691 l 936 691 l 936 -66 l 770 -27 l 770 318 q 733 305 752 309 q 689 301 713 301 q 603 318 654 301 q 645 201 645 268 q 611 90 645 136 q 523 19 578 43 q 403 -5 467 -5 q 184 78 282 -5 q 16 323 86 161 l 87 360 q 219 190 155 243 q 355 136 283 136 q 427 152 395 136 q 475 195 458 168 q 493 258 493 223 q 443 378 493 327 q 322 340 389 353 l 243 478 q 422 555 360 510 q 484 657 484 601 q 475 694 484 684 q 429 705 467 705 q 328 669 385 705 q 224 577 271 634 l 111 698 q 224 785 159 753 q 353 817 288 817 q 467 784 414 817 q 552 697 520 750 q 583 590 583 644 q 503 416 583 481 q 596 393 550 393 q 690 417 644 393 q 770 482 737 441 l 770 691 l 670 691 l 635 805 l 775 805 l 775 968 l 941 928 l 941 805 l 1055 805 l 1088 691 z "},"ॴ":{"ha":1362,"x_min":16,"x_max":1402,"o":"m 1402 691 l 1265 691 l 1265 -64 l 1101 -28 l 1101 691 l 1088 691 l 936 691 l 936 -66 l 770 -27 l 770 318 q 733 305 752 309 q 689 301 713 301 q 603 318 654 301 q 645 201 645 268 q 611 90 645 136 q 523 19 578 43 q 403 -5 467 -5 q 184 78 282 -5 q 16 323 86 161 l 87 360 q 219 190 155 243 q 355 136 283 136 q 427 152 395 136 q 475 195 458 168 q 493 258 493 223 q 443 378 493 327 q 322 340 389 353 l 243 478 q 422 555 360 510 q 484 657 484 601 q 475 694 484 684 q 429 705 467 705 q 328 669 385 705 q 224 577 271 634 l 111 698 q 224 785 159 753 q 353 817 288 817 q 467 784 414 817 q 552 697 520 750 q 583 590 583 644 q 503 416 583 481 q 596 393 550 393 q 690 417 644 393 q 770 482 737 441 l 770 691 l 670 691 l 635 805 l 1112 805 l 1112 968 l 1277 928 l 1277 805 l 1371 805 l 1402 691 z "},"ॵ":{"ha":1383,"x_min":16,"x_max":1402,"o":"m 1402 691 l 1265 691 l 1265 -64 l 1101 -28 l 1101 691 l 1088 691 l 936 691 l 936 -66 l 770 -27 l 770 318 q 733 305 752 309 q 689 301 713 301 q 603 318 654 301 q 645 201 645 268 q 611 90 645 136 q 523 19 578 43 q 403 -5 467 -5 q 184 78 282 -5 q 16 323 86 161 l 87 360 q 219 190 155 243 q 355 136 283 136 q 427 152 395 136 q 475 195 458 168 q 493 258 493 223 q 443 378 493 327 q 322 340 389 353 l 243 478 q 422 555 360 510 q 484 657 484 601 q 475 694 484 684 q 429 705 467 705 q 328 669 385 705 q 224 577 271 634 l 111 698 q 224 785 159 753 q 353 817 288 817 q 467 784 414 817 q 552 697 520 750 q 583 590 583 644 q 503 416 583 481 q 596 393 550 393 q 690 417 644 393 q 770 482 737 441 l 770 691 l 670 691 l 635 805 l 1147 805 q 1095 839 1125 829 q 1014 848 1064 848 q 924 845 974 848 q 814 842 842 842 q 668 887 727 842 q 589 1011 609 932 l 641 1058 q 735 980 691 1002 q 837 958 779 958 q 914 960 874 958 q 955 961 927 960 q 1005 962 983 962 q 1114 930 1066 962 q 1193 838 1162 898 q 1155 929 1181 897 q 1084 975 1129 961 q 981 992 1055 983 q 877 1008 918 1000 q 803 1032 836 1017 q 692 1227 697 1084 l 755 1264 q 788 1202 772 1225 q 822 1167 804 1179 q 865 1145 839 1154 q 911 1131 887 1136 q 978 1118 935 1126 q 1060 1102 1027 1109 q 1123 1080 1093 1094 q 1217 984 1185 1053 q 1249 805 1249 914 l 1371 805 l 1402 691 z "},"ॶ":{"ha":1053,"x_min":16,"x_max":1088,"o":"m 1088 691 l 936 691 l 936 -66 l 770 -27 l 770 318 q 733 305 752 309 q 689 301 713 301 q 603 318 654 301 q 645 201 645 268 q 611 90 645 136 q 523 19 578 43 q 403 -5 467 -5 q 184 78 282 -5 q 16 323 86 161 l 87 360 q 219 190 155 243 q 355 136 283 136 q 427 152 395 136 q 475 195 458 168 q 493 258 493 223 q 443 378 493 327 q 322 340 389 353 l 243 478 q 422 555 360 510 q 484 657 484 601 q 475 694 484 684 q 429 705 467 705 q 328 669 385 705 q 224 577 271 634 l 111 698 q 224 785 159 753 q 353 817 288 817 q 467 784 414 817 q 552 697 520 750 q 583 590 583 644 q 503 416 583 481 q 596 393 550 393 q 690 417 644 393 q 770 482 737 441 l 770 691 l 670 691 l 635 805 l 1055 805 l 1088 691 m 504 -88 q 598 -170 553 -148 q 695 -193 643 -193 q 904 -69 804 -193 l 995 -157 q 738 -303 892 -303 q 583 -263 654 -303 q 451 -127 511 -222 l 504 -88 z "},"ॷ":{"ha":1053,"x_min":16,"x_max":1088,"o":"m 645 201 q 611 90 645 136 q 523 19 578 43 q 403 -5 467 -5 q 184 78 282 -5 q 16 323 86 161 l 87 360 q 219 190 155 243 q 355 136 283 136 q 427 152 395 136 q 475 195 458 168 q 493 258 493 223 q 443 378 493 327 q 322 340 389 353 l 243 478 q 422 555 360 510 q 484 657 484 601 q 475 694 484 684 q 429 705 467 705 q 328 669 385 705 q 224 577 271 634 l 111 698 q 224 785 159 753 q 353 817 288 817 q 467 784 414 817 q 552 697 520 750 q 583 590 583 644 q 503 416 583 481 q 596 393 550 393 q 690 417 644 393 q 770 482 737 441 l 770 691 l 670 691 l 635 805 l 1055 805 l 1088 691 l 936 691 l 936 -66 l 770 -27 l 770 318 q 733 305 752 309 q 689 301 713 301 q 603 318 654 301 q 645 201 645 268 m 695 -193 q 904 -69 804 -193 l 995 -157 q 738 -303 892 -303 q 583 -263 654 -303 q 451 -127 511 -222 l 504 -88 q 598 -170 553 -148 q 695 -193 643 -193 z "},"ा":{"ha":366,"x_min":-37,"x_max":406,"o":"m -3 691 l -37 805 l 374 805 l 406 691 l 269 691 l 269 -64 l 104 -28 l 104 691 l -3 691 z "},"ि":{"ha":357,"x_min":-37,"x_max":869,"o":"m 344 1021 q 244 991 283 1021 q 205 905 205 961 q 213 857 205 883 q 235 805 221 831 l 357 805 l 390 691 l 274 691 l 274 -68 l 109 -27 l 109 691 l -1 691 l -37 805 l 123 805 q 71 898 91 851 q 50 983 50 945 q 76 1076 50 1036 q 153 1139 102 1116 q 277 1161 204 1161 q 477 1121 369 1161 q 686 1022 585 1082 q 869 898 787 962 l 819 831 q 558 972 682 923 q 344 1021 434 1021 z "},"ी":{"ha":378,"x_min":-340,"x_max":412,"o":"m -1 691 l -37 805 l 107 805 q 56 926 87 873 q -6 1009 24 979 q -50 1046 -35 1040 q -91 1054 -66 1054 q -154 1029 -130 1054 q -178 966 -178 1004 q -173 928 -178 945 q -156 880 -168 911 l -150 865 l -233 838 q -311 912 -281 869 q -340 1006 -340 955 q -315 1088 -340 1053 q -246 1142 -290 1123 q -146 1160 -202 1160 q -11 1125 -83 1160 q 133 1010 61 1089 q 265 805 205 930 l 380 805 l 412 691 l 279 691 l 279 -68 l 111 -28 l 111 691 l -1 691 z "},"ॉ":{"ha":366,"x_min":-201,"x_max":406,"o":"m -3 691 l -37 805 l 374 805 l 406 691 l 269 691 l 269 -64 l 104 -28 l 104 691 l -3 691 m -145 1106 q -89 1038 -115 1061 q -39 1005 -63 1014 q 16 997 -14 997 q 102 1028 62 998 q 180 1118 142 1059 l 279 1024 q 51 881 194 881 q -89 929 -22 881 q -201 1074 -155 977 l -145 1106 z "},"ॊ":{"ha":366,"x_min":-332,"x_max":406,"o":"m 406 691 l 269 691 l 269 -64 l 104 -28 l 104 691 l -3 691 l -37 805 l 151 805 q 120 851 138 833 q 73 886 102 870 q 23 903 53 897 q -57 915 -7 909 q -150 928 -112 921 q -215 951 -187 936 q -303 1045 -275 985 q -332 1169 -331 1105 l -269 1202 q -216 1124 -239 1148 q -159 1087 -194 1100 q -111 1073 -137 1078 q -39 1061 -85 1068 q 47 1046 12 1054 q 113 1025 83 1039 q 204 941 172 999 q 241 805 237 884 l 374 805 l 406 691 z "},"ो":{"ha":366,"x_min":-254,"x_max":406,"o":"m 406 691 l 269 691 l 269 -64 l 104 -28 l 104 691 l -3 691 l -37 805 l 140 805 q 89 890 119 847 q 29 964 58 932 q -20 1008 -1 996 q -98 1017 -48 1017 q -211 1000 -143 1017 l -254 1146 q -115 1168 -198 1168 q -24 1152 -66 1168 q 47 1114 18 1137 q 160 984 107 1069 q 242 805 213 899 l 374 805 l 406 691 z "},"ौ":{"ha":366,"x_min":-254,"x_max":406,"o":"m 406 691 l 269 691 l 269 -64 l 104 -28 l 104 691 l -3 691 l -37 805 l 102 805 q 4 869 52 849 q -101 888 -45 888 q -153 883 -131 888 q -208 867 -176 878 l -254 1000 q -132 1027 -193 1027 q 12 986 -58 1027 q 156 844 81 945 q 75 992 117 934 q -16 1084 33 1050 q -100 1099 -54 1099 q -205 1086 -152 1099 l -251 1213 q -127 1237 -192 1237 q 42 1187 -29 1237 q 161 1043 113 1137 q 246 805 210 948 l 374 805 l 406 691 z "},"ॎ":{"ha":397,"x_min":125,"x_max":431,"o":"m 397 805 l 431 691 l 291 691 l 291 -66 l 125 -28 l 125 805 l 397 805 z "},"ऻ":{"ha":385,"x_min":-26,"x_max":416,"o":"m 416 691 l 279 691 l 279 -64 l 115 -28 l 115 691 l 7 691 l -26 805 l 117 805 l 117 976 l 281 936 l 281 805 l 385 805 l 416 691 z "},"ॏ":{"ha":397,"x_min":-408,"x_max":432,"o":"m 432 691 l 291 691 l 291 -68 l 125 -28 l 125 691 l -1 691 l -37 805 l 152 805 q 104 839 132 829 q 35 849 77 849 q -50 845 14 849 q -168 840 -125 840 q -323 880 -262 840 q -408 1010 -385 920 l -356 1057 q -301 1003 -324 1021 q -258 976 -279 984 q -210 963 -238 968 q -152 961 -194 961 q -95 962 -116 961 l -10 962 q 115 930 65 962 q 196 840 165 899 q 159 929 184 898 q 87 975 133 961 q -16 992 58 983 q -120 1008 -79 1000 q -193 1032 -161 1017 q -304 1227 -300 1084 l -241 1264 q -208 1202 -224 1225 q -175 1167 -192 1179 q -132 1145 -157 1155 q -85 1131 -110 1136 q -18 1118 -61 1125 q 64 1102 31 1109 q 127 1080 97 1094 q 220 984 189 1053 q 253 805 252 914 l 400 805 l 432 691 z "},"क":{"ha":1103,"x_min":-35,"x_max":1138,"o":"m 814 562 q 933 523 876 562 q 1024 423 989 483 q 1058 307 1058 363 q 1012 165 1058 232 q 873 37 966 98 l 726 149 q 853 244 806 203 q 920 323 899 286 q 941 401 941 360 q 935 433 941 426 q 916 444 930 439 q 884 448 902 448 q 799 428 844 448 q 712 372 754 408 q 640 291 671 336 l 640 -68 l 475 -27 l 475 136 q 402 105 442 117 q 323 94 363 94 q 189 132 256 94 q 79 230 122 169 q 37 359 37 292 q 63 471 37 424 q 140 544 90 519 q 257 570 189 570 q 475 473 369 570 l 475 691 l -1 691 l -35 805 l 1105 805 l 1138 691 l 640 691 l 640 498 q 723 546 678 530 q 814 562 768 562 m 260 199 q 336 216 296 199 q 414 261 377 233 q 475 324 450 290 l 475 410 q 337 448 406 448 q 240 417 277 448 q 203 328 203 386 q 233 209 203 254 q 260 199 240 199 z "},"ख":{"ha":1120,"x_min":-35,"x_max":1156,"o":"m 1156 691 l 1023 691 l 1023 -68 l 857 -28 l 857 172 q 731 147 802 147 q 589 179 652 147 q 490 268 526 212 q 454 395 454 324 q 479 492 454 450 q 550 557 505 534 q 656 580 596 580 q 763 558 710 580 q 857 496 815 536 l 857 691 l 372 691 q 397 607 388 653 q 407 524 407 562 q 354 364 407 427 q 197 269 300 302 q 512 73 291 73 q 586 80 552 73 q 659 101 619 86 l 726 -36 q 648 -64 686 -56 q 558 -72 610 -72 q 327 -14 429 -72 q 157 158 224 45 q 60 433 89 271 l 153 471 l 222 435 q 239 490 233 456 q 245 563 245 524 q 233 691 245 621 l -1 691 l -35 805 l 1123 805 l 1156 691 m 680 230 q 778 256 730 230 q 857 330 825 282 l 857 435 q 798 457 831 449 q 736 465 766 465 q 653 433 684 465 q 623 349 623 402 q 632 286 623 316 q 659 236 642 256 q 680 230 665 230 z "},"ग":{"ha":877,"x_min":-36,"x_max":912,"o":"m -36 805 l 880 805 l 912 691 l 774 691 l 774 -68 l 610 -28 l 610 691 l 380 691 q 396 549 391 622 q 401 422 401 476 q 390 293 401 353 q 360 198 379 233 q 318 162 340 162 q 225 208 282 162 q 122 311 168 254 q 77 394 77 368 q 205 433 77 431 q 233 432 224 433 q 239 526 239 470 q 227 691 239 631 l 0 691 l -36 805 z "},"घ":{"ha":895,"x_min":-35,"x_max":930,"o":"m 930 691 l 800 691 l 800 -68 l 634 -28 l 634 126 q 541 79 587 94 q 446 64 496 64 q 303 98 378 64 q 178 190 229 131 q 128 320 128 248 q 146 394 128 359 q 196 456 163 429 q 107 529 140 486 q 73 623 73 572 q 91 691 73 659 l 1 691 l -35 805 l 897 805 l 930 691 m 634 691 l 345 691 q 262 665 292 691 q 233 592 233 639 q 267 498 233 542 q 431 532 340 530 l 496 394 q 325 344 384 381 q 267 249 267 307 q 274 214 267 229 q 290 191 280 199 q 312 182 296 185 q 345 178 328 178 q 460 205 401 178 q 566 275 519 231 q 634 366 612 318 l 634 691 z "},"ङ":{"ha":1006,"x_min":-35,"x_max":1041,"o":"m -35 805 l 1007 805 l 1041 691 l 661 691 q 680 543 680 617 q 677 487 680 522 l 433 487 q 361 474 387 487 q 335 424 335 460 q 349 366 335 390 q 368 357 353 357 q 411 362 387 357 q 476 379 436 368 q 558 399 527 393 q 618 406 590 406 q 659 395 640 406 q 718 346 690 377 q 763 280 746 315 q 781 217 781 245 q 746 92 780 144 q 654 12 712 40 q 524 -20 597 -17 q 252 64 376 -25 q 36 313 128 153 l 104 356 q 243 198 178 251 q 361 131 309 145 q 470 117 413 116 q 554 134 515 119 q 615 179 592 150 q 638 247 638 208 q 635 270 638 264 q 627 273 633 273 q 596 267 616 273 q 572 260 576 261 q 497 240 528 247 q 432 233 465 233 q 309 274 368 233 q 212 374 250 315 q 175 478 175 432 q 229 577 175 551 q 364 603 283 603 l 517 603 q 520 642 520 618 q 517 691 520 673 l 1 691 l -35 805 m 882 520 q 926 498 901 520 q 972 448 952 476 q 991 409 991 420 q 970 365 991 391 q 921 318 949 338 q 880 298 894 298 q 838 320 864 298 q 791 370 812 342 q 771 412 771 397 q 792 455 771 429 q 840 500 813 481 q 882 520 867 520 z "},"च":{"ha":934,"x_min":-35,"x_max":969,"o":"m 819 691 l 819 -69 l 654 -26 l 654 115 q 588 77 623 89 q 513 66 553 66 q 359 100 436 66 q 232 193 281 134 q 182 320 182 251 q 224 424 182 382 l 83 424 l 47 545 l 528 545 l 561 424 l 548 424 q 392 382 446 423 q 338 262 338 341 q 343 220 338 238 q 356 195 348 202 q 377 185 362 189 q 412 182 393 182 q 511 205 463 182 q 596 271 559 229 q 654 370 633 313 l 654 691 l 0 691 l -35 805 l 937 805 l 969 691 l 819 691 z "},"छ":{"ha":931,"x_min":-35,"x_max":966,"o":"m 766 574 q 856 474 823 538 q 889 337 889 410 q 834 141 889 225 q 683 11 779 57 q 464 -35 586 -35 q 274 9 363 -35 q 130 124 184 52 q 76 274 76 195 q 105 374 76 327 q 186 454 134 420 q 88 519 123 477 q 53 620 53 562 q 71 691 53 660 l 1 691 l -35 805 l 935 805 l 966 691 l 748 691 q 768 603 768 643 q 766 574 768 588 m 373 75 q 568 121 481 75 q 702 245 654 168 q 482 457 482 317 q 502 534 482 500 q 555 586 522 567 q 632 608 589 606 q 642 672 642 642 q 641 691 642 685 l 322 691 q 246 660 273 691 q 219 581 219 629 q 253 488 219 526 q 379 517 312 511 l 435 366 q 284 309 332 347 q 237 205 237 271 q 249 133 237 166 q 277 90 260 100 q 319 79 290 83 q 373 75 348 75 m 700 529 q 650 506 669 529 q 631 448 631 482 q 655 363 631 401 q 728 297 680 324 q 747 404 747 349 q 740 480 747 448 q 725 522 733 513 q 700 529 718 529 z "},"ज":{"ha":1017,"x_min":-35,"x_max":1052,"o":"m 433 45 q 259 94 333 45 q 133 236 186 142 q 41 473 81 330 l 121 497 q 242 271 177 345 q 384 197 308 197 q 459 225 432 197 q 486 294 486 253 q 452 382 486 348 q 345 448 418 416 l 327 535 l 754 535 l 754 691 l -1 691 l -35 805 l 1019 805 l 1052 691 l 919 691 l 919 -68 l 754 -27 l 754 418 l 520 418 q 620 338 586 385 q 653 237 653 290 q 624 136 653 180 q 545 68 595 92 q 433 45 495 45 z "},"झ":{"ha":1057,"x_min":-35,"x_max":1094,"o":"m 1094 691 l 969 691 l 969 -69 l 809 -28 l 809 250 q 769 238 791 242 q 728 234 747 234 q 661 250 697 234 q 667 208 667 227 q 576 37 667 89 q 318 -16 485 -16 l 313 -16 q 373 -79 341 -61 q 454 -98 406 -98 q 491 -93 475 -98 q 531 -75 507 -87 l 589 -198 q 529 -224 556 -216 q 471 -232 503 -232 q 374 -208 416 -232 q 297 -136 332 -184 q 221 -5 262 -87 q 133 21 174 4 q 68 59 92 38 q 45 99 45 79 q 64 153 45 122 q 113 204 83 183 q 170 226 142 226 q 258 125 199 226 q 336 119 286 119 q 433 133 385 119 q 513 174 481 146 q 545 240 545 201 q 544 261 545 252 q 538 271 542 271 q 512 268 528 271 q 484 261 495 264 q 468 256 473 258 q 405 240 430 245 q 357 235 380 235 q 215 275 275 235 q 125 370 156 315 q 95 465 95 425 q 142 569 95 542 q 269 597 189 597 l 422 597 q 426 641 426 615 q 422 691 426 664 l 0 691 l -35 805 l 1062 805 l 1094 691 m 662 336 q 743 356 703 336 q 809 406 783 376 l 809 691 l 576 691 q 591 543 589 615 q 588 483 591 522 l 344 483 q 277 466 292 483 q 261 421 261 449 q 264 394 261 408 q 273 370 268 380 q 284 362 277 364 q 304 360 291 360 q 382 375 326 360 q 456 391 429 386 q 511 396 484 396 q 553 387 532 396 q 608 345 581 374 q 662 336 636 336 z "},"ञ":{"ha":1080,"x_min":-37,"x_max":1116,"o":"m 1116 691 l 989 691 l 989 -68 l 825 -28 l 825 329 q 761 322 789 322 q 718 326 741 322 l 718 302 q 687 179 718 231 q 597 98 656 126 q 458 70 538 70 q 198 177 304 70 q 35 470 92 284 l 109 500 q 423 216 244 216 q 510 236 471 216 q 573 290 550 255 q 597 368 597 324 q 589 419 597 394 q 570 451 581 444 q 544 461 562 458 q 508 465 527 465 q 425 450 466 465 q 336 404 385 435 l 265 539 q 345 576 303 563 q 427 589 387 589 q 536 567 483 589 q 630 507 589 546 q 694 416 671 468 q 772 435 736 418 q 825 484 808 452 l 825 691 l -1 691 l -37 805 l 1082 805 l 1116 691 z "},"ट":{"ha":801,"x_min":-35,"x_max":836,"o":"m 270 123 q 310 107 278 115 q 380 99 342 99 q 518 134 452 99 q 651 241 584 168 l 760 112 q 625 16 701 47 q 454 -16 549 -16 q 262 29 350 -16 q 121 154 174 74 q 69 334 69 233 q 138 490 69 439 q 346 542 206 542 l 462 542 q 473 637 473 587 q 471 691 473 646 l 1 691 l -35 805 l 804 805 l 836 691 l 622 691 q 637 608 632 644 q 642 538 642 572 q 628 425 642 481 l 405 425 q 278 390 319 425 q 236 284 236 355 q 246 184 236 229 q 270 123 256 140 z "},"ठ":{"ha":835,"x_min":-35,"x_max":870,"o":"m 618 433 q 735 336 694 391 q 776 220 776 281 q 693 43 776 102 q 471 -16 610 -16 q 268 25 361 -16 q 118 145 174 66 q 62 332 62 224 q 123 478 62 421 q 346 534 184 534 l 458 534 q 471 623 471 564 q 468 691 471 666 l -1 691 l -35 805 l 838 805 l 870 691 l 612 691 q 640 538 640 612 q 618 433 640 463 m 377 87 q 548 130 484 87 q 612 262 612 173 q 558 418 612 347 l 401 418 q 278 382 319 418 q 237 267 237 347 q 249 168 237 210 q 275 106 260 127 q 312 93 283 98 q 377 87 341 87 z "},"ड":{"ha":833,"x_min":-35,"x_max":869,"o":"m -35 805 l 836 805 l 869 691 l 656 691 q 675 546 675 618 q 672 487 675 526 l 429 487 q 357 474 382 487 q 331 424 331 460 q 344 361 331 385 q 364 352 350 352 q 406 357 382 352 q 468 372 430 361 q 545 390 513 384 q 605 397 577 397 q 646 386 627 397 q 705 335 677 368 q 750 263 733 302 q 767 193 767 225 q 694 13 766 71 q 500 -46 622 -46 q 33 286 225 -46 l 100 329 q 242 172 177 224 q 358 105 307 119 q 466 92 410 91 q 561 112 515 94 q 637 166 608 131 q 667 250 667 201 l 667 254 q 665 274 667 264 q 655 276 660 276 q 591 260 642 276 q 499 236 537 245 q 427 227 460 227 q 304 269 363 227 q 208 370 245 311 q 171 478 171 430 q 226 577 171 551 q 363 603 281 603 l 513 603 q 516 642 516 618 q 513 691 516 666 l 1 691 l -35 805 z "},"ढ":{"ha":828,"x_min":-35,"x_max":863,"o":"m 525 385 q 636 354 578 385 q 732 278 694 323 q 771 191 771 232 q 739 86 771 134 q 641 9 706 38 q 479 -20 575 -20 q 330 2 401 -20 q 205 62 258 24 q 92 186 133 115 q 50 353 50 257 q 89 485 50 432 q 195 562 128 537 q 346 587 262 587 l 502 587 q 506 650 506 619 q 504 691 506 671 l -1 691 l -35 805 l 830 805 l 863 691 l 648 691 q 664 598 659 648 q 669 473 669 548 l 444 473 q 322 459 370 473 q 246 407 273 446 q 218 298 218 369 q 225 220 218 260 q 243 150 233 180 q 266 109 254 119 q 307 93 279 98 q 367 87 334 87 q 412 89 383 87 q 360 169 376 132 q 344 241 344 205 q 367 317 344 284 q 431 368 390 350 q 525 385 473 385 m 470 96 q 601 148 554 111 q 648 239 648 186 q 645 265 648 252 q 637 281 641 278 q 625 285 634 283 q 606 286 616 286 q 470 96 472 286 z "},"ण":{"ha":1017,"x_min":-35,"x_max":1053,"o":"m 597 423 q 548 234 597 296 q 397 172 498 172 q 238 205 311 172 q 124 296 166 239 q 82 423 82 354 l 82 691 l -1 691 l -35 805 l 1019 805 l 1053 691 l 921 691 l 921 -68 l 756 -28 l 756 691 l 597 691 l 597 423 m 247 423 q 252 332 247 370 q 264 284 256 294 q 285 273 270 277 q 317 269 300 269 q 406 304 379 269 q 433 423 433 340 l 433 691 l 247 691 l 247 423 z "},"त":{"ha":814,"x_min":-35,"x_max":849,"o":"m 849 691 l 719 691 l 719 -68 l 553 -27 l 553 425 l 374 425 q 279 393 311 425 q 246 309 246 361 q 278 166 246 246 q 388 -20 310 87 l 315 -66 q 124 163 186 62 q 62 354 62 264 q 121 501 62 446 q 307 556 180 556 l 553 556 l 553 691 l 0 691 l -35 805 l 814 805 l 849 691 z "},"थ":{"ha":909,"x_min":63,"x_max":944,"o":"m 944 691 l 819 691 l 819 -68 l 654 -27 l 654 168 q 465 112 573 112 q 280 156 363 112 q 143 263 196 201 q 79 379 91 326 q 267 487 205 432 q 114 559 165 507 q 63 682 63 612 q 108 789 63 749 q 228 828 153 828 q 364 789 304 828 q 458 689 425 749 q 492 570 492 629 q 463 463 492 515 q 384 366 435 410 q 267 290 333 321 q 393 247 313 247 q 500 268 448 247 q 593 328 553 288 q 654 421 634 367 l 654 691 l 539 691 l 503 805 l 911 805 l 944 691 m 221 657 q 242 588 221 618 q 310 534 264 557 q 347 653 347 586 q 343 699 347 678 q 334 724 338 719 q 317 731 328 728 q 294 734 305 734 q 241 714 262 734 q 221 657 221 695 z "},"द":{"ha":823,"x_min":-35,"x_max":859,"o":"m 622 76 q 689 -2 654 28 q 789 -74 724 -31 l 676 -183 q 608 -86 644 -148 q 541 43 572 -25 q 429 29 490 29 q 264 66 347 29 q 126 174 181 102 q 71 345 71 245 q 141 502 71 450 q 352 554 210 554 l 494 554 q 502 625 500 587 q 498 691 502 656 l -1 691 l -35 805 l 825 805 l 859 691 l 650 691 q 669 543 669 606 q 665 491 669 516 q 653 435 661 466 l 404 435 q 282 404 319 435 q 245 300 245 373 q 257 206 245 252 q 287 147 270 161 q 349 137 299 137 q 425 148 387 137 q 491 176 463 158 q 473 273 473 239 q 491 324 473 308 q 545 340 509 340 q 657 312 597 340 q 753 242 717 285 q 760 222 760 233 q 758 209 760 214 q 704 136 743 174 q 622 76 665 99 z "},"ध":{"ha":885,"x_min":54,"x_max":918,"o":"m 918 691 l 793 691 l 793 -68 l 627 -28 l 627 134 q 546 91 593 105 q 450 76 498 76 q 304 110 377 76 q 183 202 231 143 q 136 334 136 262 q 151 402 136 369 q 198 461 166 435 q 94 544 134 492 q 54 666 54 597 q 83 761 54 722 q 159 820 113 800 q 256 840 205 840 q 365 817 318 840 q 436 758 412 795 q 461 681 461 722 q 437 607 461 634 q 361 568 412 581 q 224 553 310 555 q 264 496 241 517 q 438 514 324 515 l 500 380 q 335 350 389 380 q 281 263 281 319 q 286 225 281 243 q 300 197 291 207 q 327 189 306 193 q 370 185 349 185 q 481 211 429 185 q 572 278 534 236 q 627 366 610 319 l 627 691 l 548 691 l 513 805 l 885 805 l 918 691 m 321 758 q 265 741 291 758 q 223 697 239 725 q 208 635 208 669 q 209 612 208 620 q 317 657 279 625 q 354 734 354 688 q 348 751 354 745 q 321 758 341 758 z "},"न":{"ha":806,"x_min":-35,"x_max":841,"o":"m 306 355 q 283 242 301 286 q 235 197 264 197 q 156 240 199 197 q 81 340 112 282 q 50 441 50 399 q 60 465 50 457 q 96 476 71 473 q 171 479 121 479 l 528 479 l 528 691 l -1 691 l -35 805 l 808 805 l 841 691 l 693 691 l 693 -68 l 528 -27 l 528 355 l 306 355 z "},"ऩ":{"ha":806,"x_min":-35,"x_max":841,"o":"m 306 355 q 283 242 301 286 q 235 197 264 197 q 156 240 199 197 q 81 340 112 282 q 50 441 50 399 q 60 465 50 457 q 96 476 71 473 q 171 479 121 479 l 528 479 l 528 691 l -1 691 l -35 805 l 808 805 l 841 691 l 693 691 l 693 -68 l 528 -27 l 528 355 l 306 355 m 178 98 q 222 76 196 98 q 268 26 248 54 q 288 -13 288 -1 q 266 -57 288 -31 q 217 -103 245 -83 q 176 -123 190 -123 q 134 -102 160 -123 q 88 -53 109 -80 q 68 -13 68 -26 q 89 32 68 6 q 137 78 110 58 q 178 98 163 98 z "},"प":{"ha":768,"x_min":-35,"x_max":803,"o":"m 512 216 q 373 186 449 186 q 251 213 318 186 q 136 296 184 241 q 88 432 88 352 l 88 691 l -1 691 l -35 805 l 770 805 l 803 691 l 677 691 l 677 -68 l 512 -28 l 512 216 m 253 421 q 259 341 253 375 q 274 294 264 308 q 289 286 278 289 q 315 283 300 283 q 398 302 358 283 q 469 353 439 321 q 512 418 499 384 l 512 691 l 253 691 l 253 421 z "},"फ":{"ha":1122,"x_min":-35,"x_max":1157,"o":"m 987 456 q 1048 370 1028 416 q 1068 272 1068 325 q 1036 140 1068 206 q 941 20 1003 73 l 787 136 q 905 259 867 202 q 943 372 943 315 q 937 407 943 398 q 915 419 930 414 q 880 425 899 425 q 772 387 831 425 q 665 293 713 349 l 665 -69 l 500 -26 l 500 214 q 368 178 436 178 q 248 203 313 178 q 137 280 183 228 q 90 412 90 333 l 90 691 l -1 691 l -35 805 l 1125 805 l 1157 691 l 665 691 l 665 501 q 738 534 699 523 q 813 545 777 545 q 899 519 854 545 q 987 456 945 494 m 500 691 l 258 691 l 258 407 q 262 332 258 359 q 277 290 267 305 q 295 281 281 284 q 328 279 309 279 q 398 299 363 279 q 460 349 433 319 q 500 412 487 380 l 500 691 z "},"ब":{"ha":824,"x_min":-35,"x_max":859,"o":"m 859 691 l 726 691 l 726 -68 l 561 -27 l 561 142 q 472 104 522 118 q 371 90 422 90 q 230 132 302 90 q 111 241 158 174 q 64 383 64 309 q 95 491 64 445 q 181 562 126 537 q 303 586 235 586 q 436 565 371 586 q 561 503 502 544 l 561 691 l 1 691 l -35 805 l 825 805 l 859 691 m 501 268 q 542 315 527 289 q 561 381 557 341 l 561 430 q 454 461 501 452 q 361 471 406 471 q 295 461 325 471 q 353 418 328 442 l 469 304 q 501 268 490 283 m 322 196 q 441 226 391 196 q 411 248 422 237 l 286 370 q 243 425 257 397 q 218 338 218 392 q 229 263 218 300 q 256 210 240 227 q 322 196 270 196 z "},"भ":{"ha":964,"x_min":60,"x_max":999,"o":"m 999 691 l 872 691 l 872 -68 l 707 -28 l 707 245 l 461 245 q 438 193 454 222 q 405 142 423 164 q 370 121 386 121 q 286 162 336 121 q 199 257 237 204 q 161 338 161 311 q 200 375 161 365 q 312 386 239 386 q 332 488 326 427 q 182 514 243 490 q 90 579 121 538 q 60 673 60 620 q 86 755 60 722 q 154 805 113 789 q 240 821 195 821 q 378 782 321 821 q 464 674 435 743 q 494 519 494 605 q 485 381 494 458 l 707 381 l 707 691 l 591 691 l 555 805 l 966 805 l 999 691 m 216 679 q 247 592 216 630 q 336 538 279 554 q 337 584 337 554 q 331 676 337 643 q 311 724 325 709 q 273 739 298 739 q 231 722 246 739 q 216 679 216 705 z "},"म":{"ha":857,"x_min":-35,"x_max":891,"o":"m 286 111 q 190 152 246 111 q 93 248 134 193 q 52 342 52 304 q 176 380 52 380 l 176 691 l 1 691 l -35 805 l 857 805 l 891 691 l 764 691 l 764 -66 l 600 -28 l 600 256 l 336 256 q 326 155 336 199 q 286 111 315 111 m 600 691 l 337 691 l 337 379 l 600 379 l 600 691 z "},"य":{"ha":836,"x_min":-35,"x_max":871,"o":"m 871 691 l 745 691 l 745 -68 l 580 -27 l 580 160 q 484 115 531 128 q 389 102 437 102 q 241 139 311 102 q 118 253 172 176 q 37 444 64 330 q 192 505 145 473 q 239 578 239 536 q 223 637 239 610 q 173 691 208 665 l -1 691 l -35 805 l 839 805 l 871 691 m 349 247 q 482 288 418 247 q 580 395 546 328 l 580 691 l 315 691 q 406 522 406 606 q 350 409 406 462 q 187 319 294 355 q 256 263 213 280 q 349 247 298 247 z "},"र":{"ha":536,"x_min":-35,"x_max":572,"o":"m 452 532 q 395 366 452 436 q 213 239 338 296 q 331 145 270 182 q 495 66 392 108 l 403 -73 q 236 80 304 5 q 120 236 168 155 q 35 420 72 318 l 135 477 l 203 439 q 282 517 256 474 q 309 613 309 560 q 301 691 309 640 l 0 691 l -35 805 l 541 805 l 572 691 l 424 691 q 445 608 438 650 q 452 532 452 566 z "},"ऱ":{"ha":536,"x_min":-35,"x_max":572,"o":"m 452 532 q 395 366 452 436 q 213 239 338 296 q 331 145 270 182 q 495 66 392 108 l 403 -73 q 236 80 304 5 q 120 236 168 155 q 35 420 72 318 l 135 477 l 203 439 q 282 517 256 474 q 309 613 309 560 q 301 691 309 640 l 0 691 l -35 805 l 541 805 l 572 691 l 424 691 q 445 608 438 650 q 452 532 452 566 m 95 94 q 139 72 113 94 q 185 22 165 50 q 205 -17 205 -5 q 183 -61 205 -35 q 135 -107 162 -87 q 93 -127 107 -127 q 52 -106 77 -127 q 5 -57 26 -84 q -15 -17 -15 -31 q 6 28 -15 2 q 54 74 27 54 q 95 94 81 94 z "},"ल":{"ha":981,"x_min":-35,"x_max":1016,"o":"m 1016 691 l 889 691 l 889 -67 l 724 -27 l 724 449 q 682 456 702 456 q 584 405 619 456 q 545 233 549 353 l 375 279 q 402 440 374 376 q 371 452 385 448 q 338 456 356 456 q 247 422 280 456 q 214 326 214 387 q 268 158 214 244 q 435 -9 322 71 l 395 -76 q 131 125 222 14 q 39 352 39 236 q 67 464 39 418 q 145 533 96 510 q 254 555 194 555 q 348 540 300 555 q 436 496 395 524 q 502 543 465 528 q 576 557 538 557 q 655 547 613 557 q 724 522 696 536 l 724 691 l -1 691 l -35 805 l 983 805 l 1016 691 z "},"ळ":{"ha":1076,"x_min":-35,"x_max":1094,"o":"m 858 496 q 960 408 923 468 q 998 259 998 347 q 968 117 998 176 q 888 26 939 57 q 774 -4 837 -4 q 656 27 716 -4 q 555 116 597 58 q 464 27 519 58 q 336 -4 408 -4 q 194 30 259 -4 q 92 129 130 64 q 54 283 54 194 q 84 408 54 355 q 166 490 115 462 q 278 519 218 519 q 396 486 338 519 q 494 398 454 452 q 688 517 562 501 q 697 611 697 567 q 693 691 697 648 l -2 691 l -35 805 l 1062 805 l 1094 691 l 827 691 q 850 612 841 656 q 859 523 859 568 q 858 496 859 505 m 706 123 q 795 168 766 123 q 825 288 825 212 q 819 358 825 328 q 803 401 812 387 q 766 413 794 413 q 700 387 730 413 q 643 308 670 360 q 583 171 615 256 l 582 170 q 645 135 614 146 q 706 123 677 123 m 279 100 q 373 152 332 100 q 452 309 414 205 q 467 346 461 334 q 347 390 406 390 q 256 347 287 390 q 226 231 226 304 q 233 165 226 199 q 250 114 239 131 q 262 103 254 106 q 279 100 270 100 z "},"ऴ":{"ha":1059,"x_min":-35,"x_max":1094,"o":"m 858 496 q 960 408 923 468 q 998 259 998 347 q 968 117 998 176 q 888 26 939 57 q 774 -4 837 -4 q 656 27 716 -4 q 555 116 597 58 q 464 27 519 58 q 336 -4 408 -4 q 194 30 259 -4 q 92 129 130 64 q 54 283 54 194 q 84 408 54 355 q 166 490 115 462 q 278 519 218 519 q 396 486 338 519 q 494 398 454 452 q 688 517 562 501 q 697 611 697 567 q 693 691 697 648 l -2 691 l -35 805 l 1062 805 l 1094 691 l 827 691 q 850 612 841 656 q 859 523 859 568 q 858 496 859 505 m 706 123 q 795 168 766 123 q 825 288 825 212 q 819 358 825 328 q 803 401 812 387 q 766 413 794 413 q 700 387 730 413 q 643 308 670 360 q 583 171 615 256 l 582 170 q 645 135 614 146 q 706 123 677 123 m 279 100 q 373 152 332 100 q 452 309 414 205 q 467 346 461 334 q 347 390 406 390 q 256 347 287 390 q 226 231 226 304 q 233 165 226 199 q 250 114 239 131 q 262 103 254 106 q 279 100 270 100 m 562 -18 q 606 -40 580 -18 q 651 -90 631 -62 q 671 -129 671 -117 q 650 -173 671 -146 q 601 -219 629 -199 q 559 -239 574 -239 q 518 -218 544 -239 q 472 -169 492 -196 q 452 -129 452 -142 q 473 -84 452 -110 q 520 -38 494 -58 q 562 -18 547 -18 z "},"व":{"ha":780,"x_min":-35,"x_max":815,"o":"m 815 691 l 680 691 l 680 -68 l 514 -28 l 514 132 q 355 94 446 94 q 215 132 289 94 q 91 232 141 170 q 41 361 41 294 q 69 476 40 427 q 151 551 98 525 q 274 577 204 577 q 388 562 336 577 q 514 500 439 547 l 514 691 l -1 691 l -35 805 l 783 805 l 815 691 m 281 202 q 360 215 316 202 q 445 257 404 228 q 514 331 487 286 l 514 417 q 361 453 437 453 q 255 418 288 453 q 222 321 222 382 q 229 260 222 291 q 248 214 237 230 q 259 204 252 207 q 281 202 267 202 z "},"श":{"ha":995,"x_min":34,"x_max":1030,"o":"m 583 547 q 544 381 583 453 q 441 262 504 309 q 307 195 378 216 q 415 122 357 152 q 583 54 473 93 l 509 -91 q 361 23 444 -52 q 212 180 278 98 l 209 180 q 131 189 172 180 q 62 214 90 197 q 34 254 34 231 q 54 315 34 281 q 103 375 74 350 q 157 399 132 399 q 226 329 182 399 q 383 433 329 366 q 169 507 239 450 q 98 651 98 565 q 128 745 98 705 q 205 805 158 785 q 306 825 253 825 q 451 787 388 825 q 549 686 514 749 q 583 547 583 622 m 1030 691 l 889 691 l 889 -68 l 724 -27 l 724 691 l 639 691 l 604 805 l 998 805 l 1030 691 m 262 646 q 299 554 262 596 q 416 490 337 513 q 436 591 436 538 q 428 660 436 625 q 402 716 419 694 q 362 739 385 739 q 290 712 318 739 q 262 646 262 686 z "},"ष":{"ha":783,"x_min":-35,"x_max":818,"o":"m 818 691 l 688 691 l 688 -68 l 524 -28 l 524 206 q 380 176 461 176 q 252 202 323 176 q 129 285 180 229 q 77 422 77 340 l 77 691 l -1 691 l -35 805 l 785 805 l 818 691 m 524 691 l 292 691 q 323 659 315 669 l 500 442 q 522 406 510 430 l 524 408 l 524 691 m 322 284 q 401 300 361 284 q 473 342 441 316 q 433 378 449 359 l 268 585 q 245 618 256 600 l 245 422 q 251 344 245 378 q 262 296 256 310 q 285 288 264 292 q 322 284 305 284 z "},"स":{"ha":948,"x_min":-35,"x_max":983,"o":"m 983 691 l 837 691 l 837 -66 l 672 -27 l 672 271 q 543 250 612 250 q 435 267 487 250 q 332 313 384 283 q 223 247 286 275 q 321 142 262 189 q 482 43 380 96 l 402 -88 q 188 135 273 7 q 56 433 103 262 l 153 491 l 221 454 q 264 514 251 482 q 277 585 277 546 q 260 691 277 630 l 0 691 l -35 805 l 950 805 l 983 691 m 672 691 l 387 691 q 430 515 430 588 q 396 388 430 444 q 493 374 447 374 q 590 393 547 374 q 672 450 633 411 l 672 691 z "},"ह":{"ha":732,"x_min":-35,"x_max":772,"o":"m 389 373 q 545 341 480 373 q 642 256 609 309 q 675 139 675 203 q 651 50 675 87 q 570 -22 627 13 l 451 102 q 535 163 506 131 q 564 226 564 196 q 562 237 564 232 q 554 245 559 241 q 443 271 515 271 q 305 232 357 271 q 254 122 254 193 q 290 16 254 61 q 406 -63 327 -30 q 612 -119 484 -96 l 589 -197 q 208 -77 336 -166 q 79 149 79 13 q 106 247 79 204 q 181 320 133 290 q 107 402 130 366 q 85 475 85 439 q 131 559 85 530 q 261 589 178 589 l 442 589 q 444 627 444 612 q 439 691 444 660 l -1 691 l -35 805 l 739 805 l 772 691 l 587 691 q 606 550 606 616 q 600 471 606 504 l 338 471 q 263 451 288 471 q 238 393 238 432 q 243 350 238 371 q 389 373 310 373 z "},"क़":{"ha":1103,"x_min":-35,"x_max":1138,"o":"m 814 562 q 933 523 876 562 q 1024 423 989 483 q 1058 307 1058 363 q 1012 165 1058 232 q 873 37 966 98 l 726 149 q 853 244 806 203 q 920 323 899 286 q 941 401 941 360 q 935 433 941 426 q 916 444 930 439 q 884 448 902 448 q 799 428 844 448 q 712 372 754 408 q 640 291 671 336 l 640 -68 l 475 -27 l 475 136 q 402 105 442 117 q 323 94 363 94 q 189 132 256 94 q 79 230 122 169 q 37 359 37 292 q 63 471 37 424 q 140 544 90 519 q 257 570 189 570 q 475 473 369 570 l 475 691 l -1 691 l -35 805 l 1105 805 l 1138 691 l 640 691 l 640 498 q 723 546 678 530 q 814 562 768 562 m 260 199 q 336 216 296 199 q 414 261 377 233 q 475 324 450 290 l 475 410 q 337 448 406 448 q 240 417 277 448 q 203 328 203 386 q 233 209 203 254 q 260 199 240 199 m 102 102 q 146 80 120 102 q 192 30 172 58 q 212 -9 212 3 q 190 -53 212 -26 q 141 -99 169 -79 q 100 -119 114 -119 q 58 -98 84 -119 q 12 -49 33 -76 q -8 -9 -8 -22 q 13 36 -8 10 q 61 82 34 62 q 102 102 87 102 z "},"ख़":{"ha":1120,"x_min":-35,"x_max":1156,"o":"m 1156 691 l 1023 691 l 1023 -68 l 857 -28 l 857 172 q 731 147 802 147 q 589 179 652 147 q 490 268 526 212 q 454 395 454 324 q 479 492 454 450 q 550 557 505 534 q 656 580 596 580 q 763 558 710 580 q 857 496 815 536 l 857 691 l 372 691 q 397 607 388 653 q 407 524 407 562 q 354 364 407 427 q 197 269 300 302 q 512 73 291 73 q 586 80 552 73 q 659 101 619 86 l 726 -36 q 648 -64 686 -56 q 558 -72 610 -72 q 327 -14 429 -72 q 157 158 224 45 q 60 433 89 271 l 153 471 l 222 435 q 239 490 233 456 q 245 563 245 524 q 233 691 245 621 l -1 691 l -35 805 l 1123 805 l 1156 691 m 680 230 q 778 256 730 230 q 857 330 825 282 l 857 435 q 798 457 831 449 q 736 465 766 465 q 653 433 684 465 q 623 349 623 402 q 632 286 623 316 q 659 236 642 256 q 680 230 665 230 m 122 60 q 166 38 140 60 q 212 -12 192 16 q 232 -51 232 -39 q 211 -95 232 -68 q 162 -141 189 -121 q 120 -161 134 -161 q 79 -140 104 -161 q 33 -91 53 -118 q 12 -51 12 -64 q 33 -6 12 -32 q 81 40 54 20 q 122 60 108 60 z "},"ग़":{"ha":877,"x_min":-36,"x_max":912,"o":"m -36 805 l 880 805 l 912 691 l 774 691 l 774 -68 l 610 -28 l 610 691 l 380 691 q 396 549 391 622 q 401 422 401 476 q 390 293 401 353 q 360 198 379 233 q 318 162 340 162 q 225 208 282 162 q 122 311 168 254 q 77 394 77 368 q 205 433 77 431 q 233 432 224 433 q 239 526 239 470 q 227 691 239 631 l 0 691 l -36 805 m 263 102 q 307 80 281 102 q 353 30 333 58 q 373 -9 373 3 q 352 -53 373 -26 q 303 -99 330 -79 q 261 -119 275 -119 q 220 -98 245 -119 q 174 -49 194 -76 q 153 -9 153 -22 q 174 36 153 10 q 222 82 195 62 q 263 102 249 102 z "},"ज़":{"ha":1017,"x_min":-35,"x_max":1052,"o":"m 433 45 q 259 94 333 45 q 133 236 186 142 q 41 473 81 330 l 121 497 q 242 271 177 345 q 384 197 308 197 q 459 225 432 197 q 486 294 486 253 q 452 382 486 348 q 345 448 418 416 l 327 535 l 754 535 l 754 691 l -1 691 l -35 805 l 1019 805 l 1052 691 l 919 691 l 919 -68 l 754 -27 l 754 418 l 520 418 q 620 338 586 385 q 653 237 653 290 q 624 136 653 180 q 545 68 595 92 q 433 45 495 45 m 144 89 q 189 67 163 89 q 234 17 214 45 q 254 -22 254 -10 q 233 -66 254 -39 q 184 -112 212 -92 q 142 -132 157 -132 q 101 -111 127 -132 q 55 -62 75 -89 q 35 -22 35 -35 q 56 23 35 -3 q 103 69 77 50 q 144 89 130 89 z "},"ड़":{"ha":833,"x_min":-35,"x_max":869,"o":"m -35 805 l 836 805 l 869 691 l 656 691 q 675 546 675 618 q 672 487 675 526 l 429 487 q 357 474 382 487 q 331 424 331 460 q 344 361 331 385 q 364 352 350 352 q 406 357 382 352 q 468 372 430 361 q 545 390 513 384 q 605 397 577 397 q 646 386 627 397 q 705 335 677 368 q 750 263 733 302 q 767 193 767 225 q 694 13 766 71 q 500 -46 622 -46 q 33 286 225 -46 l 100 329 q 242 172 177 224 q 358 105 307 119 q 466 92 410 91 q 561 112 515 94 q 637 166 608 131 q 667 250 667 201 l 667 254 q 665 274 667 264 q 655 276 660 276 q 591 260 642 276 q 499 236 537 245 q 427 227 460 227 q 304 269 363 227 q 208 370 245 311 q 171 478 171 430 q 226 577 171 551 q 363 603 281 603 l 513 603 q 516 642 516 618 q 513 691 516 666 l 1 691 l -35 805 m 448 -95 q 492 -117 467 -95 q 538 -166 518 -139 q 558 -205 558 -194 q 537 -250 558 -223 q 488 -296 515 -276 q 446 -316 460 -316 q 405 -294 431 -316 q 359 -246 379 -273 q 338 -205 338 -219 q 359 -160 338 -186 q 407 -115 380 -134 q 448 -95 434 -95 z "},"ढ़":{"ha":828,"x_min":-35,"x_max":863,"o":"m 525 385 q 636 354 578 385 q 732 278 694 323 q 771 191 771 232 q 739 86 771 134 q 641 9 706 38 q 479 -20 575 -20 q 330 2 401 -20 q 205 62 258 24 q 92 186 133 115 q 50 353 50 257 q 89 485 50 432 q 195 562 128 537 q 346 587 262 587 l 502 587 q 506 650 506 619 q 504 691 506 671 l -1 691 l -35 805 l 830 805 l 863 691 l 648 691 q 664 598 659 648 q 669 473 669 548 l 444 473 q 322 459 370 473 q 246 407 273 446 q 218 298 218 369 q 225 220 218 260 q 243 150 233 180 q 266 109 254 119 q 307 93 279 98 q 367 87 334 87 q 412 89 383 87 q 360 169 376 132 q 344 241 344 205 q 367 317 344 284 q 431 368 390 350 q 525 385 473 385 m 470 96 q 601 148 554 111 q 648 239 648 186 q 645 265 648 252 q 637 281 641 278 q 625 285 634 283 q 606 286 616 286 q 470 96 472 286 m 452 -75 q 496 -97 471 -75 q 542 -147 522 -119 q 562 -186 562 -174 q 541 -230 562 -203 q 492 -276 519 -256 q 450 -296 465 -296 q 409 -275 435 -296 q 363 -226 383 -253 q 342 -186 342 -199 q 363 -141 342 -167 q 411 -95 385 -115 q 452 -75 438 -75 z "},"फ़":{"ha":1122,"x_min":-35,"x_max":1157,"o":"m 987 456 q 1048 370 1028 416 q 1068 272 1068 325 q 1036 140 1068 206 q 941 20 1003 73 l 787 136 q 905 259 867 202 q 943 372 943 315 q 937 407 943 398 q 915 419 930 414 q 880 425 899 425 q 772 387 831 425 q 665 293 713 349 l 665 -69 l 500 -26 l 500 214 q 368 178 436 178 q 248 203 313 178 q 137 280 183 228 q 90 412 90 333 l 90 691 l -1 691 l -35 805 l 1125 805 l 1157 691 l 665 691 l 665 501 q 738 534 699 523 q 813 545 777 545 q 899 519 854 545 q 987 456 945 494 m 500 691 l 258 691 l 258 407 q 262 332 258 359 q 277 290 267 305 q 295 281 281 284 q 328 279 309 279 q 398 299 363 279 q 460 349 433 319 q 500 412 487 380 l 500 691 m 148 166 q 192 144 166 166 q 238 95 218 122 q 258 56 258 67 q 236 12 258 38 q 188 -35 215 -15 q 146 -55 160 -55 q 104 -33 130 -55 q 58 15 79 -12 q 38 56 38 42 q 59 101 38 75 q 107 146 80 127 q 148 166 134 166 z "},"य़":{"ha":836,"x_min":-35,"x_max":871,"o":"m 871 691 l 745 691 l 745 -68 l 580 -27 l 580 160 q 484 115 531 128 q 389 102 437 102 q 241 139 311 102 q 118 253 172 176 q 37 444 64 330 q 192 505 145 473 q 239 578 239 536 q 223 637 239 610 q 173 691 208 665 l -1 691 l -35 805 l 839 805 l 871 691 m 349 247 q 482 288 418 247 q 580 395 546 328 l 580 691 l 315 691 q 406 522 406 606 q 350 409 406 462 q 187 319 294 355 q 256 263 213 280 q 349 247 298 247 m 140 121 q 184 99 158 121 q 230 50 210 77 q 250 11 250 22 q 228 -33 250 -7 q 179 -80 207 -60 q 138 -100 152 -100 q 96 -78 122 -100 q 50 -30 71 -56 q 30 11 30 -3 q 51 56 30 30 q 99 102 72 82 q 140 121 125 121 z "},"ॹ":{"ha":1017,"x_min":-35,"x_max":1052,"o":"m 433 45 q 259 94 333 45 q 133 236 186 142 q 41 473 81 330 l 121 497 q 242 271 177 345 q 384 197 308 197 q 459 225 432 197 q 486 294 486 253 q 452 382 486 348 q 345 448 418 416 l 327 535 l 754 535 l 754 691 l -1 691 l -35 805 l 1019 805 l 1052 691 l 919 691 l 919 -68 l 754 -27 l 754 418 l 520 418 q 620 338 586 385 q 653 237 653 290 q 624 136 653 180 q 545 68 595 92 q 433 45 495 45 m 269 -159 q 232 -141 256 -159 q 190 -100 208 -123 q 171 -61 171 -76 q 189 -23 171 -47 q 231 18 208 0 q 269 37 254 37 q 306 18 283 37 q 348 -24 330 0 q 366 -61 366 -47 q 348 -100 366 -77 q 305 -141 329 -123 q 269 -159 281 -159 m 561 -159 q 524 -141 548 -159 q 482 -100 500 -123 q 464 -61 464 -76 q 482 -23 464 -47 q 524 18 500 0 q 561 37 547 37 q 599 18 575 37 q 641 -24 623 0 q 659 -61 659 -47 q 640 -100 659 -77 q 597 -141 621 -123 q 561 -159 574 -159 m 414 -301 q 378 -283 401 -301 q 336 -241 354 -265 q 317 -203 317 -218 q 336 -165 317 -189 q 377 -123 354 -142 q 414 -105 401 -105 q 452 -124 429 -105 q 494 -166 476 -142 q 513 -203 513 -190 q 494 -242 513 -218 q 451 -283 475 -265 q 414 -301 427 -301 z "},"ॺ":{"ha":836,"x_min":-35,"x_max":871,"o":"m 871 691 l 745 691 l 745 -68 l 580 -27 l 580 160 q 484 115 531 128 q 389 102 437 102 q 241 139 311 102 q 118 253 172 176 q 37 444 64 330 q 192 505 145 473 q 239 578 239 536 q 223 637 239 610 q 173 691 208 665 l -1 691 l -35 805 l 839 805 l 871 691 m 315 691 q 326 680 326 680 q 374 631 345 664 l 555 420 q 576 387 564 409 l 580 395 l 580 691 l 315 691 m 349 247 q 443 267 397 247 q 526 322 488 287 q 488 356 503 338 l 395 470 q 323 386 376 425 q 187 319 271 347 q 256 263 213 280 q 349 247 298 247 z "},"ॻ":{"ha":876,"x_min":-35,"x_max":911,"o":"m 911 691 l 774 691 l 774 -63 l 63 -63 l 30 37 l 610 37 l 610 691 l 380 691 q 397 549 391 622 q 402 422 402 476 q 391 287 402 347 q 361 195 380 228 q 317 162 342 162 q 224 208 281 162 q 123 311 168 254 q 78 394 78 368 q 110 423 78 413 q 205 433 142 433 q 233 431 216 433 q 239 526 239 463 q 228 691 239 629 l 1 691 l -35 805 l 879 805 l 911 691 z "},"ॼ":{"ha":1008,"x_min":-35,"x_max":1043,"o":"m 1043 691 l 911 691 l 911 -105 l 58 -105 l 24 -5 l 746 -5 l 746 418 l 512 418 q 611 338 578 385 q 645 237 645 290 q 616 136 645 180 q 537 68 587 92 q 425 45 487 45 q 251 94 325 45 q 125 236 178 142 q 33 472 73 330 l 113 498 q 234 271 169 345 q 376 197 299 197 q 451 225 424 197 q 477 294 477 253 q 444 381 477 347 q 340 448 411 416 l 316 535 l 746 535 l 746 691 l -1 691 l -35 805 l 1011 805 l 1043 691 z "},"ॾ":{"ha":826,"x_min":-35,"x_max":861,"o":"m -35 805 l 828 805 l 861 691 l 656 691 q 676 543 676 614 q 673 487 676 531 l 430 487 q 356 476 381 487 q 331 428 331 465 q 345 379 331 404 q 365 370 349 370 q 402 375 381 370 q 444 385 423 379 q 471 392 465 391 q 552 413 519 406 q 614 420 586 420 q 655 408 636 420 q 713 360 686 391 q 756 295 740 330 q 772 231 772 260 q 736 109 772 161 q 640 29 701 56 q 508 2 580 2 q 249 80 366 2 q 31 336 132 159 l 98 378 q 239 220 174 273 q 355 154 304 168 q 464 139 406 139 q 549 154 510 139 q 611 196 587 168 q 634 262 634 224 q 631 283 634 277 q 621 286 628 286 q 567 273 608 286 q 491 253 523 260 q 428 246 460 246 q 305 286 365 246 q 209 381 245 326 q 172 478 172 436 q 227 577 172 551 q 363 603 281 603 l 513 603 q 516 642 516 614 q 513 691 516 673 l 1 691 l -35 805 m 288 -96 l 547 -96 l 556 -139 l 299 -139 l 288 -96 z "},"ॿ":{"ha":830,"x_min":-35,"x_max":859,"o":"m 859 691 l 726 691 l 726 -112 l 109 -112 l 75 -12 l 561 -12 l 561 142 q 472 104 522 118 q 371 90 422 90 q 230 132 302 90 q 111 241 158 174 q 64 383 64 309 q 95 491 64 445 q 181 562 126 537 q 303 586 235 586 q 436 565 371 586 q 561 503 502 544 l 561 691 l 1 691 l -35 805 l 825 805 l 859 691 m 501 268 q 542 315 527 289 q 561 381 557 341 l 561 430 q 454 461 501 452 q 361 471 406 471 q 295 461 325 471 q 353 418 328 442 l 469 304 q 501 268 490 283 m 322 196 q 441 226 391 196 q 411 248 422 237 l 286 370 q 243 425 257 397 q 218 338 218 392 q 229 263 218 300 q 256 210 240 227 q 322 196 270 196 z "},"⁄":{"ha":258,"x_min":-175,"x_max":433,"o":"m -175 163 l 310 812 l 433 779 l -57 134 l -175 163 z "},"½":{"ha":1172,"x_min":29,"x_max":1152,"o":"m 146 474 l 146 849 l 29 849 l 40 905 l 304 950 l 304 477 l 403 458 l 389 397 l 34 397 l 45 455 l 146 474 m 263 163 l 748 812 l 871 779 l 381 134 l 263 163 m 886 85 q 1129 112 989 103 l 1152 1 l 724 1 l 705 48 q 796 151 739 86 q 890 260 853 216 q 939 330 923 300 q 954 385 954 361 q 934 432 954 413 q 870 450 914 450 q 753 429 821 450 l 722 504 q 913 551 809 551 q 1061 511 1008 551 q 1113 401 1113 471 q 1083 304 1113 355 q 1006 203 1053 254 q 886 85 959 153 z "},"¼":{"ha":1183,"x_min":29,"x_max":1117,"o":"m 146 474 l 146 849 l 29 849 l 40 905 l 304 950 l 304 477 l 403 458 l 389 397 l 34 397 l 45 455 l 146 474 m 263 163 l 748 812 l 871 779 l 381 134 l 263 163 m 631 191 l 865 563 l 1020 538 l 789 221 l 908 227 l 908 292 l 1045 317 l 1045 235 l 1117 237 l 1105 144 l 1048 144 l 1048 -20 l 901 -45 l 901 144 l 652 144 l 631 191 z "},"¾":{"ha":1227,"x_min":24,"x_max":1107,"o":"m 34 421 q 148 450 100 434 q 230 495 197 466 q 262 567 262 524 q 222 636 262 617 q 115 657 181 656 l 124 707 l 294 860 q 153 848 222 852 q 46 843 84 843 l 24 939 l 413 939 l 429 886 l 283 706 q 380 663 345 699 q 416 574 416 627 q 362 447 416 496 q 227 378 309 399 q 54 357 144 357 l 34 421 m 258 163 l 743 812 l 867 779 l 376 134 l 258 163 m 623 191 l 856 563 l 1010 538 l 779 221 l 899 227 l 899 292 l 1036 317 l 1036 235 l 1107 237 l 1097 144 l 1038 144 l 1038 -20 l 892 -45 l 892 144 l 644 144 l 623 191 z "},"¹":{"ha":415,"x_min":29,"x_max":403,"o":"m 146 677 l 146 1053 l 29 1053 l 40 1108 l 304 1154 l 304 680 l 403 663 l 389 601 l 34 601 l 45 659 l 146 677 z "},"²":{"ha":494,"x_min":24,"x_max":471,"o":"m 205 686 q 448 712 312 705 l 471 601 l 43 601 l 24 649 q 114 750 39 665 q 209 861 188 836 q 258 931 242 901 q 273 986 273 962 q 253 1032 273 1014 q 189 1050 233 1050 q 73 1030 141 1050 l 40 1105 q 233 1152 129 1152 q 380 1112 328 1152 q 432 1002 432 1072 q 402 905 432 956 q 325 804 372 854 q 205 686 278 754 z "},"³":{"ha":459,"x_min":24,"x_max":429,"o":"m 34 625 q 148 653 100 637 q 230 698 197 669 q 262 771 262 727 q 222 841 262 821 q 115 861 181 860 l 124 911 l 294 1064 q 155 1052 224 1057 q 46 1046 85 1046 l 24 1143 l 413 1143 l 429 1090 l 283 910 q 380 867 345 903 q 416 778 416 831 q 362 651 416 700 q 227 582 309 602 q 54 561 144 561 l 34 625 z "},"०":{"ha":744,"x_min":59,"x_max":681,"o":"m 340 673 q 439 657 392 673 q 534 608 486 640 q 643 503 604 562 q 681 356 681 444 q 642 207 681 271 q 536 106 602 142 q 391 71 470 71 q 234 113 311 71 q 108 227 157 155 q 59 387 59 299 q 92 522 59 455 q 190 631 125 588 q 340 673 254 673 m 503 574 q 457 585 487 585 q 329 545 387 585 q 236 437 271 505 q 202 292 202 370 q 214 211 202 250 q 238 162 225 172 q 281 153 251 153 q 423 199 365 153 q 511 314 481 245 q 540 447 540 382 q 530 528 540 493 q 503 574 519 564 z "},"१":{"ha":608,"x_min":79,"x_max":524,"o":"m 286 231 q 401 156 361 186 q 458 101 441 126 q 474 46 474 76 q 461 -8 474 18 q 412 -83 449 -34 l 255 -10 q 309 55 296 34 q 323 96 323 76 q 303 143 323 120 q 233 195 283 165 q 89 272 184 225 q 296 484 224 385 q 169 541 216 511 q 100 607 121 571 q 79 690 79 642 q 127 801 79 760 q 262 843 175 843 q 395 812 334 843 q 490 732 455 781 q 524 629 524 682 q 494 505 524 573 q 411 366 465 437 q 286 231 357 296 m 233 675 q 255 592 233 630 q 324 526 277 553 q 382 708 382 621 q 378 735 382 722 q 370 751 374 747 q 350 759 365 756 q 320 762 336 762 q 257 737 280 762 q 233 675 233 711 z "},"२":{"ha":701,"x_min":71,"x_max":633,"o":"m 633 -21 q 578 -39 599 -35 q 532 -44 557 -44 q 394 24 456 -44 q 287 248 332 93 q 193 268 235 252 q 126 309 151 284 q 102 363 102 334 q 124 418 102 389 q 177 465 146 446 q 231 484 208 484 q 274 461 256 484 q 317 384 293 437 q 410 426 363 391 q 487 512 457 461 q 517 614 517 563 q 505 695 517 676 q 473 711 498 703 q 419 718 447 718 q 146 614 294 718 l 71 759 q 204 818 137 800 q 346 835 271 835 q 481 798 415 835 q 588 694 547 760 q 629 548 629 629 q 597 416 629 481 q 503 304 566 350 q 355 249 441 258 q 423 132 387 168 q 502 95 459 95 q 544 99 526 95 q 583 114 562 104 l 633 -21 z "},"३":{"ha":707,"x_min":73,"x_max":633,"o":"m 633 311 q 597 212 633 254 q 496 145 561 169 q 345 121 431 121 l 318 122 q 376 58 346 77 q 449 39 406 39 q 487 42 471 39 q 528 56 503 45 l 580 -71 q 528 -93 549 -87 q 483 -98 507 -98 q 348 -43 404 -98 q 247 134 292 12 q 159 165 199 145 q 96 211 119 186 q 73 262 73 237 q 93 316 73 290 q 142 360 113 343 q 195 378 171 378 q 239 349 218 378 q 277 268 260 320 q 350 258 314 258 q 429 273 395 258 q 481 313 463 288 q 500 364 500 337 q 453 451 500 409 q 290 430 383 428 l 219 565 q 479 671 478 582 q 470 712 479 701 q 450 720 465 717 q 414 723 435 723 q 299 703 355 723 q 169 636 243 684 l 93 772 q 210 825 157 810 q 329 840 263 840 q 452 809 395 840 q 544 724 509 778 q 578 606 578 671 q 507 476 578 522 q 600 402 566 441 q 633 311 633 362 z "},"४":{"ha":781,"x_min":66,"x_max":718,"o":"m 502 298 q 582 232 553 261 q 623 177 611 203 q 634 123 634 152 q 612 42 634 77 q 550 -11 590 8 q 460 -29 511 -29 q 348 -9 406 -29 q 248 43 290 10 q 186 151 186 93 q 198 199 186 174 q 240 256 210 223 q 325 336 270 289 q 170 443 224 397 q 91 531 115 488 q 66 625 67 573 q 97 733 66 684 q 193 831 127 782 l 336 748 q 265 674 290 703 q 230 621 240 645 q 220 570 220 597 q 235 512 220 539 q 283 454 249 485 q 378 382 317 424 q 500 492 456 448 q 563 570 543 536 q 583 637 583 604 q 547 729 583 686 q 443 809 512 772 l 495 831 q 593 778 541 817 q 682 687 646 739 q 718 581 718 635 q 700 509 718 545 q 635 424 681 473 q 502 298 589 374 m 374 37 q 438 54 410 37 q 484 99 467 70 q 500 165 500 128 q 490 211 500 191 q 452 255 479 232 q 378 184 404 213 q 342 133 353 155 q 332 85 332 110 q 335 60 332 71 q 345 44 338 49 q 374 37 351 37 z "},"५":{"ha":743,"x_min":66,"x_max":670,"o":"m 606 313 q 582 291 594 301 q 654 107 654 193 q 620 12 654 54 q 512 -76 585 -31 l 394 35 q 510 112 475 74 q 545 200 545 150 q 536 260 545 231 q 457 228 498 239 q 379 216 416 216 q 234 255 307 216 q 113 359 161 294 q 66 501 66 425 q 101 656 66 579 q 222 833 137 734 l 376 775 q 249 592 285 671 q 213 435 213 513 q 221 363 213 397 q 243 319 230 330 q 260 312 249 315 q 280 309 271 309 q 370 334 324 309 q 441 397 416 359 q 420 489 420 451 q 438 538 420 520 q 490 555 456 555 q 574 541 532 555 q 643 500 616 527 q 670 440 670 474 q 652 379 670 414 q 606 313 635 344 z "},"६":{"ha":729,"x_min":73,"x_max":690,"o":"m 572 -115 q 463 67 511 -39 q 386 58 423 58 q 244 88 317 58 q 122 179 172 118 q 73 328 73 239 q 107 448 73 397 q 203 528 141 499 q 101 682 101 588 q 162 798 101 758 q 329 838 223 838 q 532 800 434 838 l 555 682 q 469 708 513 699 q 386 717 425 717 q 286 692 320 717 q 252 623 252 667 q 259 586 252 606 q 277 550 265 567 q 366 558 319 558 q 464 551 410 558 l 497 419 q 399 427 442 427 q 267 393 309 427 q 224 290 224 359 q 232 221 224 251 q 251 182 240 191 q 317 165 270 165 q 416 192 380 165 q 403 273 403 242 q 419 322 403 306 q 473 338 436 338 q 562 322 518 338 q 632 280 605 307 q 659 225 659 254 q 629 160 659 196 q 553 100 599 125 q 549 98 553 100 q 606 46 573 71 q 690 -9 640 21 l 572 -115 z "},"७":{"ha":852,"x_min":75,"x_max":786,"o":"m 534 721 q 662 681 604 721 q 753 568 720 642 q 786 398 786 495 q 739 181 786 274 q 611 38 692 87 q 432 -12 530 -12 q 298 11 363 -12 q 184 83 234 33 q 105 213 135 132 q 75 391 75 293 q 104 609 75 496 q 188 828 133 721 l 352 799 q 224 311 224 554 q 233 215 224 260 q 255 139 241 170 q 283 98 269 109 q 366 77 313 77 q 514 134 448 77 q 614 291 581 191 q 434 397 505 328 q 363 559 363 467 q 386 646 363 609 q 447 702 408 682 q 534 721 486 721 m 632 357 q 644 482 644 416 q 635 579 644 537 q 614 629 627 622 q 591 633 604 633 q 547 620 568 633 q 515 585 527 608 q 503 534 503 562 q 518 468 503 503 q 563 404 534 433 q 632 357 592 374 z "},"८":{"ha":707,"x_min":65,"x_max":680,"o":"m 65 248 q 153 491 65 345 q 417 827 241 637 l 565 765 q 287 417 384 571 q 190 170 190 263 q 194 136 190 153 q 203 110 197 119 q 240 90 211 98 q 310 83 270 83 q 445 111 374 83 q 597 195 515 138 l 680 60 q 551 -12 614 11 q 411 -35 488 -35 q 233 5 313 -35 q 110 112 154 46 q 65 248 65 178 z "},"९":{"ha":658,"x_min":50,"x_max":581,"o":"m 389 363 q 500 259 463 297 q 559 183 538 221 q 581 105 581 146 q 571 53 581 77 q 538 4 562 29 q 473 -54 515 -22 l 338 52 q 403 100 382 81 q 431 135 424 119 q 439 173 439 151 q 422 223 439 197 q 378 274 406 248 q 300 343 351 299 q 243 392 267 371 q 130 498 167 460 q 71 576 92 536 q 50 661 50 615 q 77 755 50 713 q 150 821 103 797 q 252 844 196 844 q 405 810 336 844 q 511 719 473 776 q 549 600 549 663 q 507 464 549 526 q 389 363 465 402 m 195 637 q 216 552 195 595 q 273 470 237 509 q 375 548 338 497 q 412 663 412 598 q 396 736 412 721 q 365 751 387 745 q 315 756 343 756 q 252 741 279 756 q 210 698 224 725 q 195 637 195 671 z "},"*":{"ha":836,"x_min":104,"x_max":734,"o":"m 732 730 q 722 699 734 720 q 683 655 710 677 q 613 618 655 632 q 522 604 569 604 q 456 613 486 604 q 430 628 450 614 q 486 564 452 591 q 560 523 519 536 l 559 376 q 546 373 557 373 q 485 393 521 373 q 417 454 448 412 q 378 528 392 488 q 363 601 363 568 q 371 637 363 610 l 372 640 q 326 566 342 607 q 310 481 309 525 l 170 436 q 162 451 165 439 q 159 479 159 463 q 168 535 159 505 q 200 595 178 565 q 258 656 225 630 q 323 692 292 682 q 357 696 334 696 q 260 715 309 715 q 190 704 224 715 l 104 824 q 118 837 106 829 q 151 850 130 844 q 195 855 171 855 q 265 844 229 855 q 340 807 305 831 q 395 756 375 784 q 410 724 402 748 q 410 746 410 731 q 366 887 410 828 l 453 1006 q 479 987 462 1006 q 509 936 496 969 q 522 859 522 903 q 510 776 522 816 q 479 709 498 736 q 468 697 476 704 q 452 684 460 690 q 530 718 494 694 q 592 776 567 741 l 732 730 z "},"\\":{"ha":635,"x_min":45,"x_max":579,"o":"m 178 1014 l 579 16 l 446 -16 l 45 980 l 178 1014 z "},"·":{"ha":401,"x_min":93,"x_max":342,"o":"m 239 256 q 189 271 222 253 q 128 315 156 290 q 96 357 100 340 q 111 407 93 374 q 156 469 130 441 q 199 500 182 498 q 205 501 201 501 q 256 483 224 501 q 313 439 288 464 q 341 400 338 415 q 342 395 342 398 q 323 343 342 375 q 280 284 304 311 q 239 256 255 258 z "},"•":{"ha":538,"x_min":65,"x_max":473,"o":"m 269 148 q 192 186 241 148 q 104 274 142 225 q 65 351 65 323 q 104 428 65 379 q 192 516 142 477 q 269 555 241 555 q 346 516 297 555 q 434 428 395 477 q 473 351 473 379 q 434 274 473 323 q 346 186 395 225 q 269 148 297 148 z "},":":{"ha":399,"x_min":96,"x_max":349,"o":"m 243 -24 q 193 -9 226 -27 q 131 35 159 9 q 100 77 103 60 q 115 127 96 94 q 159 189 133 161 q 202 220 185 218 q 208 221 204 221 q 259 202 228 221 q 317 159 291 184 q 345 120 342 135 q 330 69 349 102 q 285 7 311 35 q 243 -24 259 -22 m 243 385 q 193 400 226 382 q 131 444 159 418 q 100 486 103 469 q 115 536 96 503 q 159 598 133 570 q 202 629 185 627 q 208 630 204 630 q 259 611 228 630 q 317 568 291 593 q 345 529 342 544 q 330 478 349 511 q 285 416 311 444 q 243 385 259 387 z "},",":{"ha":424,"x_min":90,"x_max":331,"o":"m 92 85 q 104 130 90 98 q 144 186 121 161 q 185 214 167 211 q 196 216 192 216 q 216 212 205 216 q 242 201 226 209 q 300 161 273 185 q 330 121 328 137 q 331 103 331 115 q 328 57 331 82 q 319 14 324 32 q 263 -105 305 -42 q 161 -217 220 -169 l 94 -205 l 184 -9 q 121 39 148 12 q 92 85 94 67 z "},"…":{"ha":1119,"x_min":89,"x_max":1031,"o":"m 235 -24 q 185 -9 218 -27 q 124 35 152 9 q 92 77 96 60 q 107 127 89 94 q 152 189 125 161 q 195 220 178 218 q 201 221 197 221 q 252 202 220 221 q 309 159 283 184 q 338 120 335 135 q 322 69 341 102 q 278 7 304 35 q 235 -24 252 -22 m 580 -24 q 530 -9 563 -27 q 468 35 496 9 q 437 77 440 60 q 452 127 433 94 q 496 189 470 161 q 539 220 522 218 q 545 221 541 221 q 596 202 565 221 q 654 159 628 184 q 682 120 680 135 q 667 69 686 102 q 622 7 648 35 q 580 -24 596 -22 m 925 -24 q 875 -9 908 -27 q 813 35 842 9 q 782 77 785 60 q 797 127 779 94 q 841 189 815 161 q 884 220 867 218 q 890 221 886 221 q 942 202 910 221 q 999 159 973 184 q 1027 120 1025 135 q 1012 69 1031 102 q 967 7 994 35 q 925 -24 941 -22 z "},"!":{"ha":541,"x_min":153,"x_max":387,"o":"m 180 333 q 167 615 171 444 q 163 939 163 786 l 361 939 l 353 298 l 180 333 m 254 213 q 307 193 271 213 q 358 155 334 177 q 385 120 382 134 q 380 93 387 110 q 362 58 374 75 q 322 4 342 26 q 287 -17 302 -17 q 235 2 271 -17 q 183 40 207 18 q 156 77 159 62 q 180 139 153 94 q 218 191 196 169 q 254 213 239 213 z "},"¡":{"ha":376,"x_min":20,"x_max":252,"o":"m 157 523 q 100 543 142 519 q 49 580 73 558 q 22 615 25 602 q 27 643 20 625 q 45 677 33 660 q 85 731 64 709 q 120 752 105 752 q 172 733 136 752 q 227 692 202 716 q 252 654 252 669 q 227 596 252 639 q 192 547 212 569 q 157 523 172 526 m 227 402 q 240 120 236 292 q 243 -203 243 -51 l 46 -203 l 54 437 l 227 402 z "},"#":{"ha":944,"x_min":42,"x_max":899,"o":"m 882 512 q 733 505 783 507 l 656 311 l 775 311 l 758 204 l 610 198 l 522 -24 l 402 2 l 479 194 q 304 191 363 191 l 218 -24 l 98 2 l 174 189 l 42 189 l 64 311 l 223 311 l 298 496 q 166 497 254 496 l 189 620 l 348 620 l 422 803 l 536 772 l 475 620 l 651 620 l 725 803 l 840 772 l 779 620 l 899 620 l 882 512 m 603 500 q 486 498 563 499 l 427 496 l 353 311 l 527 311 l 603 500 z "},".":{"ha":429,"x_min":89,"x_max":341,"o":"m 235 -24 q 185 -9 218 -27 q 124 35 152 9 q 92 77 96 60 q 107 127 89 94 q 152 189 125 161 q 195 220 178 218 q 201 221 197 221 q 252 202 220 221 q 309 159 283 184 q 338 120 335 135 q 322 69 341 102 q 278 7 304 35 q 235 -24 252 -22 z "},"?":{"ha":792,"x_min":108,"x_max":684,"o":"m 245 436 q 248 452 245 448 q 259 462 250 457 q 425 579 374 520 q 475 701 475 638 q 448 808 475 760 q 382 883 420 855 q 319 911 345 910 l 292 788 q 259 762 279 774 q 224 750 239 750 q 178 771 206 750 q 129 820 151 792 q 108 867 108 848 q 139 915 108 893 q 220 949 171 937 q 317 962 269 962 q 488 937 404 962 q 628 857 572 912 q 684 718 684 802 q 627 560 684 623 q 447 449 570 496 q 431 384 444 431 q 408 301 418 336 l 250 332 l 245 436 m 372 -24 q 322 -9 355 -27 q 261 35 289 9 q 229 77 233 60 q 229 82 229 78 q 247 133 229 101 q 290 192 266 165 q 331 220 315 218 q 337 221 333 221 q 389 202 357 221 q 446 159 420 184 q 474 120 471 135 q 459 69 477 102 q 414 7 440 35 q 372 -24 388 -22 z "},"¿":{"ha":751,"x_min":68,"x_max":644,"o":"m 380 766 q 429 750 396 768 q 491 706 463 732 q 522 665 519 681 q 523 659 523 663 q 504 608 523 640 q 461 550 486 576 q 420 521 437 524 q 414 520 418 520 q 362 539 394 520 q 306 582 331 557 q 277 621 280 606 q 293 672 274 639 q 337 734 311 706 q 380 766 363 763 m 506 305 q 504 289 506 294 q 492 279 501 284 q 327 162 378 221 q 276 40 276 103 q 304 -66 276 -19 q 369 -141 332 -114 q 433 -170 407 -169 l 459 -47 q 493 -21 473 -33 q 528 -9 513 -9 q 573 -30 545 -9 q 622 -79 601 -51 q 644 -126 644 -106 q 612 -174 644 -152 q 532 -208 581 -195 q 435 -220 484 -220 q 264 -196 348 -220 q 124 -116 180 -171 q 68 24 68 -61 q 125 181 68 118 q 304 292 182 245 q 321 358 309 311 q 344 440 334 406 l 502 409 l 506 305 z "},"\"":{"ha":534,"x_min":73,"x_max":458,"o":"m 73 949 l 222 949 q 216 777 221 867 q 203 612 212 686 l 73 648 l 73 949 m 309 949 l 458 949 q 452 777 457 867 q 439 612 448 686 l 309 648 l 309 949 z "},"'":{"ha":298,"x_min":73,"x_max":222,"o":"m 73 949 l 222 949 q 216 777 221 867 q 203 612 212 686 l 73 648 l 73 949 z "},";":{"ha":386,"x_min":96,"x_max":349,"o":"m 108 85 q 120 130 105 98 q 159 186 136 161 q 201 214 182 211 q 212 216 208 216 q 231 212 221 216 q 258 201 241 209 q 316 161 288 185 q 346 121 343 137 q 347 103 347 115 q 343 57 347 82 q 335 14 340 32 q 278 -105 321 -42 q 177 -217 236 -169 l 109 -205 l 200 -9 q 137 39 163 12 q 108 85 110 67 m 243 385 q 193 400 226 382 q 131 444 159 418 q 100 486 103 469 q 115 536 96 503 q 159 598 133 570 q 202 629 185 627 q 208 630 204 630 q 259 611 228 630 q 317 568 291 593 q 345 529 342 544 q 330 478 349 511 q 285 416 311 444 q 243 385 259 387 z "},"/":{"ha":615,"x_min":42,"x_max":574,"o":"m 574 981 l 176 -149 l 42 -117 l 443 1014 l 574 981 z "},"_":{"ha":694,"x_min":-43,"x_max":738,"o":"m 738 -123 l 715 -248 l -43 -248 l -16 -123 l 738 -123 z "},"{":{"ha":448,"x_min":30,"x_max":439,"o":"m 167 390 q 209 374 182 387 q 260 328 235 361 q 286 241 286 296 l 286 -108 l 438 -179 l 427 -227 q 232 -214 293 -227 q 154 -174 172 -201 q 137 -91 137 -147 l 137 269 q 44 368 137 320 q 34 377 39 372 q 30 390 30 382 q 35 404 30 397 q 44 412 39 410 q 107 458 78 431 q 137 517 137 486 l 137 873 q 155 957 137 930 q 236 996 172 983 q 439 1009 299 1009 l 430 961 l 286 888 l 286 538 q 260 452 286 484 q 209 406 235 419 q 167 390 182 393 z "},"}":{"ha":449,"x_min":9,"x_max":418,"o":"m 282 392 q 240 408 267 395 q 189 454 214 421 q 163 541 163 486 l 163 890 l 10 960 l 22 1009 q 216 996 155 1009 q 294 956 277 983 q 311 873 311 929 l 311 513 q 404 414 311 463 q 414 405 410 410 q 418 392 418 399 q 414 378 418 385 q 404 370 409 372 q 340 322 370 350 q 311 264 311 295 l 311 -91 q 294 -175 311 -148 q 213 -214 276 -201 q 9 -227 150 -227 l 18 -179 l 163 -106 l 163 244 q 189 330 163 298 q 240 376 214 363 q 282 392 267 389 z "},"[":{"ha":431,"x_min":109,"x_max":425,"o":"m 418 998 l 408 949 l 264 896 l 264 -111 l 425 -168 l 412 -214 l 109 -214 l 109 998 l 418 998 z "},"]":{"ha":429,"x_min":9,"x_max":320,"o":"m 320 -214 l 9 -214 l 20 -166 l 164 -111 l 164 896 l 9 949 l 22 998 l 320 998 l 320 -214 z "},"(":{"ha":422,"x_min":47,"x_max":412,"o":"m 47 392 q 121 740 47 579 q 343 1006 196 901 l 412 977 q 260 708 315 863 q 205 392 205 553 q 259 76 205 227 q 412 -191 313 -75 l 342 -221 q 120 43 193 -113 q 47 392 47 199 z "},")":{"ha":421,"x_min":10,"x_max":374,"o":"m 374 392 q 301 43 374 199 q 80 -221 229 -113 l 10 -191 q 163 76 109 -75 q 217 392 217 227 q 162 708 217 552 q 10 977 106 863 l 78 1006 q 300 740 225 901 q 374 392 374 579 z "},"—":{"ha":1389,"x_min":37,"x_max":1352,"o":"m 64 430 l 1352 430 l 1329 314 q 976 307 1279 310 q 413 301 673 303 q 37 298 153 298 l 64 430 z "},"–":{"ha":694,"x_min":41,"x_max":653,"o":"m 70 430 l 653 430 l 630 308 q 357 300 556 303 q 41 297 157 297 l 70 430 z "},"-":{"ha":669,"x_min":90,"x_max":579,"o":"m 118 445 l 579 445 l 558 332 q 329 316 490 323 q 90 309 169 309 l 118 445 z "},"­":{"ha":639,"x_min":90,"x_max":579,"o":"m 118 445 l 579 445 l 558 332 q 329 316 490 323 q 90 309 169 309 l 118 445 z "},"«":{"ha":686,"x_min":24,"x_max":635,"o":"m 216 313 q 404 39 360 130 l 332 -14 l 24 313 l 330 640 l 403 587 q 337 476 384 543 q 216 313 290 408 m 512 313 q 635 117 579 220 l 562 62 l 331 313 l 561 562 l 633 510 q 589 429 618 476 q 512 313 559 381 z "},"»":{"ha":686,"x_min":52,"x_max":662,"o":"m 469 313 q 348 477 394 410 q 283 587 302 544 l 355 640 l 662 313 l 355 -14 l 282 39 q 469 313 326 130 m 174 313 q 98 428 129 379 q 52 510 68 476 l 125 562 l 355 313 l 124 62 l 52 117 q 174 313 102 213 z "},"‹":{"ha":416,"x_min":24,"x_max":365,"o":"m 211 313 q 365 81 328 157 l 293 27 l 24 313 l 294 600 l 365 547 q 320 468 352 515 q 233 343 289 420 l 211 313 z "},"›":{"ha":417,"x_min":52,"x_max":393,"o":"m 184 343 q 97 468 128 420 q 52 547 65 515 l 123 600 l 393 313 l 124 27 l 52 81 q 206 313 91 161 l 184 343 z "},"„":{"ha":699,"x_min":60,"x_max":635,"o":"m 486 -28 q 422 17 450 -9 q 393 59 395 43 q 407 104 391 73 q 446 162 422 136 q 486 192 469 189 q 493 193 488 193 q 546 176 513 193 q 604 137 578 159 q 633 96 630 114 q 635 71 635 84 q 616 -23 635 29 q 561 -125 597 -75 q 473 -212 524 -176 l 406 -201 l 486 -28 m 157 -37 q 92 11 119 -16 q 62 56 64 39 q 76 102 60 70 q 115 162 92 134 q 155 192 138 189 q 161 193 157 193 q 215 176 181 193 q 275 137 248 160 q 304 97 302 115 q 306 71 306 89 q 287 -32 306 23 q 228 -142 267 -87 q 133 -240 189 -197 l 68 -229 l 157 -37 z "},"“":{"ha":707,"x_min":37,"x_max":610,"o":"m 186 791 q 234 758 212 777 q 269 723 256 740 q 281 694 281 705 q 265 648 281 679 q 227 591 249 616 q 188 562 205 565 l 182 561 q 129 577 162 561 q 68 616 95 593 q 39 656 41 639 q 37 683 37 665 q 57 786 37 730 q 115 896 76 842 q 210 994 154 951 l 275 983 l 186 791 m 517 781 q 583 735 555 762 q 610 692 610 707 q 594 646 610 676 q 556 590 578 615 q 517 562 534 565 l 511 561 q 458 577 490 561 q 399 617 425 594 q 370 657 373 640 q 368 683 368 669 q 387 777 368 725 q 443 879 406 829 q 530 966 479 930 l 597 955 l 517 781 z "},"”":{"ha":707,"x_min":94,"x_max":669,"o":"m 189 765 q 125 810 153 784 q 96 852 98 836 q 110 897 94 865 q 149 955 126 928 q 190 985 172 981 l 196 985 q 248 969 216 985 q 307 929 281 952 q 336 889 333 907 q 338 865 338 878 q 319 770 338 822 q 263 667 300 718 q 176 580 227 616 l 109 591 l 189 765 m 520 755 q 455 804 483 776 q 425 848 427 831 q 438 894 422 862 q 478 954 454 926 q 518 985 501 981 l 524 985 q 577 969 544 985 q 638 930 611 953 q 667 890 665 907 q 669 863 669 878 q 650 760 669 816 q 592 650 631 705 q 496 552 553 595 l 431 564 l 520 755 z "},"‘":{"ha":375,"x_min":37,"x_max":281,"o":"m 186 795 q 250 751 222 777 q 279 709 277 726 q 265 664 281 695 q 227 606 250 632 q 186 576 203 579 l 180 575 q 127 592 159 575 q 68 631 94 608 q 39 671 42 654 q 37 697 37 684 q 56 791 37 739 q 112 893 75 843 q 199 981 149 944 l 267 969 l 186 795 z "}}}
